<?xml version="1.0" encoding="UTF-8" standalone="no"?>
<svg
   xmlns:dc="http://purl.org/dc/elements/1.1/"
   xmlns:cc="http://creativecommons.org/ns#"
   xmlns:rdf="http://www.w3.org/1999/02/22-rdf-syntax-ns#"
   xmlns:svg="http://www.w3.org/2000/svg"
   xmlns="http://www.w3.org/2000/svg"
   xmlns:xlink="http://www.w3.org/1999/xlink"
   xmlns:sodipodi="http://sodipodi.sourceforge.net/DTD/sodipodi-0.dtd"
   xmlns:inkscape="http://www.inkscape.org/namespaces/inkscape"
   sodipodi:docname="drawing2.svg"
   inkscape:version="1.0 (4035a4f, 2020-05-01)"
   id="svg8"
   version="1.1"
   viewBox="0 0 210 297"
   height="297mm"
   width="210mm">
  <defs
     id="defs2">
    <marker
       inkscape:isstock="true"
       style="overflow:visible;"
       id="marker4860"
       refX="0.0"
       refY="0.0"
       orient="auto"
       inkscape:stockid="Arrow1Send">
      <path
         transform="scale(0.2) rotate(180) translate(6,0)"
         style="fill-rule:evenodd;stroke:#000000;stroke-width:1pt;stroke-opacity:1;fill:#000000;fill-opacity:1"
         d="M 0.0,0.0 L 5.0,-5.0 L -12.5,0.0 L 5.0,5.0 L 0.0,0.0 z "
         id="path4858" />
    </marker>
    <marker
       inkscape:isstock="true"
       style="overflow:visible"
       id="marker4850"
       refX="0.0"
       refY="0.0"
       orient="auto"
       inkscape:stockid="Arrow1Sstart">
      <path
         transform="scale(0.2) translate(6,0)"
         style="fill-rule:evenodd;stroke:#000000;stroke-width:1pt;stroke-opacity:1;fill:#000000;fill-opacity:1"
         d="M 0.0,0.0 L 5.0,-5.0 L -12.5,0.0 L 5.0,5.0 L 0.0,0.0 z "
         id="path4848" />
    </marker>
    <marker
       inkscape:collect="always"
       inkscape:stockid="Arrow1Send"
       orient="auto"
       refY="0.0"
       refX="0.0"
       id="marker4736"
       style="overflow:visible;"
       inkscape:isstock="true">
      <path
         id="path4734"
         d="M 0.0,0.0 L 5.0,-5.0 L -12.5,0.0 L 5.0,5.0 L 0.0,0.0 z "
         style="fill-rule:evenodd;stroke:#000000;stroke-width:1pt;stroke-opacity:1;fill:#000000;fill-opacity:1"
         transform="scale(0.2) rotate(180) translate(6,0)" />
    </marker>
    <marker
       inkscape:collect="always"
       inkscape:stockid="Arrow1Sstart"
       orient="auto"
       refY="0.0"
       refX="0.0"
       id="marker4726"
       style="overflow:visible"
       inkscape:isstock="true">
      <path
         id="path4724"
         d="M 0.0,0.0 L 5.0,-5.0 L -12.5,0.0 L 5.0,5.0 L 0.0,0.0 z "
         style="fill-rule:evenodd;stroke:#000000;stroke-width:1pt;stroke-opacity:1;fill:#000000;fill-opacity:1"
         transform="scale(0.2) translate(6,0)" />
    </marker>
    <marker
       inkscape:collect="always"
       inkscape:stockid="Arrow1Send"
       orient="auto"
       refY="0.0"
       refX="0.0"
       id="marker4524"
       style="overflow:visible;"
       inkscape:isstock="true">
      <path
         id="path4522"
         d="M 0.0,0.0 L 5.0,-5.0 L -12.5,0.0 L 5.0,5.0 L 0.0,0.0 z "
         style="fill-rule:evenodd;stroke:#000000;stroke-width:1pt;stroke-opacity:1;fill:#000000;fill-opacity:1"
         transform="scale(0.2) rotate(180) translate(6,0)" />
    </marker>
    <marker
       inkscape:collect="always"
       inkscape:stockid="Arrow1Sstart"
       orient="auto"
       refY="0.0"
       refX="0.0"
       id="marker4514"
       style="overflow:visible"
       inkscape:isstock="true">
      <path
         id="path4512"
         d="M 0.0,0.0 L 5.0,-5.0 L -12.5,0.0 L 5.0,5.0 L 0.0,0.0 z "
         style="fill-rule:evenodd;stroke:#000000;stroke-width:1pt;stroke-opacity:1;fill:#000000;fill-opacity:1"
         transform="scale(0.2) translate(6,0)" />
    </marker>
    <marker
       inkscape:collect="always"
       inkscape:isstock="true"
       style="overflow:visible;"
       id="Arrow1Send"
       refX="0.0"
       refY="0.0"
       orient="auto"
       inkscape:stockid="Arrow1Send">
      <path
         transform="scale(0.2) rotate(180) translate(6,0)"
         style="fill-rule:evenodd;stroke:#000000;stroke-width:1pt;stroke-opacity:1;fill:#000000;fill-opacity:1"
         d="M 0.0,0.0 L 5.0,-5.0 L -12.5,0.0 L 5.0,5.0 L 0.0,0.0 z "
         id="path3939" />
    </marker>
    <marker
       inkscape:isstock="true"
       style="overflow:visible;"
       id="Arrow1Mend"
       refX="0.0"
       refY="0.0"
       orient="auto"
       inkscape:stockid="Arrow1Mend">
      <path
         transform="scale(0.4) rotate(180) translate(10,0)"
         style="fill-rule:evenodd;stroke:#000000;stroke-width:1pt;stroke-opacity:1;fill:#000000;fill-opacity:1"
         d="M 0.0,0.0 L 5.0,-5.0 L -12.5,0.0 L 5.0,5.0 L 0.0,0.0 z "
         id="path3933" />
    </marker>
    <marker
       inkscape:collect="always"
       inkscape:isstock="true"
       style="overflow:visible"
       id="Arrow1Sstart"
       refX="0.0"
       refY="0.0"
       orient="auto"
       inkscape:stockid="Arrow1Sstart">
      <path
         transform="scale(0.2) translate(6,0)"
         style="fill-rule:evenodd;stroke:#000000;stroke-width:1pt;stroke-opacity:1;fill:#000000;fill-opacity:1"
         d="M 0.0,0.0 L 5.0,-5.0 L -12.5,0.0 L 5.0,5.0 L 0.0,0.0 z "
         id="path3936" />
    </marker>
    <pattern
       patternTransform="matrix(0.87476032,0,0,0.87476032,94.677897,11.528077)"
       id="pattern3741"
       xlink:href="#pattern3698"
       inkscape:collect="always" />
    <pattern
       patternTransform="matrix(0.87476032,0,0,0.87476032,-92.463532,22.769788)"
       id="pattern3739"
       xlink:href="#pattern3694"
       inkscape:collect="always" />
    <pattern
       patternTransform="matrix(6.1686223,0,0,7.7556875,-1.8685594,33.350222)"
       id="pattern3737"
       xlink:href="#pattern3006"
       inkscape:collect="always" />
    <pattern
       patternTransform="matrix(0.87476032,0,0,0.87476032,189.9018,170.23459)"
       id="pattern3702"
       xlink:href="#pattern3698"
       inkscape:collect="always" />
    <pattern
       patternTransform="translate(110.36904,-24.946428)"
       id="pattern3698"
       xlink:href="#pattern3694"
       inkscape:collect="always" />
    <pattern
       patternTransform="translate(-103.56548,-12.095238)"
       id="pattern3694"
       xlink:href="#Wavy"
       inkscape:collect="always" />
    <pattern
       inkscape:collect="always"
       patternUnits="userSpaceOnUse"
       width="30.066020"
       height="5.1805778"
       id="Wavy"
       inkscape:stockid="Wavy"
       inkscape:isstock="true">
      <path
         style="fill:black;stroke:none;"
         d="M 7.597,0.061 C 5.079,-0.187 2.656,0.302 -0.01,1.788 L -0.01,3.061 C 2.773,1.431 5.173,1.052 7.472,1.280 C 9.770,1.508 11.969,2.361 14.253,3.218 C 18.820,4.931 23.804,6.676 30.066,3.061 L 30.062,1.788 C 23.622,5.497 19.246,3.770 14.691,2.061 C 12.413,1.207 10.115,0.311 7.597,0.061 z "
         id="path2439" />
    </pattern>
    <pattern
       patternTransform="matrix(7.0517857,0,0,8.8660714,58.208336,-74.083337)"
       id="pattern3261"
       xlink:href="#pattern3006"
       inkscape:collect="always" />
    <pattern
       patternTransform="scale(7.0517857,8.8660714)"
       id="pattern3006"
       xlink:href="#Polkadots-med"
       inkscape:collect="always" />
    <pattern
       inkscape:collect="always"
       patternUnits="userSpaceOnUse"
       width="10"
       height="10"
       patternTransform="translate(0,0) scale(10,10)"
       id="Polkadots-med"
       inkscape:stockid="Polka dots, medium">
      <circle
         style="fill:black;stroke:none"
         cx="2.567"
         cy="0.810"
         r="0.15"
         id="circle2083" />
      <circle
         style="fill:black;stroke:none"
         cx="3.048"
         cy="2.33"
         r="0.15"
         id="circle2085" />
      <circle
         style="fill:black;stroke:none"
         cx="4.418"
         cy="2.415"
         r="0.15"
         id="circle2087" />
      <circle
         style="fill:black;stroke:none"
         cx="1.844"
         cy="3.029"
         r="0.15"
         id="circle2089" />
      <circle
         style="fill:black;stroke:none"
         cx="6.08"
         cy="1.363"
         r="0.15"
         id="circle2091" />
      <circle
         style="fill:black;stroke:none"
         cx="5.819"
         cy="4.413"
         r="0.15"
         id="circle2093" />
      <circle
         style="fill:black;stroke:none"
         cx="4.305"
         cy="4.048"
         r="0.15"
         id="circle2095" />
      <circle
         style="fill:black;stroke:none"
         cx="5.541"
         cy="3.045"
         r="0.15"
         id="circle2097" />
      <circle
         style="fill:black;stroke:none"
         cx="4.785"
         cy="5.527"
         r="0.15"
         id="circle2099" />
      <circle
         style="fill:black;stroke:none"
         cx="2.667"
         cy="5.184"
         r="0.15"
         id="circle2101" />
      <circle
         style="fill:black;stroke:none"
         cx="7.965"
         cy="1.448"
         r="0.15"
         id="circle2103" />
      <circle
         style="fill:black;stroke:none"
         cx="7.047"
         cy="5.049"
         r="0.15"
         id="circle2105" />
      <circle
         style="fill:black;stroke:none"
         cx="4.340"
         cy="0.895"
         r="0.15"
         id="circle2107" />
      <circle
         style="fill:black;stroke:none"
         cx="7.125"
         cy="0.340"
         r="0.15"
         id="circle2109" />
      <circle
         style="fill:black;stroke:none"
         cx="9.553"
         cy="1.049"
         r="0.15"
         id="circle2111" />
      <circle
         style="fill:black;stroke:none"
         cx="7.006"
         cy="2.689"
         r="0.15"
         id="circle2113" />
      <circle
         style="fill:black;stroke:none"
         cx="8.909"
         cy="2.689"
         r="0.15"
         id="circle2115" />
      <circle
         style="fill:black;stroke:none"
         cx="9.315"
         cy="4.407"
         r="0.15"
         id="circle2117" />
      <circle
         style="fill:black;stroke:none"
         cx="7.820"
         cy="3.870"
         r="0.15"
         id="circle2119" />
      <circle
         style="fill:black;stroke:none"
         cx="8.270"
         cy="5.948"
         r="0.15"
         id="circle2121" />
      <circle
         style="fill:black;stroke:none"
         cx="7.973"
         cy="7.428"
         r="0.15"
         id="circle2123" />
      <circle
         style="fill:black;stroke:none"
         cx="9.342"
         cy="8.072"
         r="0.15"
         id="circle2125" />
      <circle
         style="fill:black;stroke:none"
         cx="8.206"
         cy="9.315"
         r="0.15"
         id="circle2127" />
      <circle
         style="fill:black;stroke:none"
         cx="9.682"
         cy="9.475"
         r="0.15"
         id="circle2129" />
      <circle
         style="fill:black;stroke:none"
         cx="9.688"
         cy="6.186"
         r="0.15"
         id="circle2131" />
      <circle
         style="fill:black;stroke:none"
         cx="3.379"
         cy="6.296"
         r="0.15"
         id="circle2133" />
      <circle
         style="fill:black;stroke:none"
         cx="2.871"
         cy="8.204"
         r="0.15"
         id="circle2135" />
      <circle
         style="fill:black;stroke:none"
         cx="4.59"
         cy="8.719"
         r="0.15"
         id="circle2137" />
      <circle
         style="fill:black;stroke:none"
         cx="3.181"
         cy="9.671"
         r="0.15"
         id="circle2139" />
      <circle
         style="fill:black;stroke:none"
         cx="5.734"
         cy="7.315"
         r="0.15"
         id="circle2141" />
      <circle
         style="fill:black;stroke:none"
         cx="6.707"
         cy="6.513"
         r="0.15"
         id="circle2143" />
      <circle
         style="fill:black;stroke:none"
         cx="5.730"
         cy="9.670"
         r="0.15"
         id="circle2145" />
      <circle
         style="fill:black;stroke:none"
         cx="6.535"
         cy="8.373"
         r="0.15"
         id="circle2147" />
      <circle
         style="fill:black;stroke:none"
         cx="4.37"
         cy="7.154"
         r="0.15"
         id="circle2149" />
      <circle
         style="fill:black;stroke:none"
         cx="0.622"
         cy="7.25"
         r="0.15"
         id="circle2151" />
      <circle
         style="fill:black;stroke:none"
         cx="0.831"
         cy="5.679"
         r="0.15"
         id="circle2153" />
      <circle
         style="fill:black;stroke:none"
         cx="1.257"
         cy="8.519"
         r="0.15"
         id="circle2155" />
      <circle
         style="fill:black;stroke:none"
         cx="1.989"
         cy="6.877"
         r="0.15"
         id="circle2157" />
      <circle
         style="fill:black;stroke:none"
         cx="0.374"
         cy="3.181"
         r="0.15"
         id="circle2159" />
      <circle
         style="fill:black;stroke:none"
         cx="1.166"
         cy="1.664"
         r="0.15"
         id="circle2161" />
      <circle
         style="fill:black;stroke:none"
         cx="1.151"
         cy="0.093"
         r="0.15"
         id="circle2163" />
      <circle
         style="fill:black;stroke:none"
         cx="1.151"
         cy="10.093"
         r="0.15"
         id="circle2165" />
      <circle
         style="fill:black;stroke:none"
         cx="1.302"
         cy="4.451"
         r="0.15"
         id="circle2167" />
      <circle
         style="fill:black;stroke:none"
         cx="3.047"
         cy="3.763"
         r="0.15"
         id="circle2169" />
    </pattern>
    <pattern
       inkscape:collect="always"
       xlink:href="#Polkadots-med-1"
       id="pattern3006-1"
       patternTransform="matrix(6.1686224,0,0,7.7556875,139.97542,125.92897)" />
    <pattern
       inkscape:stockid="Polka dots, medium"
       id="Polkadots-med-1"
       patternTransform="translate(0,0) scale(10,10)"
       height="10"
       width="10"
       patternUnits="userSpaceOnUse"
       inkscape:collect="always">
      <circle
         id="circle2083-6"
         r="0.15"
         cy="0.810"
         cx="2.567"
         style="fill:black;stroke:none" />
      <circle
         id="circle2085-1"
         r="0.15"
         cy="2.33"
         cx="3.048"
         style="fill:black;stroke:none" />
      <circle
         id="circle2087-1"
         r="0.15"
         cy="2.415"
         cx="4.418"
         style="fill:black;stroke:none" />
      <circle
         id="circle2089-8"
         r="0.15"
         cy="3.029"
         cx="1.844"
         style="fill:black;stroke:none" />
      <circle
         id="circle2091-1"
         r="0.15"
         cy="1.363"
         cx="6.08"
         style="fill:black;stroke:none" />
      <circle
         id="circle2093-1"
         r="0.15"
         cy="4.413"
         cx="5.819"
         style="fill:black;stroke:none" />
      <circle
         id="circle2095-5"
         r="0.15"
         cy="4.048"
         cx="4.305"
         style="fill:black;stroke:none" />
      <circle
         id="circle2097-0"
         r="0.15"
         cy="3.045"
         cx="5.541"
         style="fill:black;stroke:none" />
      <circle
         id="circle2099-0"
         r="0.15"
         cy="5.527"
         cx="4.785"
         style="fill:black;stroke:none" />
      <circle
         id="circle2101-8"
         r="0.15"
         cy="5.184"
         cx="2.667"
         style="fill:black;stroke:none" />
      <circle
         id="circle2103-3"
         r="0.15"
         cy="1.448"
         cx="7.965"
         style="fill:black;stroke:none" />
      <circle
         id="circle2105-7"
         r="0.15"
         cy="5.049"
         cx="7.047"
         style="fill:black;stroke:none" />
      <circle
         id="circle2107-0"
         r="0.15"
         cy="0.895"
         cx="4.340"
         style="fill:black;stroke:none" />
      <circle
         id="circle2109-1"
         r="0.15"
         cy="0.340"
         cx="7.125"
         style="fill:black;stroke:none" />
      <circle
         id="circle2111-3"
         r="0.15"
         cy="1.049"
         cx="9.553"
         style="fill:black;stroke:none" />
      <circle
         id="circle2113-4"
         r="0.15"
         cy="2.689"
         cx="7.006"
         style="fill:black;stroke:none" />
      <circle
         id="circle2115-3"
         r="0.15"
         cy="2.689"
         cx="8.909"
         style="fill:black;stroke:none" />
      <circle
         id="circle2117-7"
         r="0.15"
         cy="4.407"
         cx="9.315"
         style="fill:black;stroke:none" />
      <circle
         id="circle2119-7"
         r="0.15"
         cy="3.870"
         cx="7.820"
         style="fill:black;stroke:none" />
      <circle
         id="circle2121-5"
         r="0.15"
         cy="5.948"
         cx="8.270"
         style="fill:black;stroke:none" />
      <circle
         id="circle2123-1"
         r="0.15"
         cy="7.428"
         cx="7.973"
         style="fill:black;stroke:none" />
      <circle
         id="circle2125-2"
         r="0.15"
         cy="8.072"
         cx="9.342"
         style="fill:black;stroke:none" />
      <circle
         id="circle2127-6"
         r="0.15"
         cy="9.315"
         cx="8.206"
         style="fill:black;stroke:none" />
      <circle
         id="circle2129-6"
         r="0.15"
         cy="9.475"
         cx="9.682"
         style="fill:black;stroke:none" />
      <circle
         id="circle2131-5"
         r="0.15"
         cy="6.186"
         cx="9.688"
         style="fill:black;stroke:none" />
      <circle
         id="circle2133-4"
         r="0.15"
         cy="6.296"
         cx="3.379"
         style="fill:black;stroke:none" />
      <circle
         id="circle2135-1"
         r="0.15"
         cy="8.204"
         cx="2.871"
         style="fill:black;stroke:none" />
      <circle
         id="circle2137-7"
         r="0.15"
         cy="8.719"
         cx="4.59"
         style="fill:black;stroke:none" />
      <circle
         id="circle2139-1"
         r="0.15"
         cy="9.671"
         cx="3.181"
         style="fill:black;stroke:none" />
      <circle
         id="circle2141-3"
         r="0.15"
         cy="7.315"
         cx="5.734"
         style="fill:black;stroke:none" />
      <circle
         id="circle2143-4"
         r="0.15"
         cy="6.513"
         cx="6.707"
         style="fill:black;stroke:none" />
      <circle
         id="circle2145-8"
         r="0.15"
         cy="9.670"
         cx="5.730"
         style="fill:black;stroke:none" />
      <circle
         id="circle2147-6"
         r="0.15"
         cy="8.373"
         cx="6.535"
         style="fill:black;stroke:none" />
      <circle
         id="circle2149-1"
         r="0.15"
         cy="7.154"
         cx="4.37"
         style="fill:black;stroke:none" />
      <circle
         id="circle2151-5"
         r="0.15"
         cy="7.25"
         cx="0.622"
         style="fill:black;stroke:none" />
      <circle
         id="circle2153-0"
         r="0.15"
         cy="5.679"
         cx="0.831"
         style="fill:black;stroke:none" />
      <circle
         id="circle2155-6"
         r="0.15"
         cy="8.519"
         cx="1.257"
         style="fill:black;stroke:none" />
      <circle
         id="circle2157-5"
         r="0.15"
         cy="6.877"
         cx="1.989"
         style="fill:black;stroke:none" />
      <circle
         id="circle2159-3"
         r="0.15"
         cy="3.181"
         cx="0.374"
         style="fill:black;stroke:none" />
      <circle
         id="circle2161-1"
         r="0.15"
         cy="1.664"
         cx="1.166"
         style="fill:black;stroke:none" />
      <circle
         id="circle2163-0"
         r="0.15"
         cy="0.093"
         cx="1.151"
         style="fill:black;stroke:none" />
      <circle
         id="circle2165-1"
         r="0.15"
         cy="10.093"
         cx="1.151"
         style="fill:black;stroke:none" />
      <circle
         id="circle2167-9"
         r="0.15"
         cy="4.451"
         cx="1.302"
         style="fill:black;stroke:none" />
      <circle
         id="circle2169-5"
         r="0.15"
         cy="3.763"
         cx="3.047"
         style="fill:black;stroke:none" />
    </pattern>
    <pattern
       inkscape:collect="always"
       xlink:href="#pattern3694-5"
       id="pattern3698-0"
       patternTransform="translate(-46.855185,-183.67178)" />
    <pattern
       inkscape:collect="always"
       xlink:href="#Wavy-9"
       id="pattern3694-5"
       patternTransform="translate(-103.56548,-12.095238)" />
    <pattern
       inkscape:isstock="true"
       inkscape:stockid="Wavy"
       id="Wavy-9"
       height="5.1805778"
       width="30.066020"
       patternUnits="userSpaceOnUse"
       inkscape:collect="always">
      <path
         id="path2439-4"
         d="M 7.597,0.061 C 5.079,-0.187 2.656,0.302 -0.01,1.788 L -0.01,3.061 C 2.773,1.431 5.173,1.052 7.472,1.280 C 9.770,1.508 11.969,2.361 14.253,3.218 C 18.820,4.931 23.804,6.676 30.066,3.061 L 30.062,1.788 C 23.622,5.497 19.246,3.770 14.691,2.061 C 12.413,1.207 10.115,0.311 7.597,0.061 z "
         style="fill:black;stroke:none;" />
    </pattern>
    <pattern
       patternTransform="matrix(6.1686225,0,0,7.7556875,339.52669,-203.35514)"
       id="pattern3006-1-2"
       xlink:href="#Polkadots-med-1-1"
       inkscape:collect="always" />
    <pattern
       inkscape:collect="always"
       patternUnits="userSpaceOnUse"
       width="10"
       height="10"
       patternTransform="translate(0,0) scale(10,10)"
       id="Polkadots-med-1-1"
       inkscape:stockid="Polka dots, medium">
      <circle
         style="fill:black;stroke:none"
         cx="2.567"
         cy="0.810"
         r="0.15"
         id="circle2083-6-7" />
      <circle
         style="fill:black;stroke:none"
         cx="3.048"
         cy="2.33"
         r="0.15"
         id="circle2085-1-1" />
      <circle
         style="fill:black;stroke:none"
         cx="4.418"
         cy="2.415"
         r="0.15"
         id="circle2087-1-9" />
      <circle
         style="fill:black;stroke:none"
         cx="1.844"
         cy="3.029"
         r="0.15"
         id="circle2089-8-4" />
      <circle
         style="fill:black;stroke:none"
         cx="6.08"
         cy="1.363"
         r="0.15"
         id="circle2091-1-7" />
      <circle
         style="fill:black;stroke:none"
         cx="5.819"
         cy="4.413"
         r="0.15"
         id="circle2093-1-6" />
      <circle
         style="fill:black;stroke:none"
         cx="4.305"
         cy="4.048"
         r="0.15"
         id="circle2095-5-6" />
      <circle
         style="fill:black;stroke:none"
         cx="5.541"
         cy="3.045"
         r="0.15"
         id="circle2097-0-6" />
      <circle
         style="fill:black;stroke:none"
         cx="4.785"
         cy="5.527"
         r="0.15"
         id="circle2099-0-7" />
      <circle
         style="fill:black;stroke:none"
         cx="2.667"
         cy="5.184"
         r="0.15"
         id="circle2101-8-3" />
      <circle
         style="fill:black;stroke:none"
         cx="7.965"
         cy="1.448"
         r="0.15"
         id="circle2103-3-4" />
      <circle
         style="fill:black;stroke:none"
         cx="7.047"
         cy="5.049"
         r="0.15"
         id="circle2105-7-7" />
      <circle
         style="fill:black;stroke:none"
         cx="4.340"
         cy="0.895"
         r="0.15"
         id="circle2107-0-0" />
      <circle
         style="fill:black;stroke:none"
         cx="7.125"
         cy="0.340"
         r="0.15"
         id="circle2109-1-7" />
      <circle
         style="fill:black;stroke:none"
         cx="9.553"
         cy="1.049"
         r="0.15"
         id="circle2111-3-0" />
      <circle
         style="fill:black;stroke:none"
         cx="7.006"
         cy="2.689"
         r="0.15"
         id="circle2113-4-6" />
      <circle
         style="fill:black;stroke:none"
         cx="8.909"
         cy="2.689"
         r="0.15"
         id="circle2115-3-3" />
      <circle
         style="fill:black;stroke:none"
         cx="9.315"
         cy="4.407"
         r="0.15"
         id="circle2117-7-3" />
      <circle
         style="fill:black;stroke:none"
         cx="7.820"
         cy="3.870"
         r="0.15"
         id="circle2119-7-5" />
      <circle
         style="fill:black;stroke:none"
         cx="8.270"
         cy="5.948"
         r="0.15"
         id="circle2121-5-0" />
      <circle
         style="fill:black;stroke:none"
         cx="7.973"
         cy="7.428"
         r="0.15"
         id="circle2123-1-2" />
      <circle
         style="fill:black;stroke:none"
         cx="9.342"
         cy="8.072"
         r="0.15"
         id="circle2125-2-6" />
      <circle
         style="fill:black;stroke:none"
         cx="8.206"
         cy="9.315"
         r="0.15"
         id="circle2127-6-6" />
      <circle
         style="fill:black;stroke:none"
         cx="9.682"
         cy="9.475"
         r="0.15"
         id="circle2129-6-8" />
      <circle
         style="fill:black;stroke:none"
         cx="9.688"
         cy="6.186"
         r="0.15"
         id="circle2131-5-7" />
      <circle
         style="fill:black;stroke:none"
         cx="3.379"
         cy="6.296"
         r="0.15"
         id="circle2133-4-3" />
      <circle
         style="fill:black;stroke:none"
         cx="2.871"
         cy="8.204"
         r="0.15"
         id="circle2135-1-7" />
      <circle
         style="fill:black;stroke:none"
         cx="4.59"
         cy="8.719"
         r="0.15"
         id="circle2137-7-6" />
      <circle
         style="fill:black;stroke:none"
         cx="3.181"
         cy="9.671"
         r="0.15"
         id="circle2139-1-5" />
      <circle
         style="fill:black;stroke:none"
         cx="5.734"
         cy="7.315"
         r="0.15"
         id="circle2141-3-4" />
      <circle
         style="fill:black;stroke:none"
         cx="6.707"
         cy="6.513"
         r="0.15"
         id="circle2143-4-6" />
      <circle
         style="fill:black;stroke:none"
         cx="5.730"
         cy="9.670"
         r="0.15"
         id="circle2145-8-8" />
      <circle
         style="fill:black;stroke:none"
         cx="6.535"
         cy="8.373"
         r="0.15"
         id="circle2147-6-3" />
      <circle
         style="fill:black;stroke:none"
         cx="4.37"
         cy="7.154"
         r="0.15"
         id="circle2149-1-1" />
      <circle
         style="fill:black;stroke:none"
         cx="0.622"
         cy="7.25"
         r="0.15"
         id="circle2151-5-7" />
      <circle
         style="fill:black;stroke:none"
         cx="0.831"
         cy="5.679"
         r="0.15"
         id="circle2153-0-1" />
      <circle
         style="fill:black;stroke:none"
         cx="1.257"
         cy="8.519"
         r="0.15"
         id="circle2155-6-6" />
      <circle
         style="fill:black;stroke:none"
         cx="1.989"
         cy="6.877"
         r="0.15"
         id="circle2157-5-4" />
      <circle
         style="fill:black;stroke:none"
         cx="0.374"
         cy="3.181"
         r="0.15"
         id="circle2159-3-4" />
      <circle
         style="fill:black;stroke:none"
         cx="1.166"
         cy="1.664"
         r="0.15"
         id="circle2161-1-9" />
      <circle
         style="fill:black;stroke:none"
         cx="1.151"
         cy="0.093"
         r="0.15"
         id="circle2163-0-5" />
      <circle
         style="fill:black;stroke:none"
         cx="1.151"
         cy="10.093"
         r="0.15"
         id="circle2165-1-9" />
      <circle
         style="fill:black;stroke:none"
         cx="1.302"
         cy="4.451"
         r="0.15"
         id="circle2167-9-8" />
      <circle
         style="fill:black;stroke:none"
         cx="3.047"
         cy="3.763"
         r="0.15"
         id="circle2169-5-4" />
    </pattern>
  </defs>
  <sodipodi:namedview
     inkscape:window-maximized="0"
     inkscape:window-y="23"
     inkscape:window-x="50"
     inkscape:window-height="855"
     inkscape:window-width="1252"
     showgrid="false"
     inkscape:document-rotation="0"
     inkscape:current-layer="layer1"
     inkscape:document-units="mm"
     inkscape:cy="700.98552"
     inkscape:cx="705.31117"
     inkscape:zoom="0.24748737"
     inkscape:pageshadow="2"
     inkscape:pageopacity="0.0"
     borderopacity="1.0"
     bordercolor="#666666"
     pagecolor="#ffffff"
     id="base" />
  <metadata
     id="metadata5">
    <rdf:RDF>
      <cc:Work
         rdf:about="">
        <dc:format>image/svg+xml</dc:format>
        <dc:type
           rdf:resource="http://purl.org/dc/dcmitype/StillImage" />
        <dc:title></dc:title>
      </cc:Work>
    </rdf:RDF>
  </metadata>
  <g
     id="layer1"
     inkscape:groupmode="layer"
     inkscape:label="Layer 1">
    <path
       sodipodi:open="true"
       d="M 85.077296,127.48436 A 33.063858,33.063858 0 0 1 51.314627,159.64652 33.063858,33.063858 0 0 1 18.965882,126.06258 33.063858,33.063858 0 0 1 52.370052,93.528238 33.063858,33.063858 0 0 1 85.088992,126.75162"
       sodipodi:arc-type="arc"
       sodipodi:end="0.0048789704"
       sodipodi:start="0.027043702"
       sodipodi:ry="33.063858"
       sodipodi:rx="33.063858"
       sodipodi:cy="126.5903"
       sodipodi:cx="52.025528"
       sodipodi:type="arc"
       id="path835"
       style="fill:url(#pattern3737);fill-opacity:1;stroke:#00001a;stroke-width:6.64818;stroke-linecap:round;stroke-linejoin:round;stroke-miterlimit:4;stroke-dasharray:none;stroke-opacity:0.407843;paint-order:markers fill stroke" />
    <path
       style="fill:url(#pattern3006-1);fill-opacity:1;stroke:#00001a;stroke-width:6.64818;stroke-linecap:round;stroke-linejoin:round;stroke-miterlimit:4;stroke-dasharray:none;stroke-opacity:0.407843;paint-order:markers fill stroke"
       id="path835-7"
       sodipodi:type="arc"
       sodipodi:cx="193.86951"
       sodipodi:cy="219.16902"
       sodipodi:rx="33.063858"
       sodipodi:ry="33.063858"
       sodipodi:start="0.027043702"
       sodipodi:end="0.0048789704"
       sodipodi:arc-type="arc"
       d="m 226.92127,220.06308 a 33.063858,33.063858 0 0 1 -33.76266,32.16216 33.063858,33.063858 0 0 1 -32.34875,-33.58394 33.063858,33.063858 0 0 1 33.40417,-32.53434 33.063858,33.063858 0 0 1 32.71894,33.22338"
       sodipodi:open="true" />
    <path
       style="fill:url(#pattern3739);fill-opacity:1;stroke:#00001a;stroke-width:6.64818;stroke-linecap:round;stroke-linejoin:round;stroke-miterlimit:4;stroke-dasharray:none;stroke-opacity:0.407843;paint-order:markers fill stroke"
       id="path3643"
       sodipodi:type="arc"
       sodipodi:cx="21.468143"
       sodipodi:cy="82.438316"
       sodipodi:rx="33.063858"
       sodipodi:ry="33.063858"
       sodipodi:start="0.027043702"
       sodipodi:end="0.0048789704"
       sodipodi:arc-type="arc"
       d="M 54.519911,83.332376 A 33.063858,33.063858 0 0 1 20.757242,115.49453 33.063858,33.063858 0 0 1 -11.591503,81.910595 33.063858,33.063858 0 0 1 21.812668,49.376253 a 33.063858,33.063858 0 0 1 32.71894,33.22338"
       sodipodi:open="true" />
    <path
       sodipodi:open="true"
       d="m 241.66134,72.09067 a 33.063858,33.063858 0 0 1 -33.76267,32.16215 33.063858,33.063858 0 0 1 -32.34874,-33.583931 33.063858,33.063858 0 0 1 33.40417,-32.534343 33.063858,33.063858 0 0 1 32.71894,33.22338"
       sodipodi:arc-type="arc"
       sodipodi:end="0.0048789704"
       sodipodi:start="0.027043702"
       sodipodi:ry="33.063858"
       sodipodi:rx="33.063858"
       sodipodi:cy="71.196609"
       sodipodi:cx="208.60957"
       sodipodi:type="arc"
       id="path3696"
       style="fill:url(#pattern3741);fill-opacity:1;stroke:#00001a;stroke-width:6.64818;stroke-linecap:round;stroke-linejoin:round;stroke-miterlimit:4;stroke-dasharray:none;stroke-opacity:0.407843;paint-order:markers fill stroke" />
    <path
       style="fill:url(#pattern3702);fill-opacity:1;stroke:#00001a;stroke-width:6.64818;stroke-linecap:round;stroke-linejoin:round;stroke-miterlimit:4;stroke-dasharray:none;stroke-opacity:0.407843;paint-order:markers fill stroke"
       id="path3700"
       sodipodi:type="arc"
       sodipodi:cx="303.83347"
       sodipodi:cy="229.90312"
       sodipodi:rx="33.063858"
       sodipodi:ry="33.063858"
       sodipodi:start="0.027043702"
       sodipodi:end="0.0048789704"
       sodipodi:arc-type="arc"
       d="m 336.88523,230.79718 a 33.063858,33.063858 0 0 1 -33.76267,32.16216 33.063858,33.063858 0 0 1 -32.34874,-33.58394 33.063858,33.063858 0 0 1 33.40417,-32.53434 33.063858,33.063858 0 0 1 32.71894,33.22338"
       sodipodi:open="true" />
    <path
       id="path3704"
       d="m 74.839589,149.735 89.272421,52.2409"
       style="fill:none;stroke:#000000;stroke-width:2.59366;stroke-linecap:butt;stroke-linejoin:miter;stroke-miterlimit:4;stroke-dasharray:none;stroke-opacity:1" />
    <path
       id="path3706"
       d="M 54.531607,82.599633 174.03116,73.02685"
       style="fill:none;stroke:#000000;stroke-width:2.59366;stroke-linecap:butt;stroke-linejoin:miter;stroke-miterlimit:4;stroke-dasharray:none;stroke-opacity:1" />
    <path
       id="path3708"
       d="M 227.59461,98.155382 287.77084,199.99206"
       style="fill:none;stroke:#000000;stroke-width:2.59366;stroke-linecap:butt;stroke-linejoin:miter;stroke-miterlimit:4;stroke-dasharray:none;stroke-opacity:1" />
    <path
       style="fill:url(#pattern3698-0);fill-opacity:1;stroke:#00001a;stroke-width:7.6;stroke-linecap:round;stroke-linejoin:round;stroke-miterlimit:4;stroke-dasharray:none;stroke-opacity:0.407843;paint-order:markers fill stroke"
       id="path3696-3"
       sodipodi:type="arc"
       sodipodi:cx="83.38813"
       sodipodi:cy="-115.46049"
       sodipodi:rx="37.797619"
       sodipodi:ry="37.797619"
       sodipodi:start="0.027043702"
       sodipodi:end="0.0048789704"
       sodipodi:arc-type="arc"
       d="m 121.17193,-114.43842 a 37.797619,37.797619 0 0 1 -38.596481,36.766814 37.797619,37.797619 0 0 1 -36.980123,-38.392154 37.797619,37.797619 0 0 1 38.186654,-37.19229 37.797619,37.797619 0 0 1 37.40332,37.97998"
       sodipodi:open="true" />
    <text
       id="text3745"
       y="-125.08214"
       x="133.63477"
       style="font-style:normal;font-weight:normal;font-size:19.7556px;line-height:1.25;font-family:sans-serif;fill:#000000;fill-opacity:1;stroke:none;stroke-width:0.264583"
       xml:space="preserve"><tspan
         style="font-size:19.7556px;stroke-width:0.264583"
         y="-125.08214"
         x="133.63477"
         id="tspan3743"
         sodipodi:role="line">United atom </tspan><tspan
         id="tspan3906"
         style="font-size:19.7556px;stroke-width:0.264583"
         y="-100.38763"
         x="133.63477"
         sodipodi:role="line">Butane</tspan></text>
    <path
       sodipodi:open="true"
       d="m 426.47254,-109.22103 a 33.063858,33.063858 0 0 1 -33.76267,32.162155 33.063858,33.063858 0 0 1 -32.34874,-33.583935 33.063858,33.063858 0 0 1 33.40417,-32.53434 33.063858,33.063858 0 0 1 32.71894,33.22338"
       sodipodi:arc-type="arc"
       sodipodi:end="0.0048789704"
       sodipodi:start="0.027043702"
       sodipodi:ry="33.063858"
       sodipodi:rx="33.063858"
       sodipodi:cy="-110.11509"
       sodipodi:cx="393.42078"
       sodipodi:type="arc"
       id="path835-7-0"
       style="fill:url(#pattern3006-1-2);fill-opacity:1;stroke:#00001a;stroke-width:6.64819;stroke-linecap:round;stroke-linejoin:round;stroke-miterlimit:4;stroke-dasharray:none;stroke-opacity:0.407843;paint-order:markers fill stroke" />
    <text
       xml:space="preserve"
       style="font-style:normal;font-weight:normal;font-size:19.7556px;line-height:1.25;font-family:sans-serif;fill:#000000;fill-opacity:1;stroke:none;stroke-width:0.264583"
       x="439.75079"
       y="-117.59859"
       id="text3902"><tspan
         sodipodi:role="line"
         id="tspan3900"
         x="439.75079"
         y="-117.59859"
         style="font-size:19.7556px;stroke-width:0.264583">United atom </tspan><tspan
         id="tspan3908"
         sodipodi:role="line"
         x="439.75079"
         y="-92.904083"
         style="font-size:19.7556px;stroke-width:0.264583">Ethane</tspan></text>
    <path
       id="path3910"
       d="m -47.039438,7.483547 c -2.536023,58.328584 -4.179126,42.96827 3.207237,103.700573 0.77648,6.38441 5.067708,38.84226 9.621701,47.03944 1.973227,3.55181 4.921372,6.46826 7.483547,9.6217 1.734834,2.13519 13.991208,16.26878 14.967094,17.10526 18.8174635,16.12925 51.531333,29.68989 71.628231,40.62496 10.79359,5.87298 21.535522,11.85224 32.072344,18.17433 12.756784,7.65407 24.836334,18.38403 38.486814,24.5888 15.09362,6.86073 32.62538,8.1937 48.10851,13.89801 27.45728,10.11584 9.64799,9.4479 42.76313,14.96708 6.68795,1.11467 13.54333,0.68228 20.31248,1.0691 5.70357,0.32592 11.40351,0.71271 17.10525,1.06908 9.62171,0.35634 19.24884,0.58825 28.86512,1.06908 5.91661,0.29583 15.99411,2.25978 22.45063,0 32.912,-11.51922 46.25708,-42.93481 60.93746,-71.62824 3.12214,-6.1024 6.55619,-12.04329 9.6217,-18.17433 6.23988,-12.47979 13.98093,-42.53996 32.07235,-43.8322 12.02332,-0.85881 14.01979,0.54976 26.72693,2.13815 3.55373,0.44422 7.27565,-0.009 10.69078,1.06908 21.98474,6.94255 52.13221,45.23405 59.86839,64.14469 2.29777,5.61675 0.93424,12.10724 1.06907,18.17433 0.49144,22.11454 0.45919,33.2247 -2.13815,54.52297 -1.39105,11.40666 -4.92704,32.01921 -10.69078,41.69404 -26.74443,44.89244 -79.48462,70.16443 -126.15122,87.66443 -57.8762,21.70355 -107.44049,20.86022 -167.84526,14.96708 -8.54171,-0.83333 -17.27665,-0.29144 -25.65788,-2.13815 -19.14211,-4.21775 -43.7497,-13.53453 -62.00652,-22.45064 -31.131064,-15.20354 -54.391457,-40.06519 -82.319021,-59.86838 -50.602481,-35.88176 -13.361064,-5.47116 -68.420999,-39.5559 -23.483219,-14.53721 -57.01427,-43.16039 -73.76639,-62.00652 -23.96559,-26.96129 -30.03737,-46.11908 -42.76312,-79.11178 -8.2244,-21.32252 -16.1623,-45.08305 -21.38156,-67.35192 -7.73445,-33.000307 -13.17637,-68.968241 0,-101.56242 6.4238,-15.890465 27.72811,-33.841534 43.8322,-39.555891 6.92358,-2.456754 14.18487,-3.869144 21.38156,-5.34539 1.24882,-0.256167 24.804403,-4.917162 29.934187,-3.207234 3.656808,1.218938 6.646208,3.964062 9.621702,6.414468 14.987169,12.342376 10.520942,22.280802 20.312483,32.072344 z"
       style="fill:#ff7f2a;fill-opacity:0.522267;stroke:#000000;stroke-width:0.264583px;stroke-linecap:butt;stroke-linejoin:miter;stroke-opacity:1" />
    <path
       id="path3912"
       d="m 375.24642,-50.246671 c 10.03135,3.143959 21.23389,1.532956 31.00326,5.34539 20.28182,7.914855 32.8063,36.4260694 9.62171,49.1775934 -7.67924,4.2235814 -37.13176,5.2459694 -44.9013,2.1381561 -3.77251,-1.5090056 -7.23189,-4.1975532 -9.62168,-7.4835466 -3.46951,-4.77057 -5.29281,-10.5592759 -7.48356,-16.0361709 -0.67484,-1.68712 -1.36781,-3.553031 -1.06907,-5.345391 1.2895,-7.737021 7.0123,-14.615439 11.75985,-20.312485 0.51012,-0.61215 0.43159,-1.660048 1.06908,-2.138156 6.30497,-4.728725 1.02743,3.248877 9.62171,-5.34539 z"
       style="fill:#ff7f2a;fill-opacity:0.502024;stroke:#000000;stroke-width:0.264583px;stroke-linecap:butt;stroke-linejoin:miter;stroke-opacity:1" />
    <text
       id="text3918"
       y="-22.348598"
       x="439.75079"
       style="font-style:normal;font-weight:normal;font-size:19.7556px;line-height:1.25;font-family:sans-serif;fill:#000000;fill-opacity:1;stroke:none;stroke-width:0.264583"
       xml:space="preserve"><tspan
         style="font-size:19.7556px;stroke-width:0.264583"
         y="-22.348598"
         x="439.75079"
         sodipodi:role="line"
         id="tspan3916">Binding site</tspan></text>
    <path
       id="path3922"
       d="m -14.967093,97.286108 -26.726954,8.552622"
       style="fill:none;stroke:#000000;stroke-width:3.265;stroke-linecap:butt;stroke-linejoin:miter;stroke-opacity:1;stroke-miterlimit:4;stroke-dasharray:none;marker-start:url(#Arrow1Sstart);marker-end:url(#Arrow1Send)" />
    <path
       sodipodi:nodetypes="cc"
       style="fill:none;stroke:#000000;stroke-width:3.265;stroke-linecap:butt;stroke-linejoin:miter;stroke-miterlimit:4;stroke-dasharray:none;stroke-opacity:1;marker-start:url(#marker4514);marker-end:url(#marker4524)"
       d="M 28.538159,162.20633 3.3231095,191.92563"
       id="path4510" />
    <path
       sodipodi:nodetypes="cc"
       style="fill:none;stroke:#000000;stroke-width:3.265;stroke-linecap:butt;stroke-linejoin:miter;stroke-miterlimit:4;stroke-dasharray:none;stroke-opacity:1;marker-start:url(#marker4726);marker-end:url(#marker4736)"
       d="m 304.36031,270.18322 3.11552,28.11568"
       id="path4722" />
    <path
       id="path4792"
       d="m 189.96895,257.35428 -4.90256,26.51207"
       style="fill:none;stroke:#000000;stroke-width:3.265;stroke-linecap:butt;stroke-linejoin:miter;stroke-miterlimit:4;stroke-dasharray:none;stroke-opacity:1;marker-start:url(#marker4850);marker-end:url(#marker4860)"
       sodipodi:nodetypes="cc" />
  </g>
</svg>
