<?xml version="1.0" encoding="utf-8" standalone="no"?>
<!DOCTYPE svg PUBLIC "-//W3C//DTD SVG 1.1//EN"
  "http://www.w3.org/Graphics/SVG/1.1/DTD/svg11.dtd">
<!-- Created with matplotlib (https://matplotlib.org/) -->
<svg height="432pt" version="1.1" viewBox="0 0 864 432" width="864pt" xmlns="http://www.w3.org/2000/svg" xmlns:xlink="http://www.w3.org/1999/xlink">
 <defs>
  <style type="text/css">
*{stroke-linecap:butt;stroke-linejoin:round;white-space:pre;}
  </style>
 </defs>
 <g id="figure_1">
  <g id="patch_1">
   <path d="M 0 432 
L 864 432 
L 864 0 
L 0 0 
z
" style="fill:#ffffff;"/>
  </g>
  <g id="axes_1">
   <g id="patch_2">
    <path d="M 108 190.44 
L 504.8 190.44 
L 504.8 51.84 
L 108 51.84 
z
" style="fill:#eaeaf2;"/>
   </g>
   <g id="matplotlib.axis_1">
    <g id="xtick_1">
     <g id="line2d_1">
      <path clip-path="url(#p2a97660466)" d="M 188.343802 190.44 
L 188.343802 51.84 
" style="fill:none;stroke:#ffffff;stroke-linecap:round;"/>
     </g>
     <g id="line2d_2"/>
     <g id="text_1">
      <!-- 50 -->
      <defs>
       <path d="M 4.15625 18.75 
L 13.375 19.53125 
Q 14.40625 12.796875 18.140625 9.390625 
Q 21.875 6 27.15625 6 
Q 33.5 6 37.890625 10.78125 
Q 42.28125 15.578125 42.28125 23.484375 
Q 42.28125 31 38.0625 35.34375 
Q 33.84375 39.703125 27 39.703125 
Q 22.75 39.703125 19.328125 37.765625 
Q 15.921875 35.84375 13.96875 32.765625 
L 5.71875 33.84375 
L 12.640625 70.609375 
L 48.25 70.609375 
L 48.25 62.203125 
L 19.671875 62.203125 
L 15.828125 42.96875 
Q 22.265625 47.46875 29.34375 47.46875 
Q 38.71875 47.46875 45.15625 40.96875 
Q 51.609375 34.46875 51.609375 24.265625 
Q 51.609375 14.546875 45.953125 7.46875 
Q 39.0625 -1.21875 27.15625 -1.21875 
Q 17.390625 -1.21875 11.203125 4.25 
Q 5.03125 9.71875 4.15625 18.75 
z
" id="ArialMT-53"/>
       <path d="M 4.15625 35.296875 
Q 4.15625 48 6.765625 55.734375 
Q 9.375 63.484375 14.515625 67.671875 
Q 19.671875 71.875 27.484375 71.875 
Q 33.25 71.875 37.59375 69.546875 
Q 41.9375 67.234375 44.765625 62.859375 
Q 47.609375 58.5 49.21875 52.21875 
Q 50.828125 45.953125 50.828125 35.296875 
Q 50.828125 22.703125 48.234375 14.96875 
Q 45.65625 7.234375 40.5 3 
Q 35.359375 -1.21875 27.484375 -1.21875 
Q 17.140625 -1.21875 11.234375 6.203125 
Q 4.15625 15.140625 4.15625 35.296875 
z
M 13.1875 35.296875 
Q 13.1875 17.671875 17.3125 11.828125 
Q 21.4375 6 27.484375 6 
Q 33.546875 6 37.671875 11.859375 
Q 41.796875 17.71875 41.796875 35.296875 
Q 41.796875 52.984375 37.671875 58.78125 
Q 33.546875 64.59375 27.390625 64.59375 
Q 21.34375 64.59375 17.71875 59.46875 
Q 13.1875 52.9375 13.1875 35.296875 
z
" id="ArialMT-48"/>
      </defs>
      <g style="fill:#262626;" transform="translate(182.782864 204.597813)scale(0.1 -0.1)">
       <use xlink:href="#ArialMT-53"/>
       <use x="55.615234" xlink:href="#ArialMT-48"/>
      </g>
     </g>
    </g>
    <g id="xtick_2">
     <g id="line2d_3">
      <path clip-path="url(#p2a97660466)" d="M 270.327273 190.44 
L 270.327273 51.84 
" style="fill:none;stroke:#ffffff;stroke-linecap:round;"/>
     </g>
     <g id="line2d_4"/>
     <g id="text_2">
      <!-- 100 -->
      <defs>
       <path d="M 37.25 0 
L 28.46875 0 
L 28.46875 56 
Q 25.296875 52.984375 20.140625 49.953125 
Q 14.984375 46.921875 10.890625 45.40625 
L 10.890625 53.90625 
Q 18.265625 57.375 23.78125 62.296875 
Q 29.296875 67.234375 31.59375 71.875 
L 37.25 71.875 
z
" id="ArialMT-49"/>
      </defs>
      <g style="fill:#262626;" transform="translate(261.985866 204.597813)scale(0.1 -0.1)">
       <use xlink:href="#ArialMT-49"/>
       <use x="55.615234" xlink:href="#ArialMT-48"/>
       <use x="111.230469" xlink:href="#ArialMT-48"/>
      </g>
     </g>
    </g>
    <g id="xtick_3">
     <g id="line2d_5">
      <path clip-path="url(#p2a97660466)" d="M 352.310744 190.44 
L 352.310744 51.84 
" style="fill:none;stroke:#ffffff;stroke-linecap:round;"/>
     </g>
     <g id="line2d_6"/>
     <g id="text_3">
      <!-- 150 -->
      <g style="fill:#262626;" transform="translate(343.969338 204.597813)scale(0.1 -0.1)">
       <use xlink:href="#ArialMT-49"/>
       <use x="55.615234" xlink:href="#ArialMT-53"/>
       <use x="111.230469" xlink:href="#ArialMT-48"/>
      </g>
     </g>
    </g>
    <g id="xtick_4">
     <g id="line2d_7">
      <path clip-path="url(#p2a97660466)" d="M 434.294215 190.44 
L 434.294215 51.84 
" style="fill:none;stroke:#ffffff;stroke-linecap:round;"/>
     </g>
     <g id="line2d_8"/>
     <g id="text_4">
      <!-- 200 -->
      <defs>
       <path d="M 50.34375 8.453125 
L 50.34375 0 
L 3.03125 0 
Q 2.9375 3.171875 4.046875 6.109375 
Q 5.859375 10.9375 9.828125 15.625 
Q 13.8125 20.3125 21.34375 26.46875 
Q 33.015625 36.03125 37.109375 41.625 
Q 41.21875 47.21875 41.21875 52.203125 
Q 41.21875 57.421875 37.46875 61 
Q 33.734375 64.59375 27.734375 64.59375 
Q 21.390625 64.59375 17.578125 60.78125 
Q 13.765625 56.984375 13.71875 50.25 
L 4.6875 51.171875 
Q 5.609375 61.28125 11.65625 66.578125 
Q 17.71875 71.875 27.9375 71.875 
Q 38.234375 71.875 44.234375 66.15625 
Q 50.25 60.453125 50.25 52 
Q 50.25 47.703125 48.484375 43.546875 
Q 46.734375 39.40625 42.65625 34.8125 
Q 38.578125 30.21875 29.109375 22.21875 
Q 21.1875 15.578125 18.9375 13.203125 
Q 16.703125 10.84375 15.234375 8.453125 
z
" id="ArialMT-50"/>
      </defs>
      <g style="fill:#262626;" transform="translate(425.952809 204.597813)scale(0.1 -0.1)">
       <use xlink:href="#ArialMT-50"/>
       <use x="55.615234" xlink:href="#ArialMT-48"/>
       <use x="111.230469" xlink:href="#ArialMT-48"/>
      </g>
     </g>
    </g>
   </g>
   <g id="matplotlib.axis_2">
    <g id="ytick_1">
     <g id="line2d_9"/>
     <g id="text_5">
      <!-- 0.000 -->
      <defs>
       <path d="M 9.078125 0 
L 9.078125 10.015625 
L 19.09375 10.015625 
L 19.09375 0 
z
" id="ArialMT-46"/>
      </defs>
      <g style="fill:#262626;" transform="translate(75.978125 187.718907)scale(0.1 -0.1)">
       <use xlink:href="#ArialMT-48"/>
       <use x="55.615234" xlink:href="#ArialMT-46"/>
       <use x="83.398438" xlink:href="#ArialMT-48"/>
       <use x="139.013672" xlink:href="#ArialMT-48"/>
       <use x="194.628906" xlink:href="#ArialMT-48"/>
      </g>
     </g>
    </g>
    <g id="ytick_2">
     <g id="line2d_10"/>
     <g id="text_6">
      <!-- 0.005 -->
      <g style="fill:#262626;" transform="translate(75.978125 160.495156)scale(0.1 -0.1)">
       <use xlink:href="#ArialMT-48"/>
       <use x="55.615234" xlink:href="#ArialMT-46"/>
       <use x="83.398438" xlink:href="#ArialMT-48"/>
       <use x="139.013672" xlink:href="#ArialMT-48"/>
       <use x="194.628906" xlink:href="#ArialMT-53"/>
      </g>
     </g>
    </g>
    <g id="ytick_3">
     <g id="line2d_11"/>
     <g id="text_7">
      <!-- 0.010 -->
      <g style="fill:#262626;" transform="translate(75.978125 133.271404)scale(0.1 -0.1)">
       <use xlink:href="#ArialMT-48"/>
       <use x="55.615234" xlink:href="#ArialMT-46"/>
       <use x="83.398438" xlink:href="#ArialMT-48"/>
       <use x="139.013672" xlink:href="#ArialMT-49"/>
       <use x="194.628906" xlink:href="#ArialMT-48"/>
      </g>
     </g>
    </g>
    <g id="ytick_4">
     <g id="line2d_12"/>
     <g id="text_8">
      <!-- 0.015 -->
      <g style="fill:#262626;" transform="translate(75.978125 106.047653)scale(0.1 -0.1)">
       <use xlink:href="#ArialMT-48"/>
       <use x="55.615234" xlink:href="#ArialMT-46"/>
       <use x="83.398438" xlink:href="#ArialMT-48"/>
       <use x="139.013672" xlink:href="#ArialMT-49"/>
       <use x="194.628906" xlink:href="#ArialMT-53"/>
      </g>
     </g>
    </g>
    <g id="ytick_5">
     <g id="line2d_13"/>
     <g id="text_9">
      <!-- 0.020 -->
      <g style="fill:#262626;" transform="translate(75.978125 78.823901)scale(0.1 -0.1)">
       <use xlink:href="#ArialMT-48"/>
       <use x="55.615234" xlink:href="#ArialMT-46"/>
       <use x="83.398438" xlink:href="#ArialMT-48"/>
       <use x="139.013672" xlink:href="#ArialMT-50"/>
       <use x="194.628906" xlink:href="#ArialMT-48"/>
      </g>
     </g>
    </g>
    <g id="text_10">
     <!-- Density -->
     <defs>
      <path d="M 7.71875 0 
L 7.71875 71.578125 
L 32.375 71.578125 
Q 40.71875 71.578125 45.125 70.5625 
Q 51.265625 69.140625 55.609375 65.4375 
Q 61.28125 60.640625 64.078125 53.1875 
Q 66.890625 45.75 66.890625 36.1875 
Q 66.890625 28.03125 64.984375 21.734375 
Q 63.09375 15.4375 60.109375 11.296875 
Q 57.125 7.171875 53.578125 4.796875 
Q 50.046875 2.4375 45.046875 1.21875 
Q 40.046875 0 33.546875 0 
z
M 17.1875 8.453125 
L 32.46875 8.453125 
Q 39.546875 8.453125 43.578125 9.765625 
Q 47.609375 11.078125 50 13.484375 
Q 53.375 16.84375 55.25 22.53125 
Q 57.125 28.21875 57.125 36.328125 
Q 57.125 47.5625 53.4375 53.59375 
Q 49.75 59.625 44.484375 61.671875 
Q 40.671875 63.140625 32.234375 63.140625 
L 17.1875 63.140625 
z
" id="ArialMT-68"/>
      <path d="M 42.09375 16.703125 
L 51.171875 15.578125 
Q 49.03125 7.625 43.21875 3.21875 
Q 37.40625 -1.171875 28.375 -1.171875 
Q 17 -1.171875 10.328125 5.828125 
Q 3.65625 12.84375 3.65625 25.484375 
Q 3.65625 38.578125 10.390625 45.796875 
Q 17.140625 53.03125 27.875 53.03125 
Q 38.28125 53.03125 44.875 45.953125 
Q 51.46875 38.875 51.46875 26.03125 
Q 51.46875 25.25 51.421875 23.6875 
L 12.75 23.6875 
Q 13.234375 15.140625 17.578125 10.59375 
Q 21.921875 6.0625 28.421875 6.0625 
Q 33.25 6.0625 36.671875 8.59375 
Q 40.09375 11.140625 42.09375 16.703125 
z
M 13.234375 30.90625 
L 42.1875 30.90625 
Q 41.609375 37.453125 38.875 40.71875 
Q 34.671875 45.796875 27.984375 45.796875 
Q 21.921875 45.796875 17.796875 41.75 
Q 13.671875 37.703125 13.234375 30.90625 
z
" id="ArialMT-101"/>
      <path d="M 6.59375 0 
L 6.59375 51.859375 
L 14.5 51.859375 
L 14.5 44.484375 
Q 20.21875 53.03125 31 53.03125 
Q 35.6875 53.03125 39.625 51.34375 
Q 43.5625 49.65625 45.515625 46.921875 
Q 47.46875 44.1875 48.25 40.4375 
Q 48.734375 37.984375 48.734375 31.890625 
L 48.734375 0 
L 39.9375 0 
L 39.9375 31.546875 
Q 39.9375 36.921875 38.90625 39.578125 
Q 37.890625 42.234375 35.28125 43.8125 
Q 32.671875 45.40625 29.15625 45.40625 
Q 23.53125 45.40625 19.453125 41.84375 
Q 15.375 38.28125 15.375 28.328125 
L 15.375 0 
z
" id="ArialMT-110"/>
      <path d="M 3.078125 15.484375 
L 11.765625 16.84375 
Q 12.5 11.625 15.84375 8.84375 
Q 19.1875 6.0625 25.203125 6.0625 
Q 31.25 6.0625 34.171875 8.515625 
Q 37.109375 10.984375 37.109375 14.3125 
Q 37.109375 17.28125 34.515625 19 
Q 32.71875 20.171875 25.53125 21.96875 
Q 15.875 24.421875 12.140625 26.203125 
Q 8.40625 27.984375 6.46875 31.125 
Q 4.546875 34.28125 4.546875 38.09375 
Q 4.546875 41.546875 6.125 44.5 
Q 7.71875 47.46875 10.453125 49.421875 
Q 12.5 50.921875 16.03125 51.96875 
Q 19.578125 53.03125 23.640625 53.03125 
Q 29.734375 53.03125 34.34375 51.265625 
Q 38.96875 49.515625 41.15625 46.5 
Q 43.359375 43.5 44.1875 38.484375 
L 35.59375 37.3125 
Q 35.015625 41.3125 32.203125 43.546875 
Q 29.390625 45.796875 24.265625 45.796875 
Q 18.21875 45.796875 15.625 43.796875 
Q 13.03125 41.796875 13.03125 39.109375 
Q 13.03125 37.40625 14.109375 36.03125 
Q 15.1875 34.625 17.484375 33.6875 
Q 18.796875 33.203125 25.25 31.453125 
Q 34.578125 28.953125 38.25 27.359375 
Q 41.9375 25.78125 44.03125 22.75 
Q 46.140625 19.734375 46.140625 15.234375 
Q 46.140625 10.84375 43.578125 6.953125 
Q 41.015625 3.078125 36.171875 0.953125 
Q 31.34375 -1.171875 25.25 -1.171875 
Q 15.140625 -1.171875 9.84375 3.03125 
Q 4.546875 7.234375 3.078125 15.484375 
z
" id="ArialMT-115"/>
      <path d="M 6.640625 61.46875 
L 6.640625 71.578125 
L 15.4375 71.578125 
L 15.4375 61.46875 
z
M 6.640625 0 
L 6.640625 51.859375 
L 15.4375 51.859375 
L 15.4375 0 
z
" id="ArialMT-105"/>
      <path d="M 25.78125 7.859375 
L 27.046875 0.09375 
Q 23.34375 -0.6875 20.40625 -0.6875 
Q 15.625 -0.6875 12.984375 0.828125 
Q 10.359375 2.34375 9.28125 4.8125 
Q 8.203125 7.28125 8.203125 15.1875 
L 8.203125 45.015625 
L 1.765625 45.015625 
L 1.765625 51.859375 
L 8.203125 51.859375 
L 8.203125 64.703125 
L 16.9375 69.96875 
L 16.9375 51.859375 
L 25.78125 51.859375 
L 25.78125 45.015625 
L 16.9375 45.015625 
L 16.9375 14.703125 
Q 16.9375 10.9375 17.40625 9.859375 
Q 17.875 8.796875 18.921875 8.15625 
Q 19.96875 7.515625 21.921875 7.515625 
Q 23.390625 7.515625 25.78125 7.859375 
z
" id="ArialMT-116"/>
      <path d="M 6.203125 -19.96875 
L 5.21875 -11.71875 
Q 8.109375 -12.5 10.25 -12.5 
Q 13.1875 -12.5 14.9375 -11.515625 
Q 16.703125 -10.546875 17.828125 -8.796875 
Q 18.65625 -7.46875 20.515625 -2.25 
Q 20.75 -1.515625 21.296875 -0.09375 
L 1.609375 51.859375 
L 11.078125 51.859375 
L 21.875 21.828125 
Q 23.96875 16.109375 25.640625 9.8125 
Q 27.15625 15.875 29.25 21.625 
L 40.328125 51.859375 
L 49.125 51.859375 
L 29.390625 -0.875 
Q 26.21875 -9.421875 24.46875 -12.640625 
Q 22.125 -17 19.09375 -19.015625 
Q 16.0625 -21.046875 11.859375 -21.046875 
Q 9.328125 -21.046875 6.203125 -19.96875 
z
" id="ArialMT-121"/>
     </defs>
     <g style="fill:#262626;" transform="translate(69.031563 144.480625)rotate(-90)scale(0.14 -0.14)">
      <use xlink:href="#ArialMT-68"/>
      <use x="72.216797" xlink:href="#ArialMT-101"/>
      <use x="127.832031" xlink:href="#ArialMT-110"/>
      <use x="183.447266" xlink:href="#ArialMT-115"/>
      <use x="233.447266" xlink:href="#ArialMT-105"/>
      <use x="255.664062" xlink:href="#ArialMT-116"/>
      <use x="283.447266" xlink:href="#ArialMT-121"/>
     </g>
    </g>
   </g>
   <g id="line2d_14">
    <path clip-path="url(#p2a97660466)" d="M 106.360331 73.613251 
L 108 68.936943 
L 109.639669 65.034732 
L 111.279339 61.972763 
L 112.919008 59.794295 
L 114.558678 58.518433 
L 116.198347 58.14 
L 117.838017 58.630561 
L 119.477686 59.940484 
L 121.117355 62.001886 
L 122.757025 64.73224 
L 124.396694 68.038412 
L 126.036364 71.820858 
L 129.315702 80.408733 
L 139.153719 108.027857 
L 142.433058 116.223081 
L 145.712397 123.524512 
L 148.991736 129.9047 
L 152.271074 135.416817 
L 155.550413 140.157537 
L 158.829752 144.239723 
L 162.109091 147.775224 
L 165.38843 150.865541 
L 168.667769 153.59744 
L 171.947107 156.041127 
L 175.226446 158.249697 
L 178.505785 160.259509 
L 183.424793 162.944324 
L 186.704132 164.523876 
L 189.983471 165.934036 
L 193.26281 167.172337 
L 196.542149 168.239817 
L 199.821488 169.143925 
L 204.740496 170.22808 
L 209.659504 171.054435 
L 216.218182 171.904694 
L 229.335537 173.286627 
L 242.452893 174.481814 
L 258.849587 175.697193 
L 288.363636 177.729259 
L 296.561983 178.003025 
L 308.039669 178.140715 
L 329.355372 178.341577 
L 344.112397 178.713532 
L 355.590083 179.186715 
L 365.428099 179.787949 
L 396.581818 181.95603 
L 447.41157 183.98079 
L 460.528926 184.114902 
L 496.601653 184.139994 
L 503.160331 184.14 
L 503.160331 184.14 
" style="fill:none;stroke:#4c72b0;stroke-linecap:round;stroke-width:1.75;"/>
   </g>
   <g id="line2d_15">
    <path clip-path="url(#p2a97660466)" d="M 106.360331 74.989561 
L 108 71.087195 
L 109.639669 67.849836 
L 111.279339 65.324813 
L 112.919008 63.54318 
L 114.558678 62.518914 
L 116.198347 62.248787 
L 117.838017 62.712916 
L 119.477686 63.875942 
L 121.117355 65.688759 
L 122.757025 68.090693 
L 124.396694 71.01201 
L 126.036364 74.376602 
L 127.676033 78.104746 
L 130.955372 86.330528 
L 140.793388 112.131915 
L 144.072727 119.773852 
L 147.352066 126.598287 
L 150.631405 132.57221 
L 153.910744 137.736705 
L 157.190083 142.17631 
L 160.469421 145.993269 
L 163.74876 149.289112 
L 167.028099 152.15392 
L 170.307438 154.66217 
L 173.586777 156.873267 
L 176.866116 158.834702 
L 180.145455 160.586004 
L 185.064463 162.894843 
L 189.983471 164.917918 
L 196.542149 167.338247 
L 206.380165 170.700497 
L 216.218182 173.873991 
L 222.77686 175.796384 
L 229.335537 177.466545 
L 234.254545 178.515331 
L 239.173554 179.373672 
L 244.092562 180.039985 
L 249.01157 180.524073 
L 255.570248 180.92207 
L 262.128926 181.098622 
L 270.327273 181.099942 
L 278.52562 180.884033 
L 285.084298 180.495149 
L 291.642975 179.847552 
L 298.201653 178.951304 
L 311.319008 177.045095 
L 316.238017 176.579047 
L 321.157025 176.337451 
L 326.076033 176.299101 
L 335.91405 176.527463 
L 345.752066 176.654315 
L 362.14876 176.703067 
L 367.067769 176.952994 
L 371.986777 177.382673 
L 378.545455 178.2034 
L 401.500826 181.440134 
L 408.059504 182.029803 
L 416.257851 182.528994 
L 427.735537 182.955578 
L 449.05124 183.454364 
L 481.844628 184.043018 
L 503.160331 184.133843 
L 503.160331 184.133843 
" style="fill:none;stroke:#55a868;stroke-linecap:round;stroke-width:1.75;"/>
   </g>
   <g id="line2d_16">
    <path clip-path="url(#p2a97660466)" d="M 106.360331 120.412318 
L 108 119.209916 
L 109.639669 118.153544 
L 111.279339 117.249111 
L 112.919008 116.501255 
L 114.558678 115.913298 
L 116.198347 115.487211 
L 117.838017 115.223607 
L 119.477686 115.121745 
L 121.117355 115.17956 
L 122.757025 115.393709 
L 124.396694 115.759632 
L 126.036364 116.271632 
L 127.676033 116.922969 
L 129.315702 117.70596 
L 132.595041 119.632177 
L 135.87438 121.974559 
L 139.153719 124.650259 
L 144.072727 129.101159 
L 160.469421 144.58793 
L 165.38843 148.677133 
L 168.667769 151.155083 
L 171.947107 153.421065 
L 175.226446 155.473244 
L 178.505785 157.316797 
L 181.785124 158.96242 
L 185.064463 160.424854 
L 189.983471 162.313581 
L 194.902479 163.893624 
L 199.821488 165.229079 
L 206.380165 166.729855 
L 214.578512 168.31293 
L 226.056198 170.240144 
L 240.813223 172.471224 
L 253.930579 174.244173 
L 265.408264 175.580929 
L 276.88595 176.673696 
L 286.723967 177.393474 
L 296.561983 177.902577 
L 306.4 178.206944 
L 317.877686 178.343321 
L 335.91405 178.282819 
L 404.780165 177.705678 
L 419.53719 177.214699 
L 432.654545 176.560574 
L 463.808264 174.819618 
L 472.006612 174.706759 
L 478.565289 174.847891 
L 485.123967 175.223935 
L 491.682645 175.834497 
L 498.241322 176.650641 
L 503.160331 177.365846 
L 503.160331 177.365846 
" style="fill:none;stroke:#c44e52;stroke-linecap:round;stroke-width:1.75;"/>
   </g>
   <g id="line2d_17">
    <path clip-path="url(#p2a97660466)" d="M 106.360331 92.488964 
L 108 89.886958 
L 109.639669 87.652977 
L 111.279339 85.809437 
L 112.919008 84.372956 
L 114.558678 83.354049 
L 116.198347 82.756984 
L 117.838017 82.579798 
L 119.477686 82.814469 
L 121.117355 83.447246 
L 122.757025 84.459108 
L 124.396694 85.826339 
L 126.036364 87.521204 
L 127.676033 89.512686 
L 129.315702 91.767274 
L 132.595041 96.924042 
L 135.87438 102.70358 
L 142.433058 115.041197 
L 147.352066 124.086682 
L 150.631405 129.713055 
L 153.910744 134.904188 
L 157.190083 139.613009 
L 160.469421 143.827858 
L 163.74876 147.563822 
L 167.028099 150.854183 
L 170.307438 153.742814 
L 173.586777 156.277977 
L 176.866116 158.507713 
L 180.145455 160.476748 
L 183.424793 162.224709 
L 186.704132 163.785388 
L 191.62314 165.835007 
L 196.542149 167.59807 
L 201.461157 169.127631 
L 206.380165 170.463676 
L 212.938843 171.999969 
L 219.497521 173.317692 
L 227.695868 174.74542 
L 237.533884 176.236153 
L 247.371901 177.513078 
L 255.570248 178.3771 
L 263.768595 179.021814 
L 271.966942 179.441953 
L 281.804959 179.684903 
L 291.642975 179.690384 
L 301.480992 179.484402 
L 314.598347 178.955134 
L 329.355372 178.380647 
L 337.553719 178.284542 
L 345.752066 178.411945 
L 355.590083 178.79668 
L 375.266116 179.617958 
L 385.104132 179.758237 
L 398.221488 179.673456 
L 414.618182 179.595068 
L 426.095868 179.798066 
L 449.05124 180.552847 
L 470.366942 181.08194 
L 485.123967 181.524565 
L 498.241322 182.158315 
L 503.160331 182.442488 
L 503.160331 182.442488 
" style="fill:none;stroke:#8172b2;stroke-linecap:round;stroke-width:1.75;"/>
   </g>
   <g id="line2d_18">
    <path clip-path="url(#p2a97660466)" d="M 106.360331 92.423817 
L 108 89.802046 
L 109.639669 87.590197 
L 111.279339 85.811581 
L 112.919008 84.482291 
L 114.558678 83.610897 
L 116.198347 83.198362 
L 117.838017 83.238183 
L 119.477686 83.716733 
L 121.117355 84.613797 
L 122.757025 85.903286 
L 124.396694 87.554072 
L 126.036364 89.530934 
L 127.676033 91.795567 
L 129.315702 94.307613 
L 132.595041 99.908345 
L 137.51405 109.146881 
L 144.072727 121.568925 
L 147.352066 127.36094 
L 150.631405 132.70575 
L 153.910744 137.544173 
L 157.190083 141.85947 
L 160.469421 145.666335 
L 163.74876 149.000294 
L 167.028099 151.908668 
L 170.307438 154.443635 
L 173.586777 156.657434 
L 176.866116 158.599374 
L 180.145455 160.314211 
L 183.424793 161.841374 
L 188.343802 163.852669 
L 193.26281 165.606844 
L 199.821488 167.650407 
L 206.380165 169.426263 
L 212.938843 170.957427 
L 219.497521 172.238798 
L 226.056198 173.26513 
L 232.614876 174.047143 
L 239.173554 174.614211 
L 247.371901 175.0881 
L 260.489256 175.554101 
L 275.246281 176.111985 
L 288.363636 176.862817 
L 308.039669 178.050333 
L 316.238017 178.330151 
L 324.436364 178.393904 
L 334.27438 178.210394 
L 355.590083 177.678078 
L 363.78843 177.743589 
L 373.626446 178.072718 
L 386.743802 178.774101 
L 417.897521 180.538457 
L 434.294215 181.176244 
L 457.249587 181.807133 
L 480.204959 182.470849 
L 503.160331 183.392882 
L 503.160331 183.392882 
" style="fill:none;stroke:#ccb974;stroke-linecap:round;stroke-width:1.75;"/>
   </g>
   <g id="line2d_19">
    <path clip-path="url(#p2a97660466)" d="M 106.360331 106.881199 
L 108 105.122831 
L 109.639669 103.614181 
L 111.279339 102.367401 
L 112.919008 101.391618 
L 114.558678 100.692801 
L 116.198347 100.273686 
L 117.838017 100.133769 
L 119.477686 100.269361 
L 121.117355 100.673705 
L 122.757025 101.337151 
L 124.396694 102.247381 
L 126.036364 103.389682 
L 127.676033 104.747253 
L 129.315702 106.301543 
L 132.595041 109.91946 
L 135.87438 114.073722 
L 140.793388 120.930068 
L 150.631405 134.953831 
L 153.910744 139.26993 
L 157.190083 143.271704 
L 160.469421 146.917048 
L 163.74876 150.186544 
L 167.028099 153.079693 
L 170.307438 155.610733 
L 173.586777 157.804466 
L 176.866116 159.692433 
L 180.145455 161.30964 
L 183.424793 162.691942 
L 186.704132 163.874125 
L 191.62314 165.342227 
L 196.542149 166.528066 
L 203.100826 167.80293 
L 211.299174 169.092544 
L 222.77686 170.625205 
L 240.813223 172.78639 
L 252.290909 173.980129 
L 262.128926 174.797991 
L 271.966942 175.374554 
L 281.804959 175.711429 
L 293.282645 175.87695 
L 332.634711 176.233684 
L 345.752066 176.666476 
L 358.869421 177.348009 
L 388.383471 179.053001 
L 398.221488 179.345744 
L 409.699174 179.444565 
L 424.456198 179.308968 
L 462.168595 178.830493 
L 472.006612 179.026023 
L 480.204959 179.405467 
L 490.042975 180.118725 
L 503.160331 181.342977 
L 503.160331 181.342977 
" style="fill:none;stroke:#64b5cd;stroke-linecap:round;stroke-width:1.75;"/>
   </g>
   <g id="patch_3">
    <path d="M 108 190.44 
L 108 51.84 
" style="fill:none;"/>
   </g>
   <g id="patch_4">
    <path d="M 504.8 190.44 
L 504.8 51.84 
" style="fill:none;"/>
   </g>
   <g id="patch_5">
    <path d="M 108 190.44 
L 504.8 190.44 
" style="fill:none;"/>
   </g>
   <g id="patch_6">
    <path d="M 108 51.84 
L 504.8 51.84 
" style="fill:none;"/>
   </g>
   <g id="text_11">
    <!-- Ranks KDE -->
    <defs>
     <path d="M 7.859375 0 
L 7.859375 71.578125 
L 39.59375 71.578125 
Q 49.171875 71.578125 54.140625 69.640625 
Q 59.125 67.71875 62.109375 62.828125 
Q 65.09375 57.953125 65.09375 52.046875 
Q 65.09375 44.4375 60.15625 39.203125 
Q 55.21875 33.984375 44.921875 32.5625 
Q 48.6875 30.765625 50.640625 29 
Q 54.78125 25.203125 58.5 19.484375 
L 70.953125 0 
L 59.03125 0 
L 49.5625 14.890625 
Q 45.40625 21.34375 42.71875 24.75 
Q 40.046875 28.171875 37.921875 29.53125 
Q 35.796875 30.90625 33.59375 31.453125 
Q 31.984375 31.78125 28.328125 31.78125 
L 17.328125 31.78125 
L 17.328125 0 
z
M 17.328125 39.984375 
L 37.703125 39.984375 
Q 44.1875 39.984375 47.84375 41.328125 
Q 51.515625 42.671875 53.421875 45.625 
Q 55.328125 48.578125 55.328125 52.046875 
Q 55.328125 57.125 51.640625 60.390625 
Q 47.953125 63.671875 39.984375 63.671875 
L 17.328125 63.671875 
z
" id="ArialMT-82"/>
     <path d="M 40.4375 6.390625 
Q 35.546875 2.25 31.03125 0.53125 
Q 26.515625 -1.171875 21.34375 -1.171875 
Q 12.796875 -1.171875 8.203125 3 
Q 3.609375 7.171875 3.609375 13.671875 
Q 3.609375 17.484375 5.34375 20.625 
Q 7.078125 23.78125 9.890625 25.6875 
Q 12.703125 27.59375 16.21875 28.5625 
Q 18.796875 29.25 24.03125 29.890625 
Q 34.671875 31.15625 39.703125 32.90625 
Q 39.75 34.71875 39.75 35.203125 
Q 39.75 40.578125 37.25 42.78125 
Q 33.890625 45.75 27.25 45.75 
Q 21.046875 45.75 18.09375 43.578125 
Q 15.140625 41.40625 13.71875 35.890625 
L 5.125 37.0625 
Q 6.296875 42.578125 8.984375 45.96875 
Q 11.671875 49.359375 16.75 51.1875 
Q 21.828125 53.03125 28.515625 53.03125 
Q 35.15625 53.03125 39.296875 51.46875 
Q 43.453125 49.90625 45.40625 47.53125 
Q 47.359375 45.171875 48.140625 41.546875 
Q 48.578125 39.3125 48.578125 33.453125 
L 48.578125 21.734375 
Q 48.578125 9.46875 49.140625 6.21875 
Q 49.703125 2.984375 51.375 0 
L 42.1875 0 
Q 40.828125 2.734375 40.4375 6.390625 
z
M 39.703125 26.03125 
Q 34.90625 24.078125 25.34375 22.703125 
Q 19.921875 21.921875 17.671875 20.9375 
Q 15.4375 19.96875 14.203125 18.09375 
Q 12.984375 16.21875 12.984375 13.921875 
Q 12.984375 10.40625 15.640625 8.0625 
Q 18.3125 5.71875 23.4375 5.71875 
Q 28.515625 5.71875 32.46875 7.9375 
Q 36.421875 10.15625 38.28125 14.015625 
Q 39.703125 17 39.703125 22.796875 
z
" id="ArialMT-97"/>
     <path d="M 6.640625 0 
L 6.640625 71.578125 
L 15.4375 71.578125 
L 15.4375 30.765625 
L 36.234375 51.859375 
L 47.609375 51.859375 
L 27.78125 32.625 
L 49.609375 0 
L 38.765625 0 
L 21.625 26.515625 
L 15.4375 20.5625 
L 15.4375 0 
z
" id="ArialMT-107"/>
     <path id="ArialMT-32"/>
     <path d="M 7.328125 0 
L 7.328125 71.578125 
L 16.796875 71.578125 
L 16.796875 36.078125 
L 52.34375 71.578125 
L 65.1875 71.578125 
L 35.15625 42.578125 
L 66.5 0 
L 54 0 
L 28.515625 36.234375 
L 16.796875 24.8125 
L 16.796875 0 
z
" id="ArialMT-75"/>
     <path d="M 7.90625 0 
L 7.90625 71.578125 
L 59.671875 71.578125 
L 59.671875 63.140625 
L 17.390625 63.140625 
L 17.390625 41.21875 
L 56.984375 41.21875 
L 56.984375 32.8125 
L 17.390625 32.8125 
L 17.390625 8.453125 
L 61.328125 8.453125 
L 61.328125 0 
z
" id="ArialMT-69"/>
    </defs>
    <g style="fill:#262626;" transform="translate(275.389375 45.84)scale(0.12 -0.12)">
     <use xlink:href="#ArialMT-82"/>
     <use x="72.216797" xlink:href="#ArialMT-97"/>
     <use x="127.832031" xlink:href="#ArialMT-110"/>
     <use x="183.447266" xlink:href="#ArialMT-107"/>
     <use x="233.447266" xlink:href="#ArialMT-115"/>
     <use x="283.447266" xlink:href="#ArialMT-32"/>
     <use x="311.230469" xlink:href="#ArialMT-75"/>
     <use x="377.929688" xlink:href="#ArialMT-68"/>
     <use x="450.146484" xlink:href="#ArialMT-69"/>
    </g>
   </g>
   <g id="legend_1">
    <g id="line2d_20">
     <path d="M 382.870313 70.497813 
L 402.870313 70.497813 
" style="fill:none;stroke:#4c72b0;stroke-linecap:round;stroke-width:1.75;"/>
    </g>
    <g id="line2d_21"/>
    <g id="text_12">
     <!-- geometric_avg -->
     <defs>
      <path d="M 4.984375 -4.296875 
L 13.53125 -5.5625 
Q 14.0625 -9.515625 16.5 -11.328125 
Q 19.78125 -13.765625 25.4375 -13.765625 
Q 31.546875 -13.765625 34.859375 -11.328125 
Q 38.1875 -8.890625 39.359375 -4.5 
Q 40.046875 -1.8125 39.984375 6.78125 
Q 34.234375 0 25.640625 0 
Q 14.9375 0 9.078125 7.71875 
Q 3.21875 15.4375 3.21875 26.21875 
Q 3.21875 33.640625 5.90625 39.90625 
Q 8.59375 46.1875 13.6875 49.609375 
Q 18.796875 53.03125 25.6875 53.03125 
Q 34.859375 53.03125 40.828125 45.609375 
L 40.828125 51.859375 
L 48.921875 51.859375 
L 48.921875 7.03125 
Q 48.921875 -5.078125 46.453125 -10.125 
Q 44 -15.1875 38.640625 -18.109375 
Q 33.296875 -21.046875 25.484375 -21.046875 
Q 16.21875 -21.046875 10.5 -16.875 
Q 4.78125 -12.703125 4.984375 -4.296875 
z
M 12.25 26.859375 
Q 12.25 16.65625 16.296875 11.96875 
Q 20.359375 7.28125 26.46875 7.28125 
Q 32.515625 7.28125 36.609375 11.9375 
Q 40.71875 16.609375 40.71875 26.5625 
Q 40.71875 36.078125 36.5 40.90625 
Q 32.28125 45.75 26.3125 45.75 
Q 20.453125 45.75 16.34375 40.984375 
Q 12.25 36.234375 12.25 26.859375 
z
" id="ArialMT-103"/>
      <path d="M 3.328125 25.921875 
Q 3.328125 40.328125 11.328125 47.265625 
Q 18.015625 53.03125 27.640625 53.03125 
Q 38.328125 53.03125 45.109375 46.015625 
Q 51.90625 39.015625 51.90625 26.65625 
Q 51.90625 16.65625 48.90625 10.90625 
Q 45.90625 5.171875 40.15625 2 
Q 34.421875 -1.171875 27.640625 -1.171875 
Q 16.75 -1.171875 10.03125 5.8125 
Q 3.328125 12.796875 3.328125 25.921875 
z
M 12.359375 25.921875 
Q 12.359375 15.96875 16.703125 11.015625 
Q 21.046875 6.0625 27.640625 6.0625 
Q 34.1875 6.0625 38.53125 11.03125 
Q 42.875 16.015625 42.875 26.21875 
Q 42.875 35.84375 38.5 40.796875 
Q 34.125 45.75 27.640625 45.75 
Q 21.046875 45.75 16.703125 40.8125 
Q 12.359375 35.890625 12.359375 25.921875 
z
" id="ArialMT-111"/>
      <path d="M 6.59375 0 
L 6.59375 51.859375 
L 14.453125 51.859375 
L 14.453125 44.578125 
Q 16.890625 48.390625 20.9375 50.703125 
Q 25 53.03125 30.171875 53.03125 
Q 35.9375 53.03125 39.625 50.640625 
Q 43.3125 48.25 44.828125 43.953125 
Q 50.984375 53.03125 60.84375 53.03125 
Q 68.5625 53.03125 72.703125 48.75 
Q 76.859375 44.484375 76.859375 35.59375 
L 76.859375 0 
L 68.109375 0 
L 68.109375 32.671875 
Q 68.109375 37.9375 67.25 40.25 
Q 66.40625 42.578125 64.15625 43.984375 
Q 61.921875 45.40625 58.890625 45.40625 
Q 53.421875 45.40625 49.796875 41.765625 
Q 46.1875 38.140625 46.1875 30.125 
L 46.1875 0 
L 37.40625 0 
L 37.40625 33.6875 
Q 37.40625 39.546875 35.25 42.46875 
Q 33.109375 45.40625 28.21875 45.40625 
Q 24.515625 45.40625 21.359375 43.453125 
Q 18.21875 41.5 16.796875 37.734375 
Q 15.375 33.984375 15.375 26.90625 
L 15.375 0 
z
" id="ArialMT-109"/>
      <path d="M 6.5 0 
L 6.5 51.859375 
L 14.40625 51.859375 
L 14.40625 44 
Q 17.4375 49.515625 20 51.265625 
Q 22.5625 53.03125 25.640625 53.03125 
Q 30.078125 53.03125 34.671875 50.203125 
L 31.640625 42.046875 
Q 28.421875 43.953125 25.203125 43.953125 
Q 22.3125 43.953125 20.015625 42.21875 
Q 17.71875 40.484375 16.75 37.40625 
Q 15.28125 32.71875 15.28125 27.15625 
L 15.28125 0 
z
" id="ArialMT-114"/>
      <path d="M 40.4375 19 
L 49.078125 17.875 
Q 47.65625 8.9375 41.8125 3.875 
Q 35.984375 -1.171875 27.484375 -1.171875 
Q 16.84375 -1.171875 10.375 5.78125 
Q 3.90625 12.75 3.90625 25.734375 
Q 3.90625 34.125 6.6875 40.421875 
Q 9.46875 46.734375 15.15625 49.875 
Q 20.84375 53.03125 27.546875 53.03125 
Q 35.984375 53.03125 41.359375 48.75 
Q 46.734375 44.484375 48.25 36.625 
L 39.703125 35.296875 
Q 38.484375 40.53125 35.375 43.15625 
Q 32.28125 45.796875 27.875 45.796875 
Q 21.234375 45.796875 17.078125 41.03125 
Q 12.9375 36.28125 12.9375 25.984375 
Q 12.9375 15.53125 16.9375 10.796875 
Q 20.953125 6.0625 27.390625 6.0625 
Q 32.5625 6.0625 36.03125 9.234375 
Q 39.5 12.40625 40.4375 19 
z
" id="ArialMT-99"/>
      <path d="M -1.515625 -19.875 
L -1.515625 -13.53125 
L 56.734375 -13.53125 
L 56.734375 -19.875 
z
" id="ArialMT-95"/>
      <path d="M 21 0 
L 1.265625 51.859375 
L 10.546875 51.859375 
L 21.6875 20.796875 
Q 23.484375 15.765625 25 10.359375 
Q 26.171875 14.453125 28.265625 20.21875 
L 39.796875 51.859375 
L 48.828125 51.859375 
L 29.203125 0 
z
" id="ArialMT-118"/>
     </defs>
     <g style="fill:#262626;" transform="translate(410.870313 73.997813)scale(0.1 -0.1)">
      <use xlink:href="#ArialMT-103"/>
      <use x="55.615234" xlink:href="#ArialMT-101"/>
      <use x="111.230469" xlink:href="#ArialMT-111"/>
      <use x="166.845703" xlink:href="#ArialMT-109"/>
      <use x="250.146484" xlink:href="#ArialMT-101"/>
      <use x="305.761719" xlink:href="#ArialMT-116"/>
      <use x="333.544922" xlink:href="#ArialMT-114"/>
      <use x="366.845703" xlink:href="#ArialMT-105"/>
      <use x="389.0625" xlink:href="#ArialMT-99"/>
      <use x="439.0625" xlink:href="#ArialMT-95"/>
      <use x="494.677734" xlink:href="#ArialMT-97"/>
      <use x="550.292969" xlink:href="#ArialMT-118"/>
      <use x="600.292969" xlink:href="#ArialMT-103"/>
     </g>
    </g>
    <g id="line2d_22">
     <path d="M 382.870313 84.760312 
L 402.870313 84.760312 
" style="fill:none;stroke:#55a868;stroke-linecap:round;stroke-width:1.75;"/>
    </g>
    <g id="line2d_23"/>
    <g id="text_13">
     <!-- label_correlation -->
     <defs>
      <path d="M 6.390625 0 
L 6.390625 71.578125 
L 15.1875 71.578125 
L 15.1875 0 
z
" id="ArialMT-108"/>
      <path d="M 14.703125 0 
L 6.546875 0 
L 6.546875 71.578125 
L 15.328125 71.578125 
L 15.328125 46.046875 
Q 20.90625 53.03125 29.546875 53.03125 
Q 34.328125 53.03125 38.59375 51.09375 
Q 42.875 49.171875 45.625 45.671875 
Q 48.390625 42.1875 49.953125 37.25 
Q 51.515625 32.328125 51.515625 26.703125 
Q 51.515625 13.375 44.921875 6.09375 
Q 38.328125 -1.171875 29.109375 -1.171875 
Q 19.921875 -1.171875 14.703125 6.5 
z
M 14.59375 26.3125 
Q 14.59375 17 17.140625 12.84375 
Q 21.296875 6.0625 28.375 6.0625 
Q 34.125 6.0625 38.328125 11.0625 
Q 42.53125 16.0625 42.53125 25.984375 
Q 42.53125 36.140625 38.5 40.96875 
Q 34.46875 45.796875 28.765625 45.796875 
Q 23 45.796875 18.796875 40.796875 
Q 14.59375 35.796875 14.59375 26.3125 
z
" id="ArialMT-98"/>
     </defs>
     <g style="fill:#262626;" transform="translate(410.870313 88.260312)scale(0.1 -0.1)">
      <use xlink:href="#ArialMT-108"/>
      <use x="22.216797" xlink:href="#ArialMT-97"/>
      <use x="77.832031" xlink:href="#ArialMT-98"/>
      <use x="133.447266" xlink:href="#ArialMT-101"/>
      <use x="189.0625" xlink:href="#ArialMT-108"/>
      <use x="211.279297" xlink:href="#ArialMT-95"/>
      <use x="266.894531" xlink:href="#ArialMT-99"/>
      <use x="316.894531" xlink:href="#ArialMT-111"/>
      <use x="372.509766" xlink:href="#ArialMT-114"/>
      <use x="405.810547" xlink:href="#ArialMT-114"/>
      <use x="439.111328" xlink:href="#ArialMT-101"/>
      <use x="494.726562" xlink:href="#ArialMT-108"/>
      <use x="516.943359" xlink:href="#ArialMT-97"/>
      <use x="572.558594" xlink:href="#ArialMT-116"/>
      <use x="600.341797" xlink:href="#ArialMT-105"/>
      <use x="622.558594" xlink:href="#ArialMT-111"/>
      <use x="678.173828" xlink:href="#ArialMT-110"/>
     </g>
    </g>
    <g id="line2d_24">
     <path d="M 382.870313 98.905625 
L 402.870313 98.905625 
" style="fill:none;stroke:#c44e52;stroke-linecap:round;stroke-width:1.75;"/>
    </g>
    <g id="line2d_25"/>
    <g id="text_14">
     <!-- hpo_implicit_als -->
     <defs>
      <path d="M 6.59375 0 
L 6.59375 71.578125 
L 15.375 71.578125 
L 15.375 45.90625 
Q 21.53125 53.03125 30.90625 53.03125 
Q 36.671875 53.03125 40.921875 50.75 
Q 45.171875 48.484375 47 44.484375 
Q 48.828125 40.484375 48.828125 32.859375 
L 48.828125 0 
L 40.046875 0 
L 40.046875 32.859375 
Q 40.046875 39.453125 37.1875 42.453125 
Q 34.328125 45.453125 29.109375 45.453125 
Q 25.203125 45.453125 21.75 43.421875 
Q 18.3125 41.40625 16.84375 37.9375 
Q 15.375 34.46875 15.375 28.375 
L 15.375 0 
z
" id="ArialMT-104"/>
      <path d="M 6.59375 -19.875 
L 6.59375 51.859375 
L 14.59375 51.859375 
L 14.59375 45.125 
Q 17.4375 49.078125 21 51.046875 
Q 24.5625 53.03125 29.640625 53.03125 
Q 36.28125 53.03125 41.359375 49.609375 
Q 46.4375 46.1875 49.015625 39.953125 
Q 51.609375 33.734375 51.609375 26.3125 
Q 51.609375 18.359375 48.75 11.984375 
Q 45.90625 5.609375 40.453125 2.21875 
Q 35.015625 -1.171875 29 -1.171875 
Q 24.609375 -1.171875 21.109375 0.6875 
Q 17.625 2.546875 15.375 5.375 
L 15.375 -19.875 
z
M 14.546875 25.640625 
Q 14.546875 15.625 18.59375 10.84375 
Q 22.65625 6.0625 28.421875 6.0625 
Q 34.28125 6.0625 38.453125 11.015625 
Q 42.625 15.96875 42.625 26.375 
Q 42.625 36.28125 38.546875 41.203125 
Q 34.46875 46.140625 28.8125 46.140625 
Q 23.1875 46.140625 18.859375 40.890625 
Q 14.546875 35.640625 14.546875 25.640625 
z
" id="ArialMT-112"/>
     </defs>
     <g style="fill:#262626;" transform="translate(410.870313 102.405625)scale(0.1 -0.1)">
      <use xlink:href="#ArialMT-104"/>
      <use x="55.615234" xlink:href="#ArialMT-112"/>
      <use x="111.230469" xlink:href="#ArialMT-111"/>
      <use x="166.845703" xlink:href="#ArialMT-95"/>
      <use x="222.460938" xlink:href="#ArialMT-105"/>
      <use x="244.677734" xlink:href="#ArialMT-109"/>
      <use x="327.978516" xlink:href="#ArialMT-112"/>
      <use x="383.59375" xlink:href="#ArialMT-108"/>
      <use x="405.810547" xlink:href="#ArialMT-105"/>
      <use x="428.027344" xlink:href="#ArialMT-99"/>
      <use x="478.027344" xlink:href="#ArialMT-105"/>
      <use x="500.244141" xlink:href="#ArialMT-116"/>
      <use x="528.027344" xlink:href="#ArialMT-95"/>
      <use x="583.642578" xlink:href="#ArialMT-97"/>
      <use x="639.257812" xlink:href="#ArialMT-108"/>
      <use x="661.474609" xlink:href="#ArialMT-115"/>
     </g>
    </g>
    <g id="line2d_26">
     <path d="M 382.870313 113.050938 
L 402.870313 113.050938 
" style="fill:none;stroke:#8172b2;stroke-linecap:round;stroke-width:1.75;"/>
    </g>
    <g id="line2d_27"/>
    <g id="text_15">
     <!-- hpo_implicit_bpr -->
     <g style="fill:#262626;" transform="translate(410.870313 116.550938)scale(0.1 -0.1)">
      <use xlink:href="#ArialMT-104"/>
      <use x="55.615234" xlink:href="#ArialMT-112"/>
      <use x="111.230469" xlink:href="#ArialMT-111"/>
      <use x="166.845703" xlink:href="#ArialMT-95"/>
      <use x="222.460938" xlink:href="#ArialMT-105"/>
      <use x="244.677734" xlink:href="#ArialMT-109"/>
      <use x="327.978516" xlink:href="#ArialMT-112"/>
      <use x="383.59375" xlink:href="#ArialMT-108"/>
      <use x="405.810547" xlink:href="#ArialMT-105"/>
      <use x="428.027344" xlink:href="#ArialMT-99"/>
      <use x="478.027344" xlink:href="#ArialMT-105"/>
      <use x="500.244141" xlink:href="#ArialMT-116"/>
      <use x="528.027344" xlink:href="#ArialMT-95"/>
      <use x="583.642578" xlink:href="#ArialMT-98"/>
      <use x="639.257812" xlink:href="#ArialMT-112"/>
      <use x="694.873047" xlink:href="#ArialMT-114"/>
     </g>
    </g>
    <g id="line2d_28">
     <path d="M 382.870313 127.318125 
L 402.870313 127.318125 
" style="fill:none;stroke:#ccb974;stroke-linecap:round;stroke-width:1.75;"/>
    </g>
    <g id="line2d_29"/>
    <g id="text_16">
     <!-- hpo_lightfm_warp -->
     <defs>
      <path d="M 8.6875 0 
L 8.6875 45.015625 
L 0.921875 45.015625 
L 0.921875 51.859375 
L 8.6875 51.859375 
L 8.6875 57.375 
Q 8.6875 62.59375 9.625 65.140625 
Q 10.890625 68.5625 14.078125 70.671875 
Q 17.28125 72.796875 23.046875 72.796875 
Q 26.765625 72.796875 31.25 71.921875 
L 29.9375 64.265625 
Q 27.203125 64.75 24.75 64.75 
Q 20.75 64.75 19.09375 63.03125 
Q 17.4375 61.328125 17.4375 56.640625 
L 17.4375 51.859375 
L 27.546875 51.859375 
L 27.546875 45.015625 
L 17.4375 45.015625 
L 17.4375 0 
z
" id="ArialMT-102"/>
      <path d="M 16.15625 0 
L 0.296875 51.859375 
L 9.375 51.859375 
L 17.625 21.921875 
L 20.703125 10.796875 
Q 20.90625 11.625 23.390625 21.484375 
L 31.640625 51.859375 
L 40.671875 51.859375 
L 48.4375 21.78125 
L 51.03125 11.859375 
L 54 21.875 
L 62.890625 51.859375 
L 71.4375 51.859375 
L 55.21875 0 
L 46.09375 0 
L 37.84375 31.0625 
L 35.84375 39.890625 
L 25.34375 0 
z
" id="ArialMT-119"/>
     </defs>
     <g style="fill:#262626;" transform="translate(410.870313 130.818125)scale(0.1 -0.1)">
      <use xlink:href="#ArialMT-104"/>
      <use x="55.615234" xlink:href="#ArialMT-112"/>
      <use x="111.230469" xlink:href="#ArialMT-111"/>
      <use x="166.845703" xlink:href="#ArialMT-95"/>
      <use x="222.460938" xlink:href="#ArialMT-108"/>
      <use x="244.677734" xlink:href="#ArialMT-105"/>
      <use x="266.894531" xlink:href="#ArialMT-103"/>
      <use x="322.509766" xlink:href="#ArialMT-104"/>
      <use x="378.125" xlink:href="#ArialMT-116"/>
      <use x="405.908203" xlink:href="#ArialMT-102"/>
      <use x="433.691406" xlink:href="#ArialMT-109"/>
      <use x="516.992188" xlink:href="#ArialMT-95"/>
      <use x="572.607422" xlink:href="#ArialMT-119"/>
      <use x="644.824219" xlink:href="#ArialMT-97"/>
      <use x="700.439453" xlink:href="#ArialMT-114"/>
      <use x="733.740234" xlink:href="#ArialMT-112"/>
     </g>
    </g>
    <g id="line2d_30">
     <path d="M 382.870313 141.7025 
L 402.870313 141.7025 
" style="fill:none;stroke:#64b5cd;stroke-linecap:round;stroke-width:1.75;"/>
    </g>
    <g id="line2d_31"/>
    <g id="text_17">
     <!-- hpo_lightfm_bpr -->
     <g style="fill:#262626;" transform="translate(410.870313 145.2025)scale(0.1 -0.1)">
      <use xlink:href="#ArialMT-104"/>
      <use x="55.615234" xlink:href="#ArialMT-112"/>
      <use x="111.230469" xlink:href="#ArialMT-111"/>
      <use x="166.845703" xlink:href="#ArialMT-95"/>
      <use x="222.460938" xlink:href="#ArialMT-108"/>
      <use x="244.677734" xlink:href="#ArialMT-105"/>
      <use x="266.894531" xlink:href="#ArialMT-103"/>
      <use x="322.509766" xlink:href="#ArialMT-104"/>
      <use x="378.125" xlink:href="#ArialMT-116"/>
      <use x="405.908203" xlink:href="#ArialMT-102"/>
      <use x="433.691406" xlink:href="#ArialMT-109"/>
      <use x="516.992188" xlink:href="#ArialMT-95"/>
      <use x="572.607422" xlink:href="#ArialMT-98"/>
      <use x="628.222656" xlink:href="#ArialMT-112"/>
      <use x="683.837891" xlink:href="#ArialMT-114"/>
     </g>
    </g>
   </g>
  </g>
  <g id="axes_2">
   <g id="patch_7">
    <path d="M 517.2 190.44 
L 777.6 190.44 
L 777.6 51.84 
L 517.2 51.84 
z
" style="fill:#eaeaf2;"/>
   </g>
   <g id="matplotlib.axis_3">
    <g id="xtick_5">
     <g id="line2d_32">
      <path clip-path="url(#pab69afd0c6)" d="M 537.757895 190.44 
L 537.757895 51.84 
" style="fill:none;stroke:#ffffff;stroke-linecap:round;"/>
     </g>
     <g id="line2d_33"/>
     <g id="text_18">
      <!-- 2.5 -->
      <g style="fill:#262626;" transform="translate(530.807895 204.597813)scale(0.1 -0.1)">
       <use xlink:href="#ArialMT-50"/>
       <use x="55.615234" xlink:href="#ArialMT-46"/>
       <use x="83.398438" xlink:href="#ArialMT-53"/>
      </g>
     </g>
    </g>
    <g id="xtick_6">
     <g id="line2d_34">
      <path clip-path="url(#pab69afd0c6)" d="M 572.021053 190.44 
L 572.021053 51.84 
" style="fill:none;stroke:#ffffff;stroke-linecap:round;"/>
     </g>
     <g id="line2d_35"/>
     <g id="text_19">
      <!-- 5.0 -->
      <g style="fill:#262626;" transform="translate(565.071053 204.597813)scale(0.1 -0.1)">
       <use xlink:href="#ArialMT-53"/>
       <use x="55.615234" xlink:href="#ArialMT-46"/>
       <use x="83.398438" xlink:href="#ArialMT-48"/>
      </g>
     </g>
    </g>
    <g id="xtick_7">
     <g id="line2d_36">
      <path clip-path="url(#pab69afd0c6)" d="M 606.284211 190.44 
L 606.284211 51.84 
" style="fill:none;stroke:#ffffff;stroke-linecap:round;"/>
     </g>
     <g id="line2d_37"/>
     <g id="text_20">
      <!-- 7.5 -->
      <defs>
       <path d="M 4.734375 62.203125 
L 4.734375 70.65625 
L 51.078125 70.65625 
L 51.078125 63.8125 
Q 44.234375 56.546875 37.515625 44.484375 
Q 30.8125 32.421875 27.15625 19.671875 
Q 24.515625 10.6875 23.78125 0 
L 14.75 0 
Q 14.890625 8.453125 18.0625 20.40625 
Q 21.234375 32.375 27.171875 43.484375 
Q 33.109375 54.59375 39.796875 62.203125 
z
" id="ArialMT-55"/>
      </defs>
      <g style="fill:#262626;" transform="translate(599.334211 204.597813)scale(0.1 -0.1)">
       <use xlink:href="#ArialMT-55"/>
       <use x="55.615234" xlink:href="#ArialMT-46"/>
       <use x="83.398438" xlink:href="#ArialMT-53"/>
      </g>
     </g>
    </g>
    <g id="xtick_8">
     <g id="line2d_38">
      <path clip-path="url(#pab69afd0c6)" d="M 640.547368 190.44 
L 640.547368 51.84 
" style="fill:none;stroke:#ffffff;stroke-linecap:round;"/>
     </g>
     <g id="line2d_39"/>
     <g id="text_21">
      <!-- 10.0 -->
      <g style="fill:#262626;" transform="translate(630.8169 204.597813)scale(0.1 -0.1)">
       <use xlink:href="#ArialMT-49"/>
       <use x="55.615234" xlink:href="#ArialMT-48"/>
       <use x="111.230469" xlink:href="#ArialMT-46"/>
       <use x="139.013672" xlink:href="#ArialMT-48"/>
      </g>
     </g>
    </g>
    <g id="xtick_9">
     <g id="line2d_40">
      <path clip-path="url(#pab69afd0c6)" d="M 674.810526 190.44 
L 674.810526 51.84 
" style="fill:none;stroke:#ffffff;stroke-linecap:round;"/>
     </g>
     <g id="line2d_41"/>
     <g id="text_22">
      <!-- 12.5 -->
      <g style="fill:#262626;" transform="translate(665.080058 204.597813)scale(0.1 -0.1)">
       <use xlink:href="#ArialMT-49"/>
       <use x="55.615234" xlink:href="#ArialMT-50"/>
       <use x="111.230469" xlink:href="#ArialMT-46"/>
       <use x="139.013672" xlink:href="#ArialMT-53"/>
      </g>
     </g>
    </g>
    <g id="xtick_10">
     <g id="line2d_42">
      <path clip-path="url(#pab69afd0c6)" d="M 709.073684 190.44 
L 709.073684 51.84 
" style="fill:none;stroke:#ffffff;stroke-linecap:round;"/>
     </g>
     <g id="line2d_43"/>
     <g id="text_23">
      <!-- 15.0 -->
      <g style="fill:#262626;" transform="translate(699.343215 204.597813)scale(0.1 -0.1)">
       <use xlink:href="#ArialMT-49"/>
       <use x="55.615234" xlink:href="#ArialMT-53"/>
       <use x="111.230469" xlink:href="#ArialMT-46"/>
       <use x="139.013672" xlink:href="#ArialMT-48"/>
      </g>
     </g>
    </g>
    <g id="xtick_11">
     <g id="line2d_44">
      <path clip-path="url(#pab69afd0c6)" d="M 743.336842 190.44 
L 743.336842 51.84 
" style="fill:none;stroke:#ffffff;stroke-linecap:round;"/>
     </g>
     <g id="line2d_45"/>
     <g id="text_24">
      <!-- 17.5 -->
      <g style="fill:#262626;" transform="translate(733.606373 204.597813)scale(0.1 -0.1)">
       <use xlink:href="#ArialMT-49"/>
       <use x="55.615234" xlink:href="#ArialMT-55"/>
       <use x="111.230469" xlink:href="#ArialMT-46"/>
       <use x="139.013672" xlink:href="#ArialMT-53"/>
      </g>
     </g>
    </g>
    <g id="xtick_12">
     <g id="line2d_46">
      <path clip-path="url(#pab69afd0c6)" d="M 777.6 190.44 
L 777.6 51.84 
" style="fill:none;stroke:#ffffff;stroke-linecap:round;"/>
     </g>
     <g id="line2d_47"/>
     <g id="text_25">
      <!-- 20.0 -->
      <g style="fill:#262626;" transform="translate(767.869531 204.597813)scale(0.1 -0.1)">
       <use xlink:href="#ArialMT-50"/>
       <use x="55.615234" xlink:href="#ArialMT-48"/>
       <use x="111.230469" xlink:href="#ArialMT-46"/>
       <use x="139.013672" xlink:href="#ArialMT-48"/>
      </g>
     </g>
    </g>
   </g>
   <g id="matplotlib.axis_4">
    <g id="ytick_6">
     <g id="line2d_48"/>
    </g>
    <g id="ytick_7">
     <g id="line2d_49"/>
    </g>
    <g id="ytick_8">
     <g id="line2d_50"/>
    </g>
    <g id="ytick_9">
     <g id="line2d_51"/>
    </g>
    <g id="ytick_10">
     <g id="line2d_52"/>
    </g>
   </g>
   <g id="line2d_53">
    <path clip-path="url(#pab69afd0c6)" d="M 503.494737 73.613251 
L 517.2 68.936943 
L 530.905263 65.034732 
L 544.610526 61.972763 
L 558.315789 59.794295 
L 572.021053 58.518433 
L 585.726316 58.14 
L 599.431579 58.630561 
L 613.136842 59.940484 
L 626.842105 62.001886 
L 640.547368 64.73224 
L 654.252632 68.038412 
L 667.957895 71.820858 
L 681.663158 75.977738 
L 695.368421 80.408733 
L 722.778947 89.718735 
L 750.189474 99.08927 
L 763.894737 103.636153 
L 777.6 108.027857 
L 791.305263 112.231171 
L 805.010526 116.223081 
L 818.715789 119.989615 
L 832.421053 123.524512 
L 846.126316 126.82785 
L 865 130.982929 
L 865 130.982929 
" style="fill:none;stroke:#4c72b0;stroke-linecap:round;stroke-width:1.75;"/>
   </g>
   <g id="line2d_54">
    <path clip-path="url(#pab69afd0c6)" d="M 503.494737 74.989561 
L 517.2 71.087195 
L 530.905263 67.849836 
L 544.610526 65.324813 
L 558.315789 63.54318 
L 572.021053 62.518914 
L 585.726316 62.248787 
L 599.431579 62.712916 
L 613.136842 63.875942 
L 626.842105 65.688759 
L 640.547368 68.090693 
L 654.252632 71.01201 
L 667.957895 74.376602 
L 681.663158 78.104746 
L 695.368421 82.115768 
L 709.073684 86.330528 
L 777.6 108.042612 
L 791.305263 112.131915 
L 805.010526 116.049248 
L 818.715789 119.773852 
L 832.421053 123.292431 
L 846.126316 126.598287 
L 865 130.777139 
L 865 130.777139 
" style="fill:none;stroke:#55a868;stroke-linecap:round;stroke-width:1.75;"/>
   </g>
   <g id="line2d_55">
    <path clip-path="url(#pab69afd0c6)" d="M 503.494737 120.412318 
L 517.2 119.209916 
L 530.905263 118.153544 
L 544.610526 117.249111 
L 558.315789 116.501255 
L 572.021053 115.913298 
L 585.726316 115.487211 
L 599.431579 115.223607 
L 613.136842 115.121745 
L 626.842105 115.17956 
L 640.547368 115.393709 
L 654.252632 115.759632 
L 667.957895 116.271632 
L 681.663158 116.922969 
L 695.368421 117.70596 
L 709.073684 118.612099 
L 736.484211 120.756407 
L 763.894737 123.276086 
L 791.305263 126.086286 
L 832.421053 130.659169 
L 865 134.427001 
L 865 134.427001 
" style="fill:none;stroke:#c44e52;stroke-linecap:round;stroke-width:1.75;"/>
   </g>
   <g id="line2d_56">
    <path clip-path="url(#pab69afd0c6)" d="M 503.494737 92.488964 
L 517.2 89.886958 
L 530.905263 87.652977 
L 544.610526 85.809437 
L 558.315789 84.372956 
L 572.021053 83.354049 
L 585.726316 82.756984 
L 599.431579 82.579798 
L 613.136842 82.814469 
L 626.842105 83.447246 
L 640.547368 84.459108 
L 654.252632 85.826339 
L 667.957895 87.521204 
L 681.663158 89.512686 
L 695.368421 91.767274 
L 709.073684 94.249761 
L 722.778947 96.924042 
L 736.484211 99.753873 
L 763.894737 105.738704 
L 832.421053 121.136588 
L 859.831579 126.949727 
L 865 127.991812 
L 865 127.991812 
" style="fill:none;stroke:#8172b2;stroke-linecap:round;stroke-width:1.75;"/>
   </g>
   <g id="line2d_57">
    <path clip-path="url(#pab69afd0c6)" d="M 503.494737 92.423817 
L 517.2 89.802046 
L 530.905263 87.590197 
L 544.610526 85.811581 
L 558.315789 84.482291 
L 572.021053 83.610897 
L 585.726316 83.198362 
L 599.431579 83.238183 
L 613.136842 83.716733 
L 626.842105 84.613797 
L 640.547368 85.903286 
L 654.252632 87.554072 
L 667.957895 89.530934 
L 681.663158 91.795567 
L 695.368421 94.307613 
L 709.073684 97.025685 
L 722.778947 99.908345 
L 750.189474 106.006714 
L 805.010526 118.537762 
L 832.421053 124.515193 
L 859.831579 130.094064 
L 865 131.078963 
L 865 131.078963 
" style="fill:none;stroke:#ccb974;stroke-linecap:round;stroke-width:1.75;"/>
   </g>
   <g id="line2d_58">
    <path clip-path="url(#pab69afd0c6)" d="M 503.494737 106.881199 
L 517.2 105.122831 
L 530.905263 103.614181 
L 544.610526 102.367401 
L 558.315789 101.391618 
L 572.021053 100.692801 
L 585.726316 100.273686 
L 599.431579 100.133769 
L 613.136842 100.269361 
L 626.842105 100.673705 
L 640.547368 101.337151 
L 654.252632 102.247381 
L 667.957895 103.389682 
L 681.663158 104.747253 
L 695.368421 106.301543 
L 709.073684 108.032603 
L 722.778947 109.91946 
L 750.189474 114.073722 
L 777.6 118.589704 
L 865 133.5487 
L 865 133.5487 
" style="fill:none;stroke:#64b5cd;stroke-linecap:round;stroke-width:1.75;"/>
   </g>
   <g id="patch_8">
    <path d="M 517.2 190.44 
L 517.2 51.84 
" style="fill:none;"/>
   </g>
   <g id="patch_9">
    <path d="M 777.6 190.44 
L 777.6 51.84 
" style="fill:none;"/>
   </g>
   <g id="patch_10">
    <path d="M 517.2 190.44 
L 777.6 190.44 
" style="fill:none;"/>
   </g>
   <g id="patch_11">
    <path d="M 517.2 51.84 
L 777.6 51.84 
" style="fill:none;"/>
   </g>
   <g id="text_26">
    <!-- Ranks KDE (top 20) -->
    <defs>
     <path d="M 23.390625 -21.046875 
Q 16.109375 -11.859375 11.078125 0.4375 
Q 6.0625 12.75 6.0625 25.921875 
Q 6.0625 37.546875 9.8125 48.1875 
Q 14.203125 60.546875 23.390625 72.796875 
L 29.6875 72.796875 
Q 23.78125 62.640625 21.875 58.296875 
Q 18.890625 51.5625 17.1875 44.234375 
Q 15.09375 35.109375 15.09375 25.875 
Q 15.09375 2.390625 29.6875 -21.046875 
z
" id="ArialMT-40"/>
     <path d="M 12.359375 -21.046875 
L 6.0625 -21.046875 
Q 20.65625 2.390625 20.65625 25.875 
Q 20.65625 35.0625 18.5625 44.09375 
Q 16.890625 51.421875 13.921875 58.15625 
Q 12.015625 62.546875 6.0625 72.796875 
L 12.359375 72.796875 
Q 21.53125 60.546875 25.921875 48.1875 
Q 29.6875 37.546875 29.6875 25.921875 
Q 29.6875 12.75 24.625 0.4375 
Q 19.578125 -11.859375 12.359375 -21.046875 
z
" id="ArialMT-41"/>
    </defs>
    <g style="fill:#262626;" transform="translate(594.046875 45.84)scale(0.12 -0.12)">
     <use xlink:href="#ArialMT-82"/>
     <use x="72.216797" xlink:href="#ArialMT-97"/>
     <use x="127.832031" xlink:href="#ArialMT-110"/>
     <use x="183.447266" xlink:href="#ArialMT-107"/>
     <use x="233.447266" xlink:href="#ArialMT-115"/>
     <use x="283.447266" xlink:href="#ArialMT-32"/>
     <use x="311.230469" xlink:href="#ArialMT-75"/>
     <use x="377.929688" xlink:href="#ArialMT-68"/>
     <use x="450.146484" xlink:href="#ArialMT-69"/>
     <use x="516.845703" xlink:href="#ArialMT-32"/>
     <use x="544.628906" xlink:href="#ArialMT-40"/>
     <use x="577.929688" xlink:href="#ArialMT-116"/>
     <use x="605.712891" xlink:href="#ArialMT-111"/>
     <use x="661.328125" xlink:href="#ArialMT-112"/>
     <use x="716.943359" xlink:href="#ArialMT-32"/>
     <use x="744.726562" xlink:href="#ArialMT-50"/>
     <use x="800.341797" xlink:href="#ArialMT-48"/>
     <use x="855.957031" xlink:href="#ArialMT-41"/>
    </g>
   </g>
  </g>
  <g id="axes_3">
   <g id="patch_12">
    <path d="M 108 384.48 
L 504.8 384.48 
L 504.8 245.88 
L 108 245.88 
z
" style="fill:#eaeaf2;"/>
   </g>
   <g id="matplotlib.axis_5">
    <g id="xtick_13">
     <g id="line2d_59">
      <path clip-path="url(#pc029f7f41b)" d="M 188.343802 384.48 
L 188.343802 245.88 
" style="fill:none;stroke:#ffffff;stroke-linecap:round;"/>
     </g>
     <g id="line2d_60"/>
     <g id="text_27">
      <!-- 50 -->
      <g style="fill:#262626;" transform="translate(182.782864 398.637812)scale(0.1 -0.1)">
       <use xlink:href="#ArialMT-53"/>
       <use x="55.615234" xlink:href="#ArialMT-48"/>
      </g>
     </g>
    </g>
    <g id="xtick_14">
     <g id="line2d_61">
      <path clip-path="url(#pc029f7f41b)" d="M 270.327273 384.48 
L 270.327273 245.88 
" style="fill:none;stroke:#ffffff;stroke-linecap:round;"/>
     </g>
     <g id="line2d_62"/>
     <g id="text_28">
      <!-- 100 -->
      <g style="fill:#262626;" transform="translate(261.985866 398.637812)scale(0.1 -0.1)">
       <use xlink:href="#ArialMT-49"/>
       <use x="55.615234" xlink:href="#ArialMT-48"/>
       <use x="111.230469" xlink:href="#ArialMT-48"/>
      </g>
     </g>
    </g>
    <g id="xtick_15">
     <g id="line2d_63">
      <path clip-path="url(#pc029f7f41b)" d="M 352.310744 384.48 
L 352.310744 245.88 
" style="fill:none;stroke:#ffffff;stroke-linecap:round;"/>
     </g>
     <g id="line2d_64"/>
     <g id="text_29">
      <!-- 150 -->
      <g style="fill:#262626;" transform="translate(343.969338 398.637812)scale(0.1 -0.1)">
       <use xlink:href="#ArialMT-49"/>
       <use x="55.615234" xlink:href="#ArialMT-53"/>
       <use x="111.230469" xlink:href="#ArialMT-48"/>
      </g>
     </g>
    </g>
    <g id="xtick_16">
     <g id="line2d_65">
      <path clip-path="url(#pc029f7f41b)" d="M 434.294215 384.48 
L 434.294215 245.88 
" style="fill:none;stroke:#ffffff;stroke-linecap:round;"/>
     </g>
     <g id="line2d_66"/>
     <g id="text_30">
      <!-- 200 -->
      <g style="fill:#262626;" transform="translate(425.952809 398.637812)scale(0.1 -0.1)">
       <use xlink:href="#ArialMT-50"/>
       <use x="55.615234" xlink:href="#ArialMT-48"/>
       <use x="111.230469" xlink:href="#ArialMT-48"/>
      </g>
     </g>
    </g>
   </g>
   <g id="matplotlib.axis_6">
    <g id="ytick_11">
     <g id="line2d_67"/>
     <g id="text_31">
      <!-- 0.0 -->
      <g style="fill:#262626;" transform="translate(87.1 381.758906)scale(0.1 -0.1)">
       <use xlink:href="#ArialMT-48"/>
       <use x="55.615234" xlink:href="#ArialMT-46"/>
       <use x="83.398438" xlink:href="#ArialMT-48"/>
      </g>
     </g>
    </g>
    <g id="ytick_12">
     <g id="line2d_68"/>
     <g id="text_32">
      <!-- 0.2 -->
      <g style="fill:#262626;" transform="translate(87.1 356.558906)scale(0.1 -0.1)">
       <use xlink:href="#ArialMT-48"/>
       <use x="55.615234" xlink:href="#ArialMT-46"/>
       <use x="83.398438" xlink:href="#ArialMT-50"/>
      </g>
     </g>
    </g>
    <g id="ytick_13">
     <g id="line2d_69"/>
     <g id="text_33">
      <!-- 0.4 -->
      <defs>
       <path d="M 32.328125 0 
L 32.328125 17.140625 
L 1.265625 17.140625 
L 1.265625 25.203125 
L 33.9375 71.578125 
L 41.109375 71.578125 
L 41.109375 25.203125 
L 50.78125 25.203125 
L 50.78125 17.140625 
L 41.109375 17.140625 
L 41.109375 0 
z
M 32.328125 25.203125 
L 32.328125 57.46875 
L 9.90625 25.203125 
z
" id="ArialMT-52"/>
      </defs>
      <g style="fill:#262626;" transform="translate(87.1 331.358906)scale(0.1 -0.1)">
       <use xlink:href="#ArialMT-48"/>
       <use x="55.615234" xlink:href="#ArialMT-46"/>
       <use x="83.398438" xlink:href="#ArialMT-52"/>
      </g>
     </g>
    </g>
    <g id="ytick_14">
     <g id="line2d_70"/>
     <g id="text_34">
      <!-- 0.6 -->
      <defs>
       <path d="M 49.75 54.046875 
L 41.015625 53.375 
Q 39.84375 58.546875 37.703125 60.890625 
Q 34.125 64.65625 28.90625 64.65625 
Q 24.703125 64.65625 21.53125 62.3125 
Q 17.390625 59.28125 14.984375 53.46875 
Q 12.59375 47.65625 12.5 36.921875 
Q 15.671875 41.75 20.265625 44.09375 
Q 24.859375 46.4375 29.890625 46.4375 
Q 38.671875 46.4375 44.84375 39.96875 
Q 51.03125 33.5 51.03125 23.25 
Q 51.03125 16.5 48.125 10.71875 
Q 45.21875 4.9375 40.140625 1.859375 
Q 35.0625 -1.21875 28.609375 -1.21875 
Q 17.625 -1.21875 10.6875 6.859375 
Q 3.765625 14.9375 3.765625 33.5 
Q 3.765625 54.25 11.421875 63.671875 
Q 18.109375 71.875 29.4375 71.875 
Q 37.890625 71.875 43.28125 67.140625 
Q 48.6875 62.40625 49.75 54.046875 
z
M 13.875 23.1875 
Q 13.875 18.65625 15.796875 14.5 
Q 17.71875 10.359375 21.1875 8.171875 
Q 24.65625 6 28.46875 6 
Q 34.03125 6 38.03125 10.484375 
Q 42.046875 14.984375 42.046875 22.703125 
Q 42.046875 30.125 38.078125 34.390625 
Q 34.125 38.671875 28.125 38.671875 
Q 22.171875 38.671875 18.015625 34.390625 
Q 13.875 30.125 13.875 23.1875 
z
" id="ArialMT-54"/>
      </defs>
      <g style="fill:#262626;" transform="translate(87.1 306.158906)scale(0.1 -0.1)">
       <use xlink:href="#ArialMT-48"/>
       <use x="55.615234" xlink:href="#ArialMT-46"/>
       <use x="83.398438" xlink:href="#ArialMT-54"/>
      </g>
     </g>
    </g>
    <g id="ytick_15">
     <g id="line2d_71"/>
     <g id="text_35">
      <!-- 0.8 -->
      <defs>
       <path d="M 17.671875 38.8125 
Q 12.203125 40.828125 9.5625 44.53125 
Q 6.9375 48.25 6.9375 53.421875 
Q 6.9375 61.234375 12.546875 66.546875 
Q 18.171875 71.875 27.484375 71.875 
Q 36.859375 71.875 42.578125 66.421875 
Q 48.296875 60.984375 48.296875 53.171875 
Q 48.296875 48.1875 45.671875 44.5 
Q 43.0625 40.828125 37.75 38.8125 
Q 44.34375 36.671875 47.78125 31.875 
Q 51.21875 27.09375 51.21875 20.453125 
Q 51.21875 11.28125 44.71875 5.03125 
Q 38.234375 -1.21875 27.640625 -1.21875 
Q 17.046875 -1.21875 10.546875 5.046875 
Q 4.046875 11.328125 4.046875 20.703125 
Q 4.046875 27.6875 7.59375 32.390625 
Q 11.140625 37.109375 17.671875 38.8125 
z
M 15.921875 53.71875 
Q 15.921875 48.640625 19.1875 45.40625 
Q 22.46875 42.1875 27.6875 42.1875 
Q 32.765625 42.1875 36.015625 45.375 
Q 39.265625 48.578125 39.265625 53.21875 
Q 39.265625 58.0625 35.90625 61.359375 
Q 32.5625 64.65625 27.59375 64.65625 
Q 22.5625 64.65625 19.234375 61.421875 
Q 15.921875 58.203125 15.921875 53.71875 
z
M 13.09375 20.65625 
Q 13.09375 16.890625 14.875 13.375 
Q 16.65625 9.859375 20.171875 7.921875 
Q 23.6875 6 27.734375 6 
Q 34.03125 6 38.125 10.046875 
Q 42.234375 14.109375 42.234375 20.359375 
Q 42.234375 26.703125 38.015625 30.859375 
Q 33.796875 35.015625 27.4375 35.015625 
Q 21.234375 35.015625 17.15625 30.90625 
Q 13.09375 26.8125 13.09375 20.65625 
z
" id="ArialMT-56"/>
      </defs>
      <g style="fill:#262626;" transform="translate(87.1 280.958906)scale(0.1 -0.1)">
       <use xlink:href="#ArialMT-48"/>
       <use x="55.615234" xlink:href="#ArialMT-46"/>
       <use x="83.398438" xlink:href="#ArialMT-56"/>
      </g>
     </g>
    </g>
    <g id="ytick_16">
     <g id="line2d_72"/>
     <g id="text_36">
      <!-- 1.0 -->
      <g style="fill:#262626;" transform="translate(87.1 255.758906)scale(0.1 -0.1)">
       <use xlink:href="#ArialMT-49"/>
       <use x="55.615234" xlink:href="#ArialMT-46"/>
       <use x="83.398438" xlink:href="#ArialMT-48"/>
      </g>
     </g>
    </g>
    <g id="text_37">
     <!-- Cumulative density -->
     <defs>
      <path d="M 58.796875 25.09375 
L 68.265625 22.703125 
Q 65.28125 11.03125 57.546875 4.90625 
Q 49.8125 -1.21875 38.625 -1.21875 
Q 27.046875 -1.21875 19.796875 3.484375 
Q 12.546875 8.203125 8.765625 17.140625 
Q 4.984375 26.078125 4.984375 36.328125 
Q 4.984375 47.515625 9.25 55.828125 
Q 13.53125 64.15625 21.40625 68.46875 
Q 29.296875 72.796875 38.765625 72.796875 
Q 49.515625 72.796875 56.828125 67.328125 
Q 64.15625 61.859375 67.046875 51.953125 
L 57.71875 49.75 
Q 55.21875 57.5625 50.484375 61.125 
Q 45.75 64.703125 38.578125 64.703125 
Q 30.328125 64.703125 24.78125 60.734375 
Q 19.234375 56.78125 16.984375 50.109375 
Q 14.75 43.453125 14.75 36.375 
Q 14.75 27.25 17.40625 20.4375 
Q 20.0625 13.625 25.671875 10.25 
Q 31.296875 6.890625 37.84375 6.890625 
Q 45.796875 6.890625 51.3125 11.46875 
Q 56.84375 16.0625 58.796875 25.09375 
z
" id="ArialMT-67"/>
      <path d="M 40.578125 0 
L 40.578125 7.625 
Q 34.515625 -1.171875 24.125 -1.171875 
Q 19.53125 -1.171875 15.546875 0.578125 
Q 11.578125 2.34375 9.640625 5 
Q 7.71875 7.671875 6.9375 11.53125 
Q 6.390625 14.109375 6.390625 19.734375 
L 6.390625 51.859375 
L 15.1875 51.859375 
L 15.1875 23.09375 
Q 15.1875 16.21875 15.71875 13.8125 
Q 16.546875 10.359375 19.234375 8.375 
Q 21.921875 6.390625 25.875 6.390625 
Q 29.828125 6.390625 33.296875 8.421875 
Q 36.765625 10.453125 38.203125 13.9375 
Q 39.65625 17.4375 39.65625 24.078125 
L 39.65625 51.859375 
L 48.4375 51.859375 
L 48.4375 0 
z
" id="ArialMT-117"/>
      <path d="M 40.234375 0 
L 40.234375 6.546875 
Q 35.296875 -1.171875 25.734375 -1.171875 
Q 19.53125 -1.171875 14.328125 2.25 
Q 9.125 5.671875 6.265625 11.796875 
Q 3.421875 17.921875 3.421875 25.875 
Q 3.421875 33.640625 6 39.96875 
Q 8.59375 46.296875 13.765625 49.65625 
Q 18.953125 53.03125 25.34375 53.03125 
Q 30.03125 53.03125 33.6875 51.046875 
Q 37.359375 49.078125 39.65625 45.90625 
L 39.65625 71.578125 
L 48.390625 71.578125 
L 48.390625 0 
z
M 12.453125 25.875 
Q 12.453125 15.921875 16.640625 10.984375 
Q 20.84375 6.0625 26.5625 6.0625 
Q 32.328125 6.0625 36.34375 10.765625 
Q 40.375 15.484375 40.375 25.140625 
Q 40.375 35.796875 36.265625 40.765625 
Q 32.171875 45.75 26.171875 45.75 
Q 20.3125 45.75 16.375 40.96875 
Q 12.453125 36.1875 12.453125 25.875 
z
" id="ArialMT-100"/>
     </defs>
     <g style="fill:#262626;" transform="translate(80.153437 374.314688)rotate(-90)scale(0.14 -0.14)">
      <use xlink:href="#ArialMT-67"/>
      <use x="72.216797" xlink:href="#ArialMT-117"/>
      <use x="127.832031" xlink:href="#ArialMT-109"/>
      <use x="211.132812" xlink:href="#ArialMT-117"/>
      <use x="266.748047" xlink:href="#ArialMT-108"/>
      <use x="288.964844" xlink:href="#ArialMT-97"/>
      <use x="344.580078" xlink:href="#ArialMT-116"/>
      <use x="372.363281" xlink:href="#ArialMT-105"/>
      <use x="394.580078" xlink:href="#ArialMT-118"/>
      <use x="444.580078" xlink:href="#ArialMT-101"/>
      <use x="500.195312" xlink:href="#ArialMT-32"/>
      <use x="527.978516" xlink:href="#ArialMT-100"/>
      <use x="583.59375" xlink:href="#ArialMT-101"/>
      <use x="639.208984" xlink:href="#ArialMT-110"/>
      <use x="694.824219" xlink:href="#ArialMT-115"/>
      <use x="744.824219" xlink:href="#ArialMT-105"/>
      <use x="767.041016" xlink:href="#ArialMT-116"/>
      <use x="794.824219" xlink:href="#ArialMT-121"/>
     </g>
    </g>
   </g>
   <g id="line2d_73">
    <path clip-path="url(#pc029f7f41b)" d="M 106.360331 378.18 
L 108 378.18 
L 109.639669 357.365245 
L 111.279339 344.835974 
L 112.919008 337.106223 
L 116.198347 327.608228 
L 117.838017 324.728516 
L 119.477686 321.293071 
L 121.117355 319.070136 
L 122.757025 316.291468 
L 124.396694 314.37166 
L 126.036364 312.148725 
L 127.676033 310.431002 
L 129.315702 308.359631 
L 132.595041 304.823144 
L 134.234711 303.661155 
L 137.51405 299.922582 
L 139.153719 298.558508 
L 140.793388 296.891307 
L 142.433058 295.77984 
L 147.352066 291.940225 
L 150.631405 289.666768 
L 155.550413 287.393312 
L 158.829752 285.524026 
L 160.469421 284.816728 
L 162.109091 284.362037 
L 163.74876 283.351612 
L 165.38843 282.795878 
L 168.667769 281.280241 
L 171.947107 280.067731 
L 181.785124 276.379679 
L 185.064463 275.571339 
L 191.62314 274.00518 
L 193.26281 273.853617 
L 194.902479 273.499968 
L 196.542149 273.348404 
L 199.821488 272.742149 
L 201.461157 272.540064 
L 209.659504 270.872863 
L 211.299174 270.670778 
L 212.938843 270.266608 
L 216.218182 269.862438 
L 217.857851 269.660353 
L 219.497521 269.104619 
L 224.416529 268.195237 
L 227.695868 267.841588 
L 242.452893 265.618653 
L 247.371901 265.214483 
L 249.01157 264.810313 
L 252.290909 264.456664 
L 253.930579 264.456664 
L 257.209917 263.951451 
L 258.849587 263.597803 
L 271.966942 262.082165 
L 298.201653 259.758188 
L 299.841322 259.758188 
L 308.039669 258.949848 
L 309.679339 258.64672 
L 312.958678 258.545678 
L 319.517355 258.040465 
L 326.076033 257.333168 
L 327.715702 257.282646 
L 329.355372 257.080561 
L 334.27438 256.827955 
L 337.553719 256.575349 
L 340.833058 256.070136 
L 357.229752 255.00919 
L 358.869421 254.807105 
L 363.78843 254.554499 
L 365.428099 254.301893 
L 368.707438 254.099808 
L 370.347107 253.948244 
L 371.986777 253.948244 
L 373.626446 253.79668 
L 375.266116 253.79668 
L 378.545455 253.493553 
L 399.861157 252.937819 
L 406.419835 252.836776 
L 412.978512 252.533649 
L 427.735537 252.18 
L 503.160331 252.18 
L 503.160331 252.18 
" style="fill:none;stroke:#4c72b0;stroke-linecap:round;stroke-width:1.75;"/>
   </g>
   <g id="line2d_74">
    <path clip-path="url(#pc029f7f41b)" d="M 106.360331 378.18 
L 108 378.18 
L 109.639669 357.213681 
L 111.279339 345.795878 
L 112.919008 337.510393 
L 114.558678 330.386897 
L 116.198347 326.193633 
L 117.838017 322.909751 
L 119.477686 320.282646 
L 121.117355 318.261796 
L 122.757025 315.483128 
L 124.396694 311.795076 
L 126.036364 310.178396 
L 127.676033 307.955461 
L 129.315702 305.025229 
L 130.955372 303.560112 
L 134.234711 300.882486 
L 135.87438 299.063721 
L 137.51405 298.20486 
L 139.153719 296.285052 
L 140.793388 295.476712 
L 142.433058 294.516808 
L 144.072727 293.051692 
L 145.712397 291.990746 
L 147.352066 291.232927 
L 148.991736 290.070938 
L 152.271074 288.100609 
L 153.910744 287.241748 
L 155.550413 286.180802 
L 157.190083 284.816728 
L 158.829752 283.806303 
L 160.469421 283.351612 
L 163.74876 282.139102 
L 165.38843 281.179198 
L 168.667769 279.663561 
L 171.947107 278.451051 
L 173.586777 277.945838 
L 176.866116 277.137498 
L 178.505785 276.127073 
L 186.704132 274.308308 
L 188.343802 273.752574 
L 189.983471 273.398925 
L 191.62314 273.247362 
L 193.26281 272.742149 
L 194.902479 271.98433 
L 199.821488 270.670778 
L 203.100826 269.96348 
L 204.740496 269.508789 
L 208.019835 269.054098 
L 211.299174 268.195237 
L 212.938843 267.993152 
L 214.578512 267.639503 
L 217.857851 267.53846 
L 229.335537 266.174387 
L 234.254545 265.92178 
L 245.732231 265.315525 
L 249.01157 265.214483 
L 267.047934 264.608228 
L 270.327273 264.406143 
L 275.246281 264.204058 
L 283.444628 264.052494 
L 285.084298 263.597803 
L 288.363636 263.446239 
L 306.4 263.345196 
L 311.319008 262.587378 
L 312.958678 261.981123 
L 317.877686 261.526431 
L 319.517355 261.172783 
L 321.157025 261.172783 
L 322.796694 259.808709 
L 324.436364 259.657145 
L 326.076033 259.657145 
L 327.715702 259.404539 
L 332.634711 259.303496 
L 339.193388 258.747763 
L 342.472727 258.545678 
L 345.752066 258.24255 
L 352.310744 257.83838 
L 353.950413 257.484731 
L 357.229752 257.232125 
L 358.869421 257.232125 
L 365.428099 255.767009 
L 368.707438 255.615445 
L 370.347107 255.261796 
L 371.986777 255.110233 
L 373.626446 254.807105 
L 378.545455 254.60502 
L 380.185124 254.150329 
L 381.824793 253.847201 
L 385.104132 253.79668 
L 386.743802 253.544074 
L 390.02314 253.443031 
L 394.942149 253.39251 
L 399.861157 253.190425 
L 411.338843 252.937819 
L 416.257851 252.887298 
L 417.897521 252.735734 
L 426.095868 252.685213 
L 431.014876 252.483128 
L 452.330579 252.382085 
L 455.609917 252.230521 
L 503.160331 252.18 
L 503.160331 252.18 
" style="fill:none;stroke:#55a868;stroke-linecap:round;stroke-width:1.75;"/>
   </g>
   <g id="line2d_75">
    <path clip-path="url(#pc029f7f41b)" d="M 106.360331 378.18 
L 108 378.18 
L 109.639669 359.99235 
L 111.279339 349.989142 
L 112.919008 342.410954 
L 114.558678 338.116648 
L 116.198347 334.883288 
L 117.838017 332.054098 
L 119.477686 329.831163 
L 122.757025 325.941026 
L 127.676033 321.394114 
L 129.315702 319.423785 
L 132.595041 316.847201 
L 134.234711 314.624266 
L 135.87438 313.462277 
L 137.51405 312.552895 
L 139.153719 311.340385 
L 140.793388 310.431002 
L 142.433058 309.319535 
L 144.072727 308.410152 
L 145.712397 307.0966 
L 147.352066 306.439824 
L 148.991736 305.580962 
L 153.910744 303.964282 
L 155.550413 303.408549 
L 158.829752 301.43822 
L 160.469421 300.62988 
L 163.74876 299.518412 
L 167.028099 298.053296 
L 168.667769 297.699647 
L 170.307438 297.194435 
L 171.947107 296.99235 
L 173.586777 296.58818 
L 175.226446 296.335573 
L 180.145455 295.072542 
L 181.785124 294.870457 
L 183.424793 294.415766 
L 185.064463 293.809511 
L 186.704132 293.35482 
L 188.343802 293.203256 
L 191.62314 292.394916 
L 193.26281 291.990746 
L 194.902479 291.283448 
L 196.542149 290.980321 
L 199.821488 289.868853 
L 201.461157 289.515204 
L 203.100826 289.313119 
L 204.740496 288.454258 
L 206.380165 287.898524 
L 209.659504 287.292269 
L 211.299174 287.039663 
L 212.938843 286.433408 
L 216.218182 285.625068 
L 219.497521 285.119856 
L 226.056198 283.907346 
L 227.695868 283.200048 
L 229.335537 283.048484 
L 230.975207 282.593793 
L 232.614876 282.290666 
L 234.254545 281.785453 
L 237.533884 281.381283 
L 239.173554 281.381283 
L 240.813223 281.128677 
L 245.732231 280.724507 
L 247.371901 280.471901 
L 249.01157 279.815124 
L 252.290909 279.613039 
L 253.930579 278.905742 
L 257.209917 278.501572 
L 258.849587 278.400529 
L 262.128926 277.996359 
L 263.768595 277.844796 
L 267.047934 277.844796 
L 268.687603 277.592189 
L 271.966942 277.390104 
L 275.246281 277.188019 
L 276.88595 276.682807 
L 280.165289 276.177594 
L 281.804959 276.127073 
L 283.444628 275.874467 
L 286.723967 275.672382 
L 290.003306 275.369254 
L 291.642975 275.066127 
L 301.480992 274.510393 
L 306.4 274.459872 
L 311.319008 274.055702 
L 316.238017 273.651532 
L 319.517355 273.499968 
L 322.796694 273.146319 
L 327.715702 272.994755 
L 335.91405 272.085373 
L 340.833058 271.832767 
L 353.950413 270.317129 
L 358.869421 269.912959 
L 360.509091 269.609832 
L 367.067769 269.306704 
L 368.707438 269.256183 
L 370.347107 269.054098 
L 375.266116 268.801492 
L 381.824793 268.3468 
L 383.464463 267.740545 
L 390.02314 267.487939 
L 394.942149 266.982727 
L 398.221488 266.881684 
L 401.500826 266.376472 
L 414.618182 265.467089 
L 416.257851 265.062919 
L 429.375207 264.204058 
L 432.654545 263.799888 
L 435.933884 263.49676 
L 439.213223 262.839984 
L 455.609917 261.425389 
L 457.249587 261.374868 
L 458.889256 261.07174 
L 462.168595 260.970698 
L 463.808264 260.465485 
L 465.447934 260.364443 
L 467.087603 259.960273 
L 472.006612 259.505581 
L 473.646281 259.202454 
L 480.204959 257.43421 
L 481.844628 257.333168 
L 486.763636 256.575349 
L 488.403306 255.918573 
L 490.042975 255.767009 
L 493.322314 255.110233 
L 494.961983 254.908148 
L 498.241322 253.948244 
L 499.880992 253.645116 
L 501.520661 252.98834 
L 503.160331 252.836776 
L 503.160331 252.836776 
" style="fill:none;stroke:#c44e52;stroke-linecap:round;stroke-width:1.75;"/>
   </g>
   <g id="line2d_76">
    <path clip-path="url(#pc029f7f41b)" d="M 106.360331 378.18 
L 108 378.18 
L 109.639669 358.224106 
L 111.279339 346.553697 
L 112.919008 339.884892 
L 114.558678 334.277033 
L 116.198347 329.831163 
L 117.838017 326.446239 
L 122.757025 317.402935 
L 124.396694 314.977915 
L 127.676033 310.380481 
L 130.955372 307.147121 
L 132.595041 305.07575 
L 134.234711 303.307506 
L 135.87438 302.196038 
L 137.51405 300.579358 
L 140.793388 297.901732 
L 144.072727 295.678797 
L 145.712397 294.819936 
L 147.352066 293.708468 
L 148.991736 292.95065 
L 153.910744 289.818332 
L 155.550413 289.009992 
L 157.190083 288.504779 
L 160.469421 286.686014 
L 162.109091 285.978717 
L 165.38843 284.917771 
L 167.028099 284.008388 
L 171.947107 282.240144 
L 173.586777 281.886496 
L 175.226446 281.229719 
L 178.505785 280.269816 
L 180.145455 280.067731 
L 183.424793 279.107827 
L 185.064463 278.299487 
L 186.704132 277.996359 
L 189.983471 276.783849 
L 193.26281 276.02603 
L 196.542149 275.470297 
L 198.181818 275.015605 
L 203.100826 274.510393 
L 206.380165 273.702053 
L 212.938843 272.691628 
L 214.578512 272.590585 
L 216.218182 272.034852 
L 217.857851 271.782245 
L 221.13719 271.58016 
L 222.77686 271.125469 
L 224.416529 270.822342 
L 227.695868 270.519214 
L 234.254545 269.811917 
L 235.894215 269.458268 
L 239.173554 269.054098 
L 244.092562 268.397322 
L 247.371901 268.094194 
L 250.65124 267.993152 
L 253.930579 267.791067 
L 257.209917 267.588982 
L 258.849587 267.588982 
L 260.489256 267.285854 
L 262.128926 267.285854 
L 265.408264 267.083769 
L 275.246281 266.578557 
L 278.52562 266.477514 
L 280.165289 266.426993 
L 281.804959 266.022823 
L 285.084298 265.972302 
L 290.003306 265.669174 
L 291.642975 265.416568 
L 294.922314 265.265004 
L 298.201653 265.265004 
L 301.480992 264.860834 
L 316.238017 264.3051 
L 322.796694 263.799888 
L 329.355372 263.042069 
L 330.995041 263.042069 
L 344.112397 261.47591 
L 345.752066 261.374868 
L 347.391736 261.122261 
L 353.950413 260.66757 
L 357.229752 260.364443 
L 360.509091 260.111836 
L 362.14876 260.061315 
L 363.78843 259.85923 
L 368.707438 259.707666 
L 370.347107 259.354018 
L 375.266116 259.303496 
L 383.464463 258.899326 
L 385.104132 258.899326 
L 386.743802 258.64672 
L 393.302479 258.394114 
L 396.581818 258.141508 
L 401.500826 258.040465 
L 403.140496 257.989944 
L 404.780165 257.737338 
L 406.419835 257.737338 
L 412.978512 257.03004 
L 416.257851 256.62587 
L 419.53719 256.524828 
L 421.17686 256.474306 
L 422.816529 256.2217 
L 427.735537 255.969094 
L 432.654545 255.463881 
L 445.771901 255.00919 
L 447.41157 254.807105 
L 453.970248 254.503978 
L 457.249587 254.402935 
L 458.889256 254.402935 
L 462.168595 254.099808 
L 467.087603 254.049286 
L 470.366942 253.847201 
L 476.92562 253.594595 
L 480.204959 253.341989 
L 494.961983 252.836776 
L 496.601653 252.634691 
L 501.520661 252.382085 
L 503.160331 252.230521 
L 503.160331 252.230521 
" style="fill:none;stroke:#8172b2;stroke-linecap:round;stroke-width:1.75;"/>
   </g>
   <g id="line2d_77">
    <path clip-path="url(#pc029f7f41b)" d="M 106.360331 378.18 
L 108 378.18 
L 109.639669 357.870457 
L 111.279339 346.503176 
L 112.919008 337.611435 
L 114.558678 333.064523 
L 117.838017 326.193633 
L 121.117355 321.141508 
L 122.757025 318.81753 
L 127.676033 312.603416 
L 134.234711 306.28826 
L 135.87438 304.772622 
L 137.51405 303.762197 
L 139.153719 302.448645 
L 142.433058 300.22571 
L 145.712397 298.103817 
L 147.352066 297.345998 
L 150.631405 295.274627 
L 152.271074 294.415766 
L 157.190083 291.131885 
L 158.829752 290.323545 
L 160.469421 289.868853 
L 165.38843 287.999567 
L 167.028099 287.090184 
L 168.667769 286.332366 
L 170.307438 285.776632 
L 173.586777 285.170377 
L 176.866116 284.008388 
L 178.505785 283.705261 
L 181.785124 282.391708 
L 186.704132 281.431804 
L 188.343802 280.724507 
L 189.983471 280.421379 
L 191.62314 279.865646 
L 193.26281 279.613039 
L 198.181818 277.794274 
L 204.740496 276.480722 
L 208.019835 275.773424 
L 211.299174 275.167169 
L 212.938843 275.066127 
L 216.218182 274.510393 
L 219.497521 273.904138 
L 224.416529 273.499968 
L 232.614876 272.439022 
L 234.254545 271.933809 
L 235.894215 271.832767 
L 244.092562 270.569735 
L 252.290909 269.96348 
L 257.209917 269.407747 
L 267.047934 268.144715 
L 270.327273 267.588982 
L 271.966942 267.487939 
L 275.246281 266.831163 
L 281.804959 266.073344 
L 283.444628 266.073344 
L 291.642975 265.214483 
L 293.282645 264.911355 
L 308.039669 263.648324 
L 314.598347 263.143111 
L 316.238017 262.890505 
L 326.076033 262.385293 
L 330.995041 262.183208 
L 334.27438 261.779038 
L 335.91405 261.779038 
L 337.553719 261.47591 
L 344.112397 261.172783 
L 347.391736 260.869655 
L 352.310744 260.414964 
L 353.950413 260.061315 
L 365.428099 258.747763 
L 367.067769 258.697241 
L 371.986777 257.989944 
L 386.743802 257.080561 
L 388.383471 256.827955 
L 390.02314 256.777434 
L 391.66281 256.524828 
L 394.942149 256.322743 
L 396.581818 256.2217 
L 398.221488 255.969094 
L 408.059504 255.463881 
L 412.978512 255.261796 
L 414.618182 255.059711 
L 417.897521 254.908148 
L 419.53719 254.756584 
L 427.735537 254.655541 
L 439.213223 253.998765 
L 440.852893 253.998765 
L 442.492562 253.847201 
L 445.771901 253.746159 
L 450.690909 253.544074 
L 460.528926 253.341989 
L 467.087603 253.240946 
L 476.92562 252.685213 
L 481.844628 252.58417 
L 488.403306 252.483128 
L 491.682645 252.432606 
L 496.601653 252.230521 
L 503.160331 252.18 
L 503.160331 252.18 
" style="fill:none;stroke:#ccb974;stroke-linecap:round;stroke-width:1.75;"/>
   </g>
   <g id="line2d_78">
    <path clip-path="url(#pc029f7f41b)" d="M 106.360331 378.18 
L 108 378.18 
L 109.639669 358.476712 
L 111.279339 346.705261 
L 112.919008 340.137498 
L 114.558678 335.439022 
L 116.198347 332.15514 
L 117.838017 329.426993 
L 119.477686 326.143111 
L 121.117355 324.172783 
L 122.757025 321.848805 
L 124.396694 320.282646 
L 127.676033 315.786255 
L 130.955372 312.502374 
L 132.595041 311.1383 
L 134.234711 309.622662 
L 135.87438 308.410152 
L 137.51405 306.742951 
L 142.433058 302.701251 
L 144.072727 301.690826 
L 145.712397 301.03405 
L 147.352066 300.680401 
L 148.991736 300.023625 
L 150.631405 299.518412 
L 152.271074 298.60903 
L 153.910744 298.154338 
L 160.469421 295.628276 
L 162.109091 295.37567 
L 168.667769 293.556905 
L 173.586777 291.536055 
L 175.226446 290.980321 
L 176.866116 290.727715 
L 181.785124 289.414162 
L 183.424793 288.908949 
L 186.704132 288.201652 
L 188.343802 287.595397 
L 191.62314 286.888099 
L 193.26281 286.382887 
L 198.181818 285.524026 
L 199.821488 285.119856 
L 204.740496 284.260994 
L 208.019835 283.452654 
L 209.659504 283.200048 
L 212.938843 282.290666 
L 214.578512 281.734932 
L 217.857851 281.179198 
L 219.497521 280.673986 
L 221.13719 280.320337 
L 226.056198 279.865646 
L 227.695868 279.410954 
L 230.975207 278.956263 
L 232.614876 278.299487 
L 234.254545 278.046881 
L 237.533884 277.23854 
L 244.092562 276.531243 
L 245.732231 276.379679 
L 247.371901 275.924988 
L 249.01157 275.722903 
L 250.65124 275.722903 
L 252.290909 275.470297 
L 253.930579 275.066127 
L 255.570248 274.965084 
L 257.209917 274.661957 
L 262.128926 274.207265 
L 265.408264 273.702053 
L 267.047934 273.449447 
L 268.687603 273.348404 
L 270.327273 272.944234 
L 273.606612 272.691628 
L 278.52562 272.186415 
L 288.363636 271.479118 
L 298.201653 270.165565 
L 299.841322 269.811917 
L 306.4 269.104619 
L 308.039669 268.953055 
L 311.319008 268.397322 
L 317.877686 267.690024 
L 326.076033 266.73012 
L 329.355372 266.528035 
L 334.27438 265.871259 
L 342.472727 265.012398 
L 349.031405 264.103015 
L 358.869421 262.991548 
L 363.78843 262.587378 
L 365.428099 262.233729 
L 371.986777 261.728516 
L 373.626446 261.425389 
L 386.743802 260.66757 
L 388.383471 260.66757 
L 390.02314 260.465485 
L 394.942149 260.212879 
L 404.780165 259.657145 
L 409.699174 259.556103 
L 414.618182 259.303496 
L 417.897521 259.000369 
L 424.456198 258.394114 
L 427.735537 257.888901 
L 434.294215 257.686816 
L 435.933884 257.484731 
L 442.492562 257.383689 
L 444.132231 257.131083 
L 453.970248 256.423785 
L 455.609917 256.171179 
L 462.168595 255.665966 
L 465.447934 255.463881 
L 470.366942 255.211275 
L 476.92562 254.453456 
L 481.844628 254.049286 
L 483.484298 253.79668 
L 488.403306 253.443031 
L 490.042975 253.190425 
L 491.682645 253.139904 
L 496.601653 252.634691 
L 498.241322 252.634691 
L 501.520661 252.281043 
L 503.160331 252.230521 
L 503.160331 252.230521 
" style="fill:none;stroke:#64b5cd;stroke-linecap:round;stroke-width:1.75;"/>
   </g>
   <g id="patch_13">
    <path d="M 108 384.48 
L 108 245.88 
" style="fill:none;"/>
   </g>
   <g id="patch_14">
    <path d="M 504.8 384.48 
L 504.8 245.88 
" style="fill:none;"/>
   </g>
   <g id="patch_15">
    <path d="M 108 384.48 
L 504.8 384.48 
" style="fill:none;"/>
   </g>
   <g id="patch_16">
    <path d="M 108 245.88 
L 504.8 245.88 
" style="fill:none;"/>
   </g>
   <g id="text_38">
    <!-- Ranks ECDF -->
    <defs>
     <path d="M 8.203125 0 
L 8.203125 71.578125 
L 56.5 71.578125 
L 56.5 63.140625 
L 17.671875 63.140625 
L 17.671875 40.96875 
L 51.265625 40.96875 
L 51.265625 32.515625 
L 17.671875 32.515625 
L 17.671875 0 
z
" id="ArialMT-70"/>
    </defs>
    <g style="fill:#262626;" transform="translate(271.39375 239.88)scale(0.12 -0.12)">
     <use xlink:href="#ArialMT-82"/>
     <use x="72.216797" xlink:href="#ArialMT-97"/>
     <use x="127.832031" xlink:href="#ArialMT-110"/>
     <use x="183.447266" xlink:href="#ArialMT-107"/>
     <use x="233.447266" xlink:href="#ArialMT-115"/>
     <use x="283.447266" xlink:href="#ArialMT-32"/>
     <use x="311.230469" xlink:href="#ArialMT-69"/>
     <use x="377.929688" xlink:href="#ArialMT-67"/>
     <use x="450.146484" xlink:href="#ArialMT-68"/>
     <use x="522.363281" xlink:href="#ArialMT-70"/>
    </g>
   </g>
  </g>
  <g id="axes_4">
   <g id="patch_17">
    <path d="M 517.2 384.48 
L 777.6 384.48 
L 777.6 245.88 
L 517.2 245.88 
z
" style="fill:#eaeaf2;"/>
   </g>
   <g id="matplotlib.axis_7">
    <g id="xtick_17">
     <g id="line2d_79">
      <path clip-path="url(#pc76ced7500)" d="M 537.757895 384.48 
L 537.757895 245.88 
" style="fill:none;stroke:#ffffff;stroke-linecap:round;"/>
     </g>
     <g id="line2d_80"/>
     <g id="text_39">
      <!-- 2.5 -->
      <g style="fill:#262626;" transform="translate(530.807895 398.637812)scale(0.1 -0.1)">
       <use xlink:href="#ArialMT-50"/>
       <use x="55.615234" xlink:href="#ArialMT-46"/>
       <use x="83.398438" xlink:href="#ArialMT-53"/>
      </g>
     </g>
    </g>
    <g id="xtick_18">
     <g id="line2d_81">
      <path clip-path="url(#pc76ced7500)" d="M 572.021053 384.48 
L 572.021053 245.88 
" style="fill:none;stroke:#ffffff;stroke-linecap:round;"/>
     </g>
     <g id="line2d_82"/>
     <g id="text_40">
      <!-- 5.0 -->
      <g style="fill:#262626;" transform="translate(565.071053 398.637812)scale(0.1 -0.1)">
       <use xlink:href="#ArialMT-53"/>
       <use x="55.615234" xlink:href="#ArialMT-46"/>
       <use x="83.398438" xlink:href="#ArialMT-48"/>
      </g>
     </g>
    </g>
    <g id="xtick_19">
     <g id="line2d_83">
      <path clip-path="url(#pc76ced7500)" d="M 606.284211 384.48 
L 606.284211 245.88 
" style="fill:none;stroke:#ffffff;stroke-linecap:round;"/>
     </g>
     <g id="line2d_84"/>
     <g id="text_41">
      <!-- 7.5 -->
      <g style="fill:#262626;" transform="translate(599.334211 398.637812)scale(0.1 -0.1)">
       <use xlink:href="#ArialMT-55"/>
       <use x="55.615234" xlink:href="#ArialMT-46"/>
       <use x="83.398438" xlink:href="#ArialMT-53"/>
      </g>
     </g>
    </g>
    <g id="xtick_20">
     <g id="line2d_85">
      <path clip-path="url(#pc76ced7500)" d="M 640.547368 384.48 
L 640.547368 245.88 
" style="fill:none;stroke:#ffffff;stroke-linecap:round;"/>
     </g>
     <g id="line2d_86"/>
     <g id="text_42">
      <!-- 10.0 -->
      <g style="fill:#262626;" transform="translate(630.8169 398.637812)scale(0.1 -0.1)">
       <use xlink:href="#ArialMT-49"/>
       <use x="55.615234" xlink:href="#ArialMT-48"/>
       <use x="111.230469" xlink:href="#ArialMT-46"/>
       <use x="139.013672" xlink:href="#ArialMT-48"/>
      </g>
     </g>
    </g>
    <g id="xtick_21">
     <g id="line2d_87">
      <path clip-path="url(#pc76ced7500)" d="M 674.810526 384.48 
L 674.810526 245.88 
" style="fill:none;stroke:#ffffff;stroke-linecap:round;"/>
     </g>
     <g id="line2d_88"/>
     <g id="text_43">
      <!-- 12.5 -->
      <g style="fill:#262626;" transform="translate(665.080058 398.637812)scale(0.1 -0.1)">
       <use xlink:href="#ArialMT-49"/>
       <use x="55.615234" xlink:href="#ArialMT-50"/>
       <use x="111.230469" xlink:href="#ArialMT-46"/>
       <use x="139.013672" xlink:href="#ArialMT-53"/>
      </g>
     </g>
    </g>
    <g id="xtick_22">
     <g id="line2d_89">
      <path clip-path="url(#pc76ced7500)" d="M 709.073684 384.48 
L 709.073684 245.88 
" style="fill:none;stroke:#ffffff;stroke-linecap:round;"/>
     </g>
     <g id="line2d_90"/>
     <g id="text_44">
      <!-- 15.0 -->
      <g style="fill:#262626;" transform="translate(699.343215 398.637812)scale(0.1 -0.1)">
       <use xlink:href="#ArialMT-49"/>
       <use x="55.615234" xlink:href="#ArialMT-53"/>
       <use x="111.230469" xlink:href="#ArialMT-46"/>
       <use x="139.013672" xlink:href="#ArialMT-48"/>
      </g>
     </g>
    </g>
    <g id="xtick_23">
     <g id="line2d_91">
      <path clip-path="url(#pc76ced7500)" d="M 743.336842 384.48 
L 743.336842 245.88 
" style="fill:none;stroke:#ffffff;stroke-linecap:round;"/>
     </g>
     <g id="line2d_92"/>
     <g id="text_45">
      <!-- 17.5 -->
      <g style="fill:#262626;" transform="translate(733.606373 398.637812)scale(0.1 -0.1)">
       <use xlink:href="#ArialMT-49"/>
       <use x="55.615234" xlink:href="#ArialMT-55"/>
       <use x="111.230469" xlink:href="#ArialMT-46"/>
       <use x="139.013672" xlink:href="#ArialMT-53"/>
      </g>
     </g>
    </g>
    <g id="xtick_24">
     <g id="line2d_93">
      <path clip-path="url(#pc76ced7500)" d="M 777.6 384.48 
L 777.6 245.88 
" style="fill:none;stroke:#ffffff;stroke-linecap:round;"/>
     </g>
     <g id="line2d_94"/>
     <g id="text_46">
      <!-- 20.0 -->
      <g style="fill:#262626;" transform="translate(767.869531 398.637812)scale(0.1 -0.1)">
       <use xlink:href="#ArialMT-50"/>
       <use x="55.615234" xlink:href="#ArialMT-48"/>
       <use x="111.230469" xlink:href="#ArialMT-46"/>
       <use x="139.013672" xlink:href="#ArialMT-48"/>
      </g>
     </g>
    </g>
   </g>
   <g id="matplotlib.axis_8">
    <g id="ytick_17">
     <g id="line2d_95"/>
    </g>
    <g id="ytick_18">
     <g id="line2d_96"/>
    </g>
    <g id="ytick_19">
     <g id="line2d_97"/>
    </g>
    <g id="ytick_20">
     <g id="line2d_98"/>
    </g>
    <g id="ytick_21">
     <g id="line2d_99"/>
    </g>
    <g id="ytick_22">
     <g id="line2d_100"/>
    </g>
   </g>
   <g id="line2d_101">
    <path clip-path="url(#pc76ced7500)" d="M 503.494737 378.18 
L 517.2 378.18 
L 530.905263 357.365245 
L 544.610526 344.835974 
L 558.315789 337.106223 
L 572.021053 332.256183 
L 585.726316 327.608228 
L 599.431579 324.728516 
L 613.136842 321.293071 
L 626.842105 319.070136 
L 640.547368 316.291468 
L 654.252632 314.37166 
L 667.957895 312.148725 
L 681.663158 310.431002 
L 695.368421 308.359631 
L 722.778947 304.823144 
L 736.484211 303.661155 
L 763.894737 299.922582 
L 777.6 298.558508 
L 791.305263 296.891307 
L 805.010526 295.77984 
L 846.126316 291.940225 
L 865 290.390557 
L 865 290.390557 
" style="fill:none;stroke:#4c72b0;stroke-linecap:round;stroke-width:1.75;"/>
   </g>
   <g id="line2d_102">
    <path clip-path="url(#pc76ced7500)" d="M 503.494737 378.18 
L 517.2 378.18 
L 530.905263 357.213681 
L 544.610526 345.795878 
L 558.315789 337.510393 
L 572.021053 330.386897 
L 585.726316 326.193633 
L 599.431579 322.909751 
L 613.136842 320.282646 
L 626.842105 318.261796 
L 640.547368 315.483128 
L 654.252632 311.795076 
L 667.957895 310.178396 
L 681.663158 307.955461 
L 695.368421 305.025229 
L 709.073684 303.560112 
L 736.484211 300.882486 
L 750.189474 299.063721 
L 763.894737 298.20486 
L 777.6 296.285052 
L 791.305263 295.476712 
L 805.010526 294.516808 
L 818.715789 293.051692 
L 832.421053 291.990746 
L 846.126316 291.232927 
L 865 289.689895 
L 865 289.689895 
" style="fill:none;stroke:#55a868;stroke-linecap:round;stroke-width:1.75;"/>
   </g>
   <g id="line2d_103">
    <path clip-path="url(#pc76ced7500)" d="M 503.494737 378.18 
L 517.2 378.18 
L 530.905263 359.99235 
L 544.610526 349.989142 
L 558.315789 342.410954 
L 572.021053 338.116648 
L 585.726316 334.883288 
L 599.431579 332.054098 
L 613.136842 329.831163 
L 640.547368 325.941026 
L 667.957895 322.85923 
L 681.663158 321.394114 
L 695.368421 319.423785 
L 722.778947 316.847201 
L 736.484211 314.624266 
L 750.189474 313.462277 
L 763.894737 312.552895 
L 777.6 311.340385 
L 791.305263 310.431002 
L 805.010526 309.319535 
L 818.715789 308.410152 
L 832.421053 307.0966 
L 846.126316 306.439824 
L 859.831579 305.580962 
L 865 305.390441 
L 865 305.390441 
" style="fill:none;stroke:#c44e52;stroke-linecap:round;stroke-width:1.75;"/>
   </g>
   <g id="line2d_104">
    <path clip-path="url(#pc76ced7500)" d="M 503.494737 378.18 
L 517.2 378.18 
L 530.905263 358.224106 
L 544.610526 346.553697 
L 558.315789 339.884892 
L 572.021053 334.277033 
L 585.726316 329.831163 
L 599.431579 326.446239 
L 626.842105 320.181604 
L 640.547368 317.402935 
L 654.252632 314.977915 
L 667.957895 312.75498 
L 681.663158 310.380481 
L 709.073684 307.147121 
L 722.778947 305.07575 
L 736.484211 303.307506 
L 750.189474 302.196038 
L 763.894737 300.579358 
L 791.305263 297.901732 
L 818.715789 295.678797 
L 832.421053 294.819936 
L 846.126316 293.708468 
L 859.831579 292.95065 
L 865 292.550554 
L 865 292.550554 
" style="fill:none;stroke:#8172b2;stroke-linecap:round;stroke-width:1.75;"/>
   </g>
   <g id="line2d_105">
    <path clip-path="url(#pc76ced7500)" d="M 503.494737 378.18 
L 517.2 378.18 
L 530.905263 357.870457 
L 544.610526 346.503176 
L 558.315789 337.611435 
L 572.021053 333.064523 
L 599.431579 326.193633 
L 613.136842 323.566528 
L 640.547368 318.81753 
L 667.957895 314.523224 
L 681.663158 312.603416 
L 722.778947 307.753376 
L 750.189474 304.772622 
L 763.894737 303.762197 
L 777.6 302.448645 
L 805.010526 300.22571 
L 832.421053 298.103817 
L 846.126316 297.345998 
L 865 295.904009 
L 865 295.904009 
" style="fill:none;stroke:#ccb974;stroke-linecap:round;stroke-width:1.75;"/>
   </g>
   <g id="line2d_106">
    <path clip-path="url(#pc76ced7500)" d="M 503.494737 378.18 
L 517.2 378.18 
L 530.905263 358.476712 
L 544.610526 346.705261 
L 558.315789 340.137498 
L 572.021053 335.439022 
L 585.726316 332.15514 
L 599.431579 329.426993 
L 613.136842 326.143111 
L 626.842105 324.172783 
L 640.547368 321.848805 
L 654.252632 320.282646 
L 681.663158 315.786255 
L 695.368421 314.068532 
L 709.073684 312.502374 
L 722.778947 311.1383 
L 736.484211 309.622662 
L 750.189474 308.410152 
L 763.894737 306.742951 
L 805.010526 302.701251 
L 818.715789 301.690826 
L 832.421053 301.03405 
L 846.126316 300.680401 
L 865 299.833103 
L 865 299.833103 
" style="fill:none;stroke:#64b5cd;stroke-linecap:round;stroke-width:1.75;"/>
   </g>
   <g id="patch_18">
    <path d="M 517.2 384.48 
L 517.2 245.88 
" style="fill:none;"/>
   </g>
   <g id="patch_19">
    <path d="M 777.6 384.48 
L 777.6 245.88 
" style="fill:none;"/>
   </g>
   <g id="patch_20">
    <path d="M 517.2 384.48 
L 777.6 384.48 
" style="fill:none;"/>
   </g>
   <g id="patch_21">
    <path d="M 517.2 245.88 
L 777.6 245.88 
" style="fill:none;"/>
   </g>
   <g id="text_47">
    <!-- Ranks ECDF (top 20) -->
    <g style="fill:#262626;" transform="translate(590.05125 239.88)scale(0.12 -0.12)">
     <use xlink:href="#ArialMT-82"/>
     <use x="72.216797" xlink:href="#ArialMT-97"/>
     <use x="127.832031" xlink:href="#ArialMT-110"/>
     <use x="183.447266" xlink:href="#ArialMT-107"/>
     <use x="233.447266" xlink:href="#ArialMT-115"/>
     <use x="283.447266" xlink:href="#ArialMT-32"/>
     <use x="311.230469" xlink:href="#ArialMT-69"/>
     <use x="377.929688" xlink:href="#ArialMT-67"/>
     <use x="450.146484" xlink:href="#ArialMT-68"/>
     <use x="522.363281" xlink:href="#ArialMT-70"/>
     <use x="583.447266" xlink:href="#ArialMT-32"/>
     <use x="611.230469" xlink:href="#ArialMT-40"/>
     <use x="644.53125" xlink:href="#ArialMT-116"/>
     <use x="672.314453" xlink:href="#ArialMT-111"/>
     <use x="727.929688" xlink:href="#ArialMT-112"/>
     <use x="783.544922" xlink:href="#ArialMT-32"/>
     <use x="811.328125" xlink:href="#ArialMT-50"/>
     <use x="866.943359" xlink:href="#ArialMT-48"/>
     <use x="922.558594" xlink:href="#ArialMT-41"/>
    </g>
   </g>
  </g>
 </g>
 <defs>
  <clipPath id="p2a97660466">
   <rect height="138.6" width="396.8" x="108" y="51.84"/>
  </clipPath>
  <clipPath id="pab69afd0c6">
   <rect height="138.6" width="260.4" x="517.2" y="51.84"/>
  </clipPath>
  <clipPath id="pc029f7f41b">
   <rect height="138.6" width="396.8" x="108" y="245.88"/>
  </clipPath>
  <clipPath id="pc76ced7500">
   <rect height="138.6" width="260.4" x="517.2" y="245.88"/>
  </clipPath>
 </defs>
</svg>
