<?xml version="1.0" encoding="utf-8" standalone="no"?>
<!DOCTYPE svg PUBLIC "-//W3C//DTD SVG 1.1//EN"
  "http://www.w3.org/Graphics/SVG/1.1/DTD/svg11.dtd">
<!-- Created with matplotlib (https://matplotlib.org/) -->
<svg height="576pt" version="1.1" viewBox="0 0 576 576" width="576pt" xmlns="http://www.w3.org/2000/svg" xmlns:xlink="http://www.w3.org/1999/xlink">
 <defs>
  <style type="text/css">
*{stroke-linecap:butt;stroke-linejoin:round;white-space:pre;}
  </style>
 </defs>
 <g id="figure_1">
  <g id="patch_1">
   <path d="M 0 576 
L 576 576 
L 576 0 
L 0 0 
z
" style="fill:#ffffff;"/>
  </g>
  <g id="axes_1">
   <g id="patch_2">
    <path d="M 60.05 277.2 
L 565.2 277.2 
L 565.2 10.8 
L 60.05 10.8 
z
" style="fill:#eaeaf2;"/>
   </g>
   <g id="matplotlib.axis_1"/>
   <g id="matplotlib.axis_2">
    <g id="ytick_1">
     <g id="line2d_1">
      <path clip-path="url(#p0e5d2123d6)" d="M 60.05 277.2 
L 565.2 277.2 
" style="fill:none;stroke:#ffffff;stroke-linecap:round;"/>
     </g>
     <g id="line2d_2"/>
     <g id="text_1">
      <!-- 0 -->
      <defs>
       <path d="M 4.15625 35.296875 
Q 4.15625 48 6.765625 55.734375 
Q 9.375 63.484375 14.515625 67.671875 
Q 19.671875 71.875 27.484375 71.875 
Q 33.25 71.875 37.59375 69.546875 
Q 41.9375 67.234375 44.765625 62.859375 
Q 47.609375 58.5 49.21875 52.21875 
Q 50.828125 45.953125 50.828125 35.296875 
Q 50.828125 22.703125 48.234375 14.96875 
Q 45.65625 7.234375 40.5 3 
Q 35.359375 -1.21875 27.484375 -1.21875 
Q 17.140625 -1.21875 11.234375 6.203125 
Q 4.15625 15.140625 4.15625 35.296875 
z
M 13.1875 35.296875 
Q 13.1875 17.671875 17.3125 11.828125 
Q 21.4375 6 27.484375 6 
Q 33.546875 6 37.671875 11.859375 
Q 41.796875 17.71875 41.796875 35.296875 
Q 41.796875 52.984375 37.671875 58.78125 
Q 33.546875 64.59375 27.390625 64.59375 
Q 21.34375 64.59375 17.71875 59.46875 
Q 13.1875 52.9375 13.1875 35.296875 
z
" id="ArialMT-48"/>
      </defs>
      <g style="fill:#262626;" transform="translate(47.489063 280.778906)scale(0.1 -0.1)">
       <use xlink:href="#ArialMT-48"/>
      </g>
     </g>
    </g>
    <g id="ytick_2">
     <g id="line2d_3">
      <path clip-path="url(#p0e5d2123d6)" d="M 60.05 231.616546 
L 565.2 231.616546 
" style="fill:none;stroke:#ffffff;stroke-linecap:round;"/>
     </g>
     <g id="line2d_4"/>
     <g id="text_2">
      <!-- 10 -->
      <defs>
       <path d="M 37.25 0 
L 28.46875 0 
L 28.46875 56 
Q 25.296875 52.984375 20.140625 49.953125 
Q 14.984375 46.921875 10.890625 45.40625 
L 10.890625 53.90625 
Q 18.265625 57.375 23.78125 62.296875 
Q 29.296875 67.234375 31.59375 71.875 
L 37.25 71.875 
z
" id="ArialMT-49"/>
      </defs>
      <g style="fill:#262626;" transform="translate(41.928125 235.195452)scale(0.1 -0.1)">
       <use xlink:href="#ArialMT-49"/>
       <use x="55.615234" xlink:href="#ArialMT-48"/>
      </g>
     </g>
    </g>
    <g id="ytick_3">
     <g id="line2d_5">
      <path clip-path="url(#p0e5d2123d6)" d="M 60.05 186.033092 
L 565.2 186.033092 
" style="fill:none;stroke:#ffffff;stroke-linecap:round;"/>
     </g>
     <g id="line2d_6"/>
     <g id="text_3">
      <!-- 20 -->
      <defs>
       <path d="M 50.34375 8.453125 
L 50.34375 0 
L 3.03125 0 
Q 2.9375 3.171875 4.046875 6.109375 
Q 5.859375 10.9375 9.828125 15.625 
Q 13.8125 20.3125 21.34375 26.46875 
Q 33.015625 36.03125 37.109375 41.625 
Q 41.21875 47.21875 41.21875 52.203125 
Q 41.21875 57.421875 37.46875 61 
Q 33.734375 64.59375 27.734375 64.59375 
Q 21.390625 64.59375 17.578125 60.78125 
Q 13.765625 56.984375 13.71875 50.25 
L 4.6875 51.171875 
Q 5.609375 61.28125 11.65625 66.578125 
Q 17.71875 71.875 27.9375 71.875 
Q 38.234375 71.875 44.234375 66.15625 
Q 50.25 60.453125 50.25 52 
Q 50.25 47.703125 48.484375 43.546875 
Q 46.734375 39.40625 42.65625 34.8125 
Q 38.578125 30.21875 29.109375 22.21875 
Q 21.1875 15.578125 18.9375 13.203125 
Q 16.703125 10.84375 15.234375 8.453125 
z
" id="ArialMT-50"/>
      </defs>
      <g style="fill:#262626;" transform="translate(41.928125 189.611998)scale(0.1 -0.1)">
       <use xlink:href="#ArialMT-50"/>
       <use x="55.615234" xlink:href="#ArialMT-48"/>
      </g>
     </g>
    </g>
    <g id="ytick_4">
     <g id="line2d_7">
      <path clip-path="url(#p0e5d2123d6)" d="M 60.05 140.449638 
L 565.2 140.449638 
" style="fill:none;stroke:#ffffff;stroke-linecap:round;"/>
     </g>
     <g id="line2d_8"/>
     <g id="text_4">
      <!-- 30 -->
      <defs>
       <path d="M 4.203125 18.890625 
L 12.984375 20.0625 
Q 14.5 12.59375 18.140625 9.296875 
Q 21.78125 6 27 6 
Q 33.203125 6 37.46875 10.296875 
Q 41.75 14.59375 41.75 20.953125 
Q 41.75 27 37.796875 30.921875 
Q 33.84375 34.859375 27.734375 34.859375 
Q 25.25 34.859375 21.53125 33.890625 
L 22.515625 41.609375 
Q 23.390625 41.5 23.921875 41.5 
Q 29.546875 41.5 34.03125 44.421875 
Q 38.53125 47.359375 38.53125 53.46875 
Q 38.53125 58.296875 35.25 61.46875 
Q 31.984375 64.65625 26.8125 64.65625 
Q 21.6875 64.65625 18.265625 61.421875 
Q 14.84375 58.203125 13.875 51.765625 
L 5.078125 53.328125 
Q 6.6875 62.15625 12.390625 67.015625 
Q 18.109375 71.875 26.609375 71.875 
Q 32.46875 71.875 37.390625 69.359375 
Q 42.328125 66.84375 44.9375 62.5 
Q 47.5625 58.15625 47.5625 53.265625 
Q 47.5625 48.640625 45.0625 44.828125 
Q 42.578125 41.015625 37.703125 38.765625 
Q 44.046875 37.3125 47.5625 32.6875 
Q 51.078125 28.078125 51.078125 21.140625 
Q 51.078125 11.765625 44.234375 5.25 
Q 37.40625 -1.265625 26.953125 -1.265625 
Q 17.53125 -1.265625 11.296875 4.34375 
Q 5.078125 9.96875 4.203125 18.890625 
z
" id="ArialMT-51"/>
      </defs>
      <g style="fill:#262626;" transform="translate(41.928125 144.028544)scale(0.1 -0.1)">
       <use xlink:href="#ArialMT-51"/>
       <use x="55.615234" xlink:href="#ArialMT-48"/>
      </g>
     </g>
    </g>
    <g id="ytick_5">
     <g id="line2d_9">
      <path clip-path="url(#p0e5d2123d6)" d="M 60.05 94.866184 
L 565.2 94.866184 
" style="fill:none;stroke:#ffffff;stroke-linecap:round;"/>
     </g>
     <g id="line2d_10"/>
     <g id="text_5">
      <!-- 40 -->
      <defs>
       <path d="M 32.328125 0 
L 32.328125 17.140625 
L 1.265625 17.140625 
L 1.265625 25.203125 
L 33.9375 71.578125 
L 41.109375 71.578125 
L 41.109375 25.203125 
L 50.78125 25.203125 
L 50.78125 17.140625 
L 41.109375 17.140625 
L 41.109375 0 
z
M 32.328125 25.203125 
L 32.328125 57.46875 
L 9.90625 25.203125 
z
" id="ArialMT-52"/>
      </defs>
      <g style="fill:#262626;" transform="translate(41.928125 98.44509)scale(0.1 -0.1)">
       <use xlink:href="#ArialMT-52"/>
       <use x="55.615234" xlink:href="#ArialMT-48"/>
      </g>
     </g>
    </g>
    <g id="ytick_6">
     <g id="line2d_11">
      <path clip-path="url(#p0e5d2123d6)" d="M 60.05 49.28273 
L 565.2 49.28273 
" style="fill:none;stroke:#ffffff;stroke-linecap:round;"/>
     </g>
     <g id="line2d_12"/>
     <g id="text_6">
      <!-- 50 -->
      <defs>
       <path d="M 4.15625 18.75 
L 13.375 19.53125 
Q 14.40625 12.796875 18.140625 9.390625 
Q 21.875 6 27.15625 6 
Q 33.5 6 37.890625 10.78125 
Q 42.28125 15.578125 42.28125 23.484375 
Q 42.28125 31 38.0625 35.34375 
Q 33.84375 39.703125 27 39.703125 
Q 22.75 39.703125 19.328125 37.765625 
Q 15.921875 35.84375 13.96875 32.765625 
L 5.71875 33.84375 
L 12.640625 70.609375 
L 48.25 70.609375 
L 48.25 62.203125 
L 19.671875 62.203125 
L 15.828125 42.96875 
Q 22.265625 47.46875 29.34375 47.46875 
Q 38.71875 47.46875 45.15625 40.96875 
Q 51.609375 34.46875 51.609375 24.265625 
Q 51.609375 14.546875 45.953125 7.46875 
Q 39.0625 -1.21875 27.15625 -1.21875 
Q 17.390625 -1.21875 11.203125 4.25 
Q 5.03125 9.71875 4.15625 18.75 
z
" id="ArialMT-53"/>
      </defs>
      <g style="fill:#262626;" transform="translate(41.928125 52.861636)scale(0.1 -0.1)">
       <use xlink:href="#ArialMT-53"/>
       <use x="55.615234" xlink:href="#ArialMT-48"/>
      </g>
     </g>
    </g>
    <g id="text_7">
     <!-- Mean rank -->
     <defs>
      <path d="M 7.421875 0 
L 7.421875 71.578125 
L 21.6875 71.578125 
L 38.625 20.90625 
Q 40.96875 13.8125 42.046875 10.296875 
Q 43.265625 14.203125 45.84375 21.78125 
L 62.984375 71.578125 
L 75.734375 71.578125 
L 75.734375 0 
L 66.609375 0 
L 66.609375 59.90625 
L 45.796875 0 
L 37.25 0 
L 16.546875 60.9375 
L 16.546875 0 
z
" id="ArialMT-77"/>
      <path d="M 42.09375 16.703125 
L 51.171875 15.578125 
Q 49.03125 7.625 43.21875 3.21875 
Q 37.40625 -1.171875 28.375 -1.171875 
Q 17 -1.171875 10.328125 5.828125 
Q 3.65625 12.84375 3.65625 25.484375 
Q 3.65625 38.578125 10.390625 45.796875 
Q 17.140625 53.03125 27.875 53.03125 
Q 38.28125 53.03125 44.875 45.953125 
Q 51.46875 38.875 51.46875 26.03125 
Q 51.46875 25.25 51.421875 23.6875 
L 12.75 23.6875 
Q 13.234375 15.140625 17.578125 10.59375 
Q 21.921875 6.0625 28.421875 6.0625 
Q 33.25 6.0625 36.671875 8.59375 
Q 40.09375 11.140625 42.09375 16.703125 
z
M 13.234375 30.90625 
L 42.1875 30.90625 
Q 41.609375 37.453125 38.875 40.71875 
Q 34.671875 45.796875 27.984375 45.796875 
Q 21.921875 45.796875 17.796875 41.75 
Q 13.671875 37.703125 13.234375 30.90625 
z
" id="ArialMT-101"/>
      <path d="M 40.4375 6.390625 
Q 35.546875 2.25 31.03125 0.53125 
Q 26.515625 -1.171875 21.34375 -1.171875 
Q 12.796875 -1.171875 8.203125 3 
Q 3.609375 7.171875 3.609375 13.671875 
Q 3.609375 17.484375 5.34375 20.625 
Q 7.078125 23.78125 9.890625 25.6875 
Q 12.703125 27.59375 16.21875 28.5625 
Q 18.796875 29.25 24.03125 29.890625 
Q 34.671875 31.15625 39.703125 32.90625 
Q 39.75 34.71875 39.75 35.203125 
Q 39.75 40.578125 37.25 42.78125 
Q 33.890625 45.75 27.25 45.75 
Q 21.046875 45.75 18.09375 43.578125 
Q 15.140625 41.40625 13.71875 35.890625 
L 5.125 37.0625 
Q 6.296875 42.578125 8.984375 45.96875 
Q 11.671875 49.359375 16.75 51.1875 
Q 21.828125 53.03125 28.515625 53.03125 
Q 35.15625 53.03125 39.296875 51.46875 
Q 43.453125 49.90625 45.40625 47.53125 
Q 47.359375 45.171875 48.140625 41.546875 
Q 48.578125 39.3125 48.578125 33.453125 
L 48.578125 21.734375 
Q 48.578125 9.46875 49.140625 6.21875 
Q 49.703125 2.984375 51.375 0 
L 42.1875 0 
Q 40.828125 2.734375 40.4375 6.390625 
z
M 39.703125 26.03125 
Q 34.90625 24.078125 25.34375 22.703125 
Q 19.921875 21.921875 17.671875 20.9375 
Q 15.4375 19.96875 14.203125 18.09375 
Q 12.984375 16.21875 12.984375 13.921875 
Q 12.984375 10.40625 15.640625 8.0625 
Q 18.3125 5.71875 23.4375 5.71875 
Q 28.515625 5.71875 32.46875 7.9375 
Q 36.421875 10.15625 38.28125 14.015625 
Q 39.703125 17 39.703125 22.796875 
z
" id="ArialMT-97"/>
      <path d="M 6.59375 0 
L 6.59375 51.859375 
L 14.5 51.859375 
L 14.5 44.484375 
Q 20.21875 53.03125 31 53.03125 
Q 35.6875 53.03125 39.625 51.34375 
Q 43.5625 49.65625 45.515625 46.921875 
Q 47.46875 44.1875 48.25 40.4375 
Q 48.734375 37.984375 48.734375 31.890625 
L 48.734375 0 
L 39.9375 0 
L 39.9375 31.546875 
Q 39.9375 36.921875 38.90625 39.578125 
Q 37.890625 42.234375 35.28125 43.8125 
Q 32.671875 45.40625 29.15625 45.40625 
Q 23.53125 45.40625 19.453125 41.84375 
Q 15.375 38.28125 15.375 28.328125 
L 15.375 0 
z
" id="ArialMT-110"/>
      <path id="ArialMT-32"/>
      <path d="M 6.5 0 
L 6.5 51.859375 
L 14.40625 51.859375 
L 14.40625 44 
Q 17.4375 49.515625 20 51.265625 
Q 22.5625 53.03125 25.640625 53.03125 
Q 30.078125 53.03125 34.671875 50.203125 
L 31.640625 42.046875 
Q 28.421875 43.953125 25.203125 43.953125 
Q 22.3125 43.953125 20.015625 42.21875 
Q 17.71875 40.484375 16.75 37.40625 
Q 15.28125 32.71875 15.28125 27.15625 
L 15.28125 0 
z
" id="ArialMT-114"/>
      <path d="M 6.640625 0 
L 6.640625 71.578125 
L 15.4375 71.578125 
L 15.4375 30.765625 
L 36.234375 51.859375 
L 47.609375 51.859375 
L 27.78125 32.625 
L 49.609375 0 
L 38.765625 0 
L 21.625 26.515625 
L 15.4375 20.5625 
L 15.4375 0 
z
" id="ArialMT-107"/>
     </defs>
     <g style="fill:#262626;" transform="translate(33.953125 191.242188)rotate(-90)scale(0.2 -0.2)">
      <use xlink:href="#ArialMT-77"/>
      <use x="83.300781" xlink:href="#ArialMT-101"/>
      <use x="138.916016" xlink:href="#ArialMT-97"/>
      <use x="194.53125" xlink:href="#ArialMT-110"/>
      <use x="250.146484" xlink:href="#ArialMT-32"/>
      <use x="277.929688" xlink:href="#ArialMT-114"/>
      <use x="311.230469" xlink:href="#ArialMT-97"/>
      <use x="366.845703" xlink:href="#ArialMT-110"/>
      <use x="422.460938" xlink:href="#ArialMT-107"/>
     </g>
    </g>
   </g>
   <g id="patch_3">
    <path clip-path="url(#p0e5d2123d6)" d="M 83.011364 277.2 
L 146.353056 277.2 
L 146.353056 149.193694 
L 83.011364 149.193694 
z
" style="fill:#4c72b0;"/>
   </g>
   <g id="patch_4">
    <path clip-path="url(#p0e5d2123d6)" d="M 162.18848 277.2 
L 225.530172 277.2 
L 225.530172 147.787953 
L 162.18848 147.787953 
z
" style="fill:#55a868;"/>
   </g>
   <g id="patch_5">
    <path clip-path="url(#p0e5d2123d6)" d="M 241.365596 277.2 
L 304.707288 277.2 
L 304.707288 35.456906 
L 241.365596 35.456906 
z
" style="fill:#c44e52;"/>
   </g>
   <g id="patch_6">
    <path clip-path="url(#p0e5d2123d6)" d="M 320.542712 277.2 
L 383.884404 277.2 
L 383.884404 121.359967 
L 320.542712 121.359967 
z
" style="fill:#8172b2;"/>
   </g>
   <g id="patch_7">
    <path clip-path="url(#p0e5d2123d6)" d="M 399.719828 277.2 
L 463.06152 277.2 
L 463.06152 118.030767 
L 399.719828 118.030767 
z
" style="fill:#ccb974;"/>
   </g>
   <g id="patch_8">
    <path clip-path="url(#p0e5d2123d6)" d="M 478.896944 277.2 
L 542.238636 277.2 
L 542.238636 79.919051 
L 478.896944 79.919051 
z
" style="fill:#64b5cd;"/>
   </g>
   <g id="LineCollection_1">
    <path clip-path="url(#p0e5d2123d6)" d="M 114.68221 155.257423 
L 114.68221 141.985117 
" style="fill:none;stroke:#000000;stroke-width:2;"/>
   </g>
   <g id="LineCollection_2">
    <path clip-path="url(#p0e5d2123d6)" d="M 193.859326 154.914177 
L 193.859326 139.961605 
" style="fill:none;stroke:#000000;stroke-width:2;"/>
   </g>
   <g id="LineCollection_3">
    <path clip-path="url(#p0e5d2123d6)" d="M 273.036442 47.971459 
L 273.036442 23.485714 
" style="fill:none;stroke:#000000;stroke-width:2;"/>
   </g>
   <g id="LineCollection_4">
    <path clip-path="url(#p0e5d2123d6)" d="M 352.213558 131.406687 
L 352.213558 112.56089 
" style="fill:none;stroke:#000000;stroke-width:2;"/>
   </g>
   <g id="LineCollection_5">
    <path clip-path="url(#p0e5d2123d6)" d="M 431.390674 126.260208 
L 431.390674 108.86178 
" style="fill:none;stroke:#000000;stroke-width:2;"/>
   </g>
   <g id="LineCollection_6">
    <path clip-path="url(#p0e5d2123d6)" d="M 510.56779 89.876441 
L 510.56779 68.20011 
" style="fill:none;stroke:#000000;stroke-width:2;"/>
   </g>
   <g id="line2d_13">
    <defs>
     <path d="M 3 0 
L -3 -0 
" id="m56c4a8869e" style="stroke:#000000;stroke-width:2;"/>
    </defs>
    <g clip-path="url(#p0e5d2123d6)">
     <use style="stroke:#000000;stroke-width:2;" x="114.68221" xlink:href="#m56c4a8869e" y="155.257423"/>
    </g>
   </g>
   <g id="line2d_14">
    <g clip-path="url(#p0e5d2123d6)">
     <use style="stroke:#000000;stroke-width:2;" x="114.68221" xlink:href="#m56c4a8869e" y="141.985117"/>
    </g>
   </g>
   <g id="line2d_15">
    <g clip-path="url(#p0e5d2123d6)">
     <use style="stroke:#000000;stroke-width:2;" x="193.859326" xlink:href="#m56c4a8869e" y="154.914177"/>
    </g>
   </g>
   <g id="line2d_16">
    <g clip-path="url(#p0e5d2123d6)">
     <use style="stroke:#000000;stroke-width:2;" x="193.859326" xlink:href="#m56c4a8869e" y="139.961605"/>
    </g>
   </g>
   <g id="line2d_17">
    <g clip-path="url(#p0e5d2123d6)">
     <use style="stroke:#000000;stroke-width:2;" x="273.036442" xlink:href="#m56c4a8869e" y="47.971459"/>
    </g>
   </g>
   <g id="line2d_18">
    <g clip-path="url(#p0e5d2123d6)">
     <use style="stroke:#000000;stroke-width:2;" x="273.036442" xlink:href="#m56c4a8869e" y="23.485714"/>
    </g>
   </g>
   <g id="line2d_19">
    <g clip-path="url(#p0e5d2123d6)">
     <use style="stroke:#000000;stroke-width:2;" x="352.213558" xlink:href="#m56c4a8869e" y="131.406687"/>
    </g>
   </g>
   <g id="line2d_20">
    <g clip-path="url(#p0e5d2123d6)">
     <use style="stroke:#000000;stroke-width:2;" x="352.213558" xlink:href="#m56c4a8869e" y="112.56089"/>
    </g>
   </g>
   <g id="line2d_21">
    <g clip-path="url(#p0e5d2123d6)">
     <use style="stroke:#000000;stroke-width:2;" x="431.390674" xlink:href="#m56c4a8869e" y="126.260208"/>
    </g>
   </g>
   <g id="line2d_22">
    <g clip-path="url(#p0e5d2123d6)">
     <use style="stroke:#000000;stroke-width:2;" x="431.390674" xlink:href="#m56c4a8869e" y="108.86178"/>
    </g>
   </g>
   <g id="line2d_23">
    <g clip-path="url(#p0e5d2123d6)">
     <use style="stroke:#000000;stroke-width:2;" x="510.56779" xlink:href="#m56c4a8869e" y="89.876441"/>
    </g>
   </g>
   <g id="line2d_24">
    <g clip-path="url(#p0e5d2123d6)">
     <use style="stroke:#000000;stroke-width:2;" x="510.56779" xlink:href="#m56c4a8869e" y="68.20011"/>
    </g>
   </g>
   <g id="line2d_25">
    <path clip-path="url(#p0e5d2123d6)" d="M 114.68221 149.193694 
" style="fill:none;stroke:#000000;stroke-linecap:round;stroke-width:1.75;"/>
   </g>
   <g id="line2d_26">
    <path clip-path="url(#p0e5d2123d6)" d="M 193.859326 147.787953 
" style="fill:none;stroke:#000000;stroke-linecap:round;stroke-width:1.75;"/>
   </g>
   <g id="line2d_27">
    <path clip-path="url(#p0e5d2123d6)" d="M 273.036442 35.456906 
" style="fill:none;stroke:#000000;stroke-linecap:round;stroke-width:1.75;"/>
   </g>
   <g id="line2d_28">
    <path clip-path="url(#p0e5d2123d6)" d="M 352.213558 121.359967 
" style="fill:none;stroke:#000000;stroke-linecap:round;stroke-width:1.75;"/>
   </g>
   <g id="line2d_29">
    <path clip-path="url(#p0e5d2123d6)" d="M 431.390674 118.030767 
" style="fill:none;stroke:#000000;stroke-linecap:round;stroke-width:1.75;"/>
   </g>
   <g id="line2d_30">
    <path clip-path="url(#p0e5d2123d6)" d="M 510.56779 79.919051 
" style="fill:none;stroke:#000000;stroke-linecap:round;stroke-width:1.75;"/>
   </g>
   <g id="patch_9">
    <path d="M 60.05 277.2 
L 60.05 10.8 
" style="fill:none;"/>
   </g>
   <g id="patch_10">
    <path d="M 565.2 277.2 
L 565.2 10.8 
" style="fill:none;"/>
   </g>
   <g id="patch_11">
    <path d="M 60.05 277.2 
L 565.2 277.2 
" style="fill:none;"/>
   </g>
   <g id="patch_12">
    <path d="M 60.05 10.8 
L 565.2 10.8 
" style="fill:none;"/>
   </g>
   <g id="legend_1">
    <g id="patch_13">
     <path d="M 321.896875 32.957813 
L 341.896875 32.957813 
L 341.896875 25.957813 
L 321.896875 25.957813 
z
" style="fill:#4c72b0;"/>
    </g>
    <g id="text_8">
     <!-- geometric_avg -->
     <defs>
      <path d="M 4.984375 -4.296875 
L 13.53125 -5.5625 
Q 14.0625 -9.515625 16.5 -11.328125 
Q 19.78125 -13.765625 25.4375 -13.765625 
Q 31.546875 -13.765625 34.859375 -11.328125 
Q 38.1875 -8.890625 39.359375 -4.5 
Q 40.046875 -1.8125 39.984375 6.78125 
Q 34.234375 0 25.640625 0 
Q 14.9375 0 9.078125 7.71875 
Q 3.21875 15.4375 3.21875 26.21875 
Q 3.21875 33.640625 5.90625 39.90625 
Q 8.59375 46.1875 13.6875 49.609375 
Q 18.796875 53.03125 25.6875 53.03125 
Q 34.859375 53.03125 40.828125 45.609375 
L 40.828125 51.859375 
L 48.921875 51.859375 
L 48.921875 7.03125 
Q 48.921875 -5.078125 46.453125 -10.125 
Q 44 -15.1875 38.640625 -18.109375 
Q 33.296875 -21.046875 25.484375 -21.046875 
Q 16.21875 -21.046875 10.5 -16.875 
Q 4.78125 -12.703125 4.984375 -4.296875 
z
M 12.25 26.859375 
Q 12.25 16.65625 16.296875 11.96875 
Q 20.359375 7.28125 26.46875 7.28125 
Q 32.515625 7.28125 36.609375 11.9375 
Q 40.71875 16.609375 40.71875 26.5625 
Q 40.71875 36.078125 36.5 40.90625 
Q 32.28125 45.75 26.3125 45.75 
Q 20.453125 45.75 16.34375 40.984375 
Q 12.25 36.234375 12.25 26.859375 
z
" id="ArialMT-103"/>
      <path d="M 3.328125 25.921875 
Q 3.328125 40.328125 11.328125 47.265625 
Q 18.015625 53.03125 27.640625 53.03125 
Q 38.328125 53.03125 45.109375 46.015625 
Q 51.90625 39.015625 51.90625 26.65625 
Q 51.90625 16.65625 48.90625 10.90625 
Q 45.90625 5.171875 40.15625 2 
Q 34.421875 -1.171875 27.640625 -1.171875 
Q 16.75 -1.171875 10.03125 5.8125 
Q 3.328125 12.796875 3.328125 25.921875 
z
M 12.359375 25.921875 
Q 12.359375 15.96875 16.703125 11.015625 
Q 21.046875 6.0625 27.640625 6.0625 
Q 34.1875 6.0625 38.53125 11.03125 
Q 42.875 16.015625 42.875 26.21875 
Q 42.875 35.84375 38.5 40.796875 
Q 34.125 45.75 27.640625 45.75 
Q 21.046875 45.75 16.703125 40.8125 
Q 12.359375 35.890625 12.359375 25.921875 
z
" id="ArialMT-111"/>
      <path d="M 6.59375 0 
L 6.59375 51.859375 
L 14.453125 51.859375 
L 14.453125 44.578125 
Q 16.890625 48.390625 20.9375 50.703125 
Q 25 53.03125 30.171875 53.03125 
Q 35.9375 53.03125 39.625 50.640625 
Q 43.3125 48.25 44.828125 43.953125 
Q 50.984375 53.03125 60.84375 53.03125 
Q 68.5625 53.03125 72.703125 48.75 
Q 76.859375 44.484375 76.859375 35.59375 
L 76.859375 0 
L 68.109375 0 
L 68.109375 32.671875 
Q 68.109375 37.9375 67.25 40.25 
Q 66.40625 42.578125 64.15625 43.984375 
Q 61.921875 45.40625 58.890625 45.40625 
Q 53.421875 45.40625 49.796875 41.765625 
Q 46.1875 38.140625 46.1875 30.125 
L 46.1875 0 
L 37.40625 0 
L 37.40625 33.6875 
Q 37.40625 39.546875 35.25 42.46875 
Q 33.109375 45.40625 28.21875 45.40625 
Q 24.515625 45.40625 21.359375 43.453125 
Q 18.21875 41.5 16.796875 37.734375 
Q 15.375 33.984375 15.375 26.90625 
L 15.375 0 
z
" id="ArialMT-109"/>
      <path d="M 25.78125 7.859375 
L 27.046875 0.09375 
Q 23.34375 -0.6875 20.40625 -0.6875 
Q 15.625 -0.6875 12.984375 0.828125 
Q 10.359375 2.34375 9.28125 4.8125 
Q 8.203125 7.28125 8.203125 15.1875 
L 8.203125 45.015625 
L 1.765625 45.015625 
L 1.765625 51.859375 
L 8.203125 51.859375 
L 8.203125 64.703125 
L 16.9375 69.96875 
L 16.9375 51.859375 
L 25.78125 51.859375 
L 25.78125 45.015625 
L 16.9375 45.015625 
L 16.9375 14.703125 
Q 16.9375 10.9375 17.40625 9.859375 
Q 17.875 8.796875 18.921875 8.15625 
Q 19.96875 7.515625 21.921875 7.515625 
Q 23.390625 7.515625 25.78125 7.859375 
z
" id="ArialMT-116"/>
      <path d="M 6.640625 61.46875 
L 6.640625 71.578125 
L 15.4375 71.578125 
L 15.4375 61.46875 
z
M 6.640625 0 
L 6.640625 51.859375 
L 15.4375 51.859375 
L 15.4375 0 
z
" id="ArialMT-105"/>
      <path d="M 40.4375 19 
L 49.078125 17.875 
Q 47.65625 8.9375 41.8125 3.875 
Q 35.984375 -1.171875 27.484375 -1.171875 
Q 16.84375 -1.171875 10.375 5.78125 
Q 3.90625 12.75 3.90625 25.734375 
Q 3.90625 34.125 6.6875 40.421875 
Q 9.46875 46.734375 15.15625 49.875 
Q 20.84375 53.03125 27.546875 53.03125 
Q 35.984375 53.03125 41.359375 48.75 
Q 46.734375 44.484375 48.25 36.625 
L 39.703125 35.296875 
Q 38.484375 40.53125 35.375 43.15625 
Q 32.28125 45.796875 27.875 45.796875 
Q 21.234375 45.796875 17.078125 41.03125 
Q 12.9375 36.28125 12.9375 25.984375 
Q 12.9375 15.53125 16.9375 10.796875 
Q 20.953125 6.0625 27.390625 6.0625 
Q 32.5625 6.0625 36.03125 9.234375 
Q 39.5 12.40625 40.4375 19 
z
" id="ArialMT-99"/>
      <path d="M -1.515625 -19.875 
L -1.515625 -13.53125 
L 56.734375 -13.53125 
L 56.734375 -19.875 
z
" id="ArialMT-95"/>
      <path d="M 21 0 
L 1.265625 51.859375 
L 10.546875 51.859375 
L 21.6875 20.796875 
Q 23.484375 15.765625 25 10.359375 
Q 26.171875 14.453125 28.265625 20.21875 
L 39.796875 51.859375 
L 48.828125 51.859375 
L 29.203125 0 
z
" id="ArialMT-118"/>
     </defs>
     <g style="fill:#262626;" transform="translate(349.896875 32.957813)scale(0.1 -0.1)">
      <use xlink:href="#ArialMT-103"/>
      <use x="55.615234" xlink:href="#ArialMT-101"/>
      <use x="111.230469" xlink:href="#ArialMT-111"/>
      <use x="166.845703" xlink:href="#ArialMT-109"/>
      <use x="250.146484" xlink:href="#ArialMT-101"/>
      <use x="305.761719" xlink:href="#ArialMT-116"/>
      <use x="333.544922" xlink:href="#ArialMT-114"/>
      <use x="366.845703" xlink:href="#ArialMT-105"/>
      <use x="389.0625" xlink:href="#ArialMT-99"/>
      <use x="439.0625" xlink:href="#ArialMT-95"/>
      <use x="494.677734" xlink:href="#ArialMT-97"/>
      <use x="550.292969" xlink:href="#ArialMT-118"/>
      <use x="600.292969" xlink:href="#ArialMT-103"/>
     </g>
    </g>
    <g id="patch_14">
     <path d="M 321.896875 47.220313 
L 341.896875 47.220313 
L 341.896875 40.220313 
L 321.896875 40.220313 
z
" style="fill:#55a868;"/>
    </g>
    <g id="text_9">
     <!-- label_correlation -->
     <defs>
      <path d="M 6.390625 0 
L 6.390625 71.578125 
L 15.1875 71.578125 
L 15.1875 0 
z
" id="ArialMT-108"/>
      <path d="M 14.703125 0 
L 6.546875 0 
L 6.546875 71.578125 
L 15.328125 71.578125 
L 15.328125 46.046875 
Q 20.90625 53.03125 29.546875 53.03125 
Q 34.328125 53.03125 38.59375 51.09375 
Q 42.875 49.171875 45.625 45.671875 
Q 48.390625 42.1875 49.953125 37.25 
Q 51.515625 32.328125 51.515625 26.703125 
Q 51.515625 13.375 44.921875 6.09375 
Q 38.328125 -1.171875 29.109375 -1.171875 
Q 19.921875 -1.171875 14.703125 6.5 
z
M 14.59375 26.3125 
Q 14.59375 17 17.140625 12.84375 
Q 21.296875 6.0625 28.375 6.0625 
Q 34.125 6.0625 38.328125 11.0625 
Q 42.53125 16.0625 42.53125 25.984375 
Q 42.53125 36.140625 38.5 40.96875 
Q 34.46875 45.796875 28.765625 45.796875 
Q 23 45.796875 18.796875 40.796875 
Q 14.59375 35.796875 14.59375 26.3125 
z
" id="ArialMT-98"/>
     </defs>
     <g style="fill:#262626;" transform="translate(349.896875 47.220313)scale(0.1 -0.1)">
      <use xlink:href="#ArialMT-108"/>
      <use x="22.216797" xlink:href="#ArialMT-97"/>
      <use x="77.832031" xlink:href="#ArialMT-98"/>
      <use x="133.447266" xlink:href="#ArialMT-101"/>
      <use x="189.0625" xlink:href="#ArialMT-108"/>
      <use x="211.279297" xlink:href="#ArialMT-95"/>
      <use x="266.894531" xlink:href="#ArialMT-99"/>
      <use x="316.894531" xlink:href="#ArialMT-111"/>
      <use x="372.509766" xlink:href="#ArialMT-114"/>
      <use x="405.810547" xlink:href="#ArialMT-114"/>
      <use x="439.111328" xlink:href="#ArialMT-101"/>
      <use x="494.726562" xlink:href="#ArialMT-108"/>
      <use x="516.943359" xlink:href="#ArialMT-97"/>
      <use x="572.558594" xlink:href="#ArialMT-116"/>
      <use x="600.341797" xlink:href="#ArialMT-105"/>
      <use x="622.558594" xlink:href="#ArialMT-111"/>
      <use x="678.173828" xlink:href="#ArialMT-110"/>
     </g>
    </g>
    <g id="patch_15">
     <path d="M 321.896875 61.365625 
L 341.896875 61.365625 
L 341.896875 54.365625 
L 321.896875 54.365625 
z
" style="fill:#c44e52;"/>
    </g>
    <g id="text_10">
     <!-- hpo_implicit_als -->
     <defs>
      <path d="M 6.59375 0 
L 6.59375 71.578125 
L 15.375 71.578125 
L 15.375 45.90625 
Q 21.53125 53.03125 30.90625 53.03125 
Q 36.671875 53.03125 40.921875 50.75 
Q 45.171875 48.484375 47 44.484375 
Q 48.828125 40.484375 48.828125 32.859375 
L 48.828125 0 
L 40.046875 0 
L 40.046875 32.859375 
Q 40.046875 39.453125 37.1875 42.453125 
Q 34.328125 45.453125 29.109375 45.453125 
Q 25.203125 45.453125 21.75 43.421875 
Q 18.3125 41.40625 16.84375 37.9375 
Q 15.375 34.46875 15.375 28.375 
L 15.375 0 
z
" id="ArialMT-104"/>
      <path d="M 6.59375 -19.875 
L 6.59375 51.859375 
L 14.59375 51.859375 
L 14.59375 45.125 
Q 17.4375 49.078125 21 51.046875 
Q 24.5625 53.03125 29.640625 53.03125 
Q 36.28125 53.03125 41.359375 49.609375 
Q 46.4375 46.1875 49.015625 39.953125 
Q 51.609375 33.734375 51.609375 26.3125 
Q 51.609375 18.359375 48.75 11.984375 
Q 45.90625 5.609375 40.453125 2.21875 
Q 35.015625 -1.171875 29 -1.171875 
Q 24.609375 -1.171875 21.109375 0.6875 
Q 17.625 2.546875 15.375 5.375 
L 15.375 -19.875 
z
M 14.546875 25.640625 
Q 14.546875 15.625 18.59375 10.84375 
Q 22.65625 6.0625 28.421875 6.0625 
Q 34.28125 6.0625 38.453125 11.015625 
Q 42.625 15.96875 42.625 26.375 
Q 42.625 36.28125 38.546875 41.203125 
Q 34.46875 46.140625 28.8125 46.140625 
Q 23.1875 46.140625 18.859375 40.890625 
Q 14.546875 35.640625 14.546875 25.640625 
z
" id="ArialMT-112"/>
      <path d="M 3.078125 15.484375 
L 11.765625 16.84375 
Q 12.5 11.625 15.84375 8.84375 
Q 19.1875 6.0625 25.203125 6.0625 
Q 31.25 6.0625 34.171875 8.515625 
Q 37.109375 10.984375 37.109375 14.3125 
Q 37.109375 17.28125 34.515625 19 
Q 32.71875 20.171875 25.53125 21.96875 
Q 15.875 24.421875 12.140625 26.203125 
Q 8.40625 27.984375 6.46875 31.125 
Q 4.546875 34.28125 4.546875 38.09375 
Q 4.546875 41.546875 6.125 44.5 
Q 7.71875 47.46875 10.453125 49.421875 
Q 12.5 50.921875 16.03125 51.96875 
Q 19.578125 53.03125 23.640625 53.03125 
Q 29.734375 53.03125 34.34375 51.265625 
Q 38.96875 49.515625 41.15625 46.5 
Q 43.359375 43.5 44.1875 38.484375 
L 35.59375 37.3125 
Q 35.015625 41.3125 32.203125 43.546875 
Q 29.390625 45.796875 24.265625 45.796875 
Q 18.21875 45.796875 15.625 43.796875 
Q 13.03125 41.796875 13.03125 39.109375 
Q 13.03125 37.40625 14.109375 36.03125 
Q 15.1875 34.625 17.484375 33.6875 
Q 18.796875 33.203125 25.25 31.453125 
Q 34.578125 28.953125 38.25 27.359375 
Q 41.9375 25.78125 44.03125 22.75 
Q 46.140625 19.734375 46.140625 15.234375 
Q 46.140625 10.84375 43.578125 6.953125 
Q 41.015625 3.078125 36.171875 0.953125 
Q 31.34375 -1.171875 25.25 -1.171875 
Q 15.140625 -1.171875 9.84375 3.03125 
Q 4.546875 7.234375 3.078125 15.484375 
z
" id="ArialMT-115"/>
     </defs>
     <g style="fill:#262626;" transform="translate(349.896875 61.365625)scale(0.1 -0.1)">
      <use xlink:href="#ArialMT-104"/>
      <use x="55.615234" xlink:href="#ArialMT-112"/>
      <use x="111.230469" xlink:href="#ArialMT-111"/>
      <use x="166.845703" xlink:href="#ArialMT-95"/>
      <use x="222.460938" xlink:href="#ArialMT-105"/>
      <use x="244.677734" xlink:href="#ArialMT-109"/>
      <use x="327.978516" xlink:href="#ArialMT-112"/>
      <use x="383.59375" xlink:href="#ArialMT-108"/>
      <use x="405.810547" xlink:href="#ArialMT-105"/>
      <use x="428.027344" xlink:href="#ArialMT-99"/>
      <use x="478.027344" xlink:href="#ArialMT-105"/>
      <use x="500.244141" xlink:href="#ArialMT-116"/>
      <use x="528.027344" xlink:href="#ArialMT-95"/>
      <use x="583.642578" xlink:href="#ArialMT-97"/>
      <use x="639.257812" xlink:href="#ArialMT-108"/>
      <use x="661.474609" xlink:href="#ArialMT-115"/>
     </g>
    </g>
    <g id="patch_16">
     <path d="M 443.270312 32.957813 
L 463.270312 32.957813 
L 463.270312 25.957813 
L 443.270312 25.957813 
z
" style="fill:#8172b2;"/>
    </g>
    <g id="text_11">
     <!-- hpo_implicit_bpr -->
     <g style="fill:#262626;" transform="translate(471.270312 32.957813)scale(0.1 -0.1)">
      <use xlink:href="#ArialMT-104"/>
      <use x="55.615234" xlink:href="#ArialMT-112"/>
      <use x="111.230469" xlink:href="#ArialMT-111"/>
      <use x="166.845703" xlink:href="#ArialMT-95"/>
      <use x="222.460938" xlink:href="#ArialMT-105"/>
      <use x="244.677734" xlink:href="#ArialMT-109"/>
      <use x="327.978516" xlink:href="#ArialMT-112"/>
      <use x="383.59375" xlink:href="#ArialMT-108"/>
      <use x="405.810547" xlink:href="#ArialMT-105"/>
      <use x="428.027344" xlink:href="#ArialMT-99"/>
      <use x="478.027344" xlink:href="#ArialMT-105"/>
      <use x="500.244141" xlink:href="#ArialMT-116"/>
      <use x="528.027344" xlink:href="#ArialMT-95"/>
      <use x="583.642578" xlink:href="#ArialMT-98"/>
      <use x="639.257812" xlink:href="#ArialMT-112"/>
      <use x="694.873047" xlink:href="#ArialMT-114"/>
     </g>
    </g>
    <g id="patch_17">
     <path d="M 443.270312 47.225 
L 463.270312 47.225 
L 463.270312 40.225 
L 443.270312 40.225 
z
" style="fill:#ccb974;"/>
    </g>
    <g id="text_12">
     <!-- hpo_lightfm_warp -->
     <defs>
      <path d="M 8.6875 0 
L 8.6875 45.015625 
L 0.921875 45.015625 
L 0.921875 51.859375 
L 8.6875 51.859375 
L 8.6875 57.375 
Q 8.6875 62.59375 9.625 65.140625 
Q 10.890625 68.5625 14.078125 70.671875 
Q 17.28125 72.796875 23.046875 72.796875 
Q 26.765625 72.796875 31.25 71.921875 
L 29.9375 64.265625 
Q 27.203125 64.75 24.75 64.75 
Q 20.75 64.75 19.09375 63.03125 
Q 17.4375 61.328125 17.4375 56.640625 
L 17.4375 51.859375 
L 27.546875 51.859375 
L 27.546875 45.015625 
L 17.4375 45.015625 
L 17.4375 0 
z
" id="ArialMT-102"/>
      <path d="M 16.15625 0 
L 0.296875 51.859375 
L 9.375 51.859375 
L 17.625 21.921875 
L 20.703125 10.796875 
Q 20.90625 11.625 23.390625 21.484375 
L 31.640625 51.859375 
L 40.671875 51.859375 
L 48.4375 21.78125 
L 51.03125 11.859375 
L 54 21.875 
L 62.890625 51.859375 
L 71.4375 51.859375 
L 55.21875 0 
L 46.09375 0 
L 37.84375 31.0625 
L 35.84375 39.890625 
L 25.34375 0 
z
" id="ArialMT-119"/>
     </defs>
     <g style="fill:#262626;" transform="translate(471.270312 47.225)scale(0.1 -0.1)">
      <use xlink:href="#ArialMT-104"/>
      <use x="55.615234" xlink:href="#ArialMT-112"/>
      <use x="111.230469" xlink:href="#ArialMT-111"/>
      <use x="166.845703" xlink:href="#ArialMT-95"/>
      <use x="222.460938" xlink:href="#ArialMT-108"/>
      <use x="244.677734" xlink:href="#ArialMT-105"/>
      <use x="266.894531" xlink:href="#ArialMT-103"/>
      <use x="322.509766" xlink:href="#ArialMT-104"/>
      <use x="378.125" xlink:href="#ArialMT-116"/>
      <use x="405.908203" xlink:href="#ArialMT-102"/>
      <use x="433.691406" xlink:href="#ArialMT-109"/>
      <use x="516.992188" xlink:href="#ArialMT-95"/>
      <use x="572.607422" xlink:href="#ArialMT-119"/>
      <use x="644.824219" xlink:href="#ArialMT-97"/>
      <use x="700.439453" xlink:href="#ArialMT-114"/>
      <use x="733.740234" xlink:href="#ArialMT-112"/>
     </g>
    </g>
    <g id="patch_18">
     <path d="M 443.270312 61.609375 
L 463.270312 61.609375 
L 463.270312 54.609375 
L 443.270312 54.609375 
z
" style="fill:#64b5cd;"/>
    </g>
    <g id="text_13">
     <!-- hpo_lightfm_bpr -->
     <g style="fill:#262626;" transform="translate(471.270312 61.609375)scale(0.1 -0.1)">
      <use xlink:href="#ArialMT-104"/>
      <use x="55.615234" xlink:href="#ArialMT-112"/>
      <use x="111.230469" xlink:href="#ArialMT-111"/>
      <use x="166.845703" xlink:href="#ArialMT-95"/>
      <use x="222.460938" xlink:href="#ArialMT-108"/>
      <use x="244.677734" xlink:href="#ArialMT-105"/>
      <use x="266.894531" xlink:href="#ArialMT-103"/>
      <use x="322.509766" xlink:href="#ArialMT-104"/>
      <use x="378.125" xlink:href="#ArialMT-116"/>
      <use x="405.908203" xlink:href="#ArialMT-102"/>
      <use x="433.691406" xlink:href="#ArialMT-109"/>
      <use x="516.992188" xlink:href="#ArialMT-95"/>
      <use x="572.607422" xlink:href="#ArialMT-98"/>
      <use x="628.222656" xlink:href="#ArialMT-112"/>
      <use x="683.837891" xlink:href="#ArialMT-114"/>
     </g>
    </g>
   </g>
  </g>
  <g id="axes_2">
   <g id="patch_19">
    <path d="M 60.05 559.8 
L 565.2 559.8 
L 565.2 293.4 
L 60.05 293.4 
z
" style="fill:#eaeaf2;"/>
   </g>
   <g id="matplotlib.axis_3"/>
   <g id="matplotlib.axis_4">
    <g id="ytick_7">
     <g id="line2d_31">
      <path clip-path="url(#p5efdb3180f)" d="M 60.05 559.8 
L 565.2 559.8 
" style="fill:none;stroke:#ffffff;stroke-linecap:round;"/>
     </g>
     <g id="line2d_32"/>
     <g id="text_14">
      <!-- 0.0 -->
      <defs>
       <path d="M 9.078125 0 
L 9.078125 10.015625 
L 19.09375 10.015625 
L 19.09375 0 
z
" id="ArialMT-46"/>
      </defs>
      <g style="fill:#262626;" transform="translate(39.15 563.378906)scale(0.1 -0.1)">
       <use xlink:href="#ArialMT-48"/>
       <use x="55.615234" xlink:href="#ArialMT-46"/>
       <use x="83.398438" xlink:href="#ArialMT-48"/>
      </g>
     </g>
    </g>
    <g id="ytick_8">
     <g id="line2d_33">
      <path clip-path="url(#p5efdb3180f)" d="M 60.05 524.118292 
L 565.2 524.118292 
" style="fill:none;stroke:#ffffff;stroke-linecap:round;"/>
     </g>
     <g id="line2d_34"/>
     <g id="text_15">
      <!-- 2.5 -->
      <g style="fill:#262626;" transform="translate(39.15 527.697198)scale(0.1 -0.1)">
       <use xlink:href="#ArialMT-50"/>
       <use x="55.615234" xlink:href="#ArialMT-46"/>
       <use x="83.398438" xlink:href="#ArialMT-53"/>
      </g>
     </g>
    </g>
    <g id="ytick_9">
     <g id="line2d_35">
      <path clip-path="url(#p5efdb3180f)" d="M 60.05 488.436584 
L 565.2 488.436584 
" style="fill:none;stroke:#ffffff;stroke-linecap:round;"/>
     </g>
     <g id="line2d_36"/>
     <g id="text_16">
      <!-- 5.0 -->
      <g style="fill:#262626;" transform="translate(39.15 492.01549)scale(0.1 -0.1)">
       <use xlink:href="#ArialMT-53"/>
       <use x="55.615234" xlink:href="#ArialMT-46"/>
       <use x="83.398438" xlink:href="#ArialMT-48"/>
      </g>
     </g>
    </g>
    <g id="ytick_10">
     <g id="line2d_37">
      <path clip-path="url(#p5efdb3180f)" d="M 60.05 452.754876 
L 565.2 452.754876 
" style="fill:none;stroke:#ffffff;stroke-linecap:round;"/>
     </g>
     <g id="line2d_38"/>
     <g id="text_17">
      <!-- 7.5 -->
      <defs>
       <path d="M 4.734375 62.203125 
L 4.734375 70.65625 
L 51.078125 70.65625 
L 51.078125 63.8125 
Q 44.234375 56.546875 37.515625 44.484375 
Q 30.8125 32.421875 27.15625 19.671875 
Q 24.515625 10.6875 23.78125 0 
L 14.75 0 
Q 14.890625 8.453125 18.0625 20.40625 
Q 21.234375 32.375 27.171875 43.484375 
Q 33.109375 54.59375 39.796875 62.203125 
z
" id="ArialMT-55"/>
      </defs>
      <g style="fill:#262626;" transform="translate(39.15 456.333782)scale(0.1 -0.1)">
       <use xlink:href="#ArialMT-55"/>
       <use x="55.615234" xlink:href="#ArialMT-46"/>
       <use x="83.398438" xlink:href="#ArialMT-53"/>
      </g>
     </g>
    </g>
    <g id="ytick_11">
     <g id="line2d_39">
      <path clip-path="url(#p5efdb3180f)" d="M 60.05 417.073168 
L 565.2 417.073168 
" style="fill:none;stroke:#ffffff;stroke-linecap:round;"/>
     </g>
     <g id="line2d_40"/>
     <g id="text_18">
      <!-- 10.0 -->
      <g style="fill:#262626;" transform="translate(33.589063 420.652075)scale(0.1 -0.1)">
       <use xlink:href="#ArialMT-49"/>
       <use x="55.615234" xlink:href="#ArialMT-48"/>
       <use x="111.230469" xlink:href="#ArialMT-46"/>
       <use x="139.013672" xlink:href="#ArialMT-48"/>
      </g>
     </g>
    </g>
    <g id="ytick_12">
     <g id="line2d_41">
      <path clip-path="url(#p5efdb3180f)" d="M 60.05 381.39146 
L 565.2 381.39146 
" style="fill:none;stroke:#ffffff;stroke-linecap:round;"/>
     </g>
     <g id="line2d_42"/>
     <g id="text_19">
      <!-- 12.5 -->
      <g style="fill:#262626;" transform="translate(33.589063 384.970367)scale(0.1 -0.1)">
       <use xlink:href="#ArialMT-49"/>
       <use x="55.615234" xlink:href="#ArialMT-50"/>
       <use x="111.230469" xlink:href="#ArialMT-46"/>
       <use x="139.013672" xlink:href="#ArialMT-53"/>
      </g>
     </g>
    </g>
    <g id="ytick_13">
     <g id="line2d_43">
      <path clip-path="url(#p5efdb3180f)" d="M 60.05 345.709752 
L 565.2 345.709752 
" style="fill:none;stroke:#ffffff;stroke-linecap:round;"/>
     </g>
     <g id="line2d_44"/>
     <g id="text_20">
      <!-- 15.0 -->
      <g style="fill:#262626;" transform="translate(33.589063 349.288659)scale(0.1 -0.1)">
       <use xlink:href="#ArialMT-49"/>
       <use x="55.615234" xlink:href="#ArialMT-53"/>
       <use x="111.230469" xlink:href="#ArialMT-46"/>
       <use x="139.013672" xlink:href="#ArialMT-48"/>
      </g>
     </g>
    </g>
    <g id="ytick_14">
     <g id="line2d_45">
      <path clip-path="url(#p5efdb3180f)" d="M 60.05 310.028045 
L 565.2 310.028045 
" style="fill:none;stroke:#ffffff;stroke-linecap:round;"/>
     </g>
     <g id="line2d_46"/>
     <g id="text_21">
      <!-- 17.5 -->
      <g style="fill:#262626;" transform="translate(33.589063 313.606951)scale(0.1 -0.1)">
       <use xlink:href="#ArialMT-49"/>
       <use x="55.615234" xlink:href="#ArialMT-55"/>
       <use x="111.230469" xlink:href="#ArialMT-46"/>
       <use x="139.013672" xlink:href="#ArialMT-53"/>
      </g>
     </g>
    </g>
    <g id="text_22">
     <!-- Median rank -->
     <defs>
      <path d="M 40.234375 0 
L 40.234375 6.546875 
Q 35.296875 -1.171875 25.734375 -1.171875 
Q 19.53125 -1.171875 14.328125 2.25 
Q 9.125 5.671875 6.265625 11.796875 
Q 3.421875 17.921875 3.421875 25.875 
Q 3.421875 33.640625 6 39.96875 
Q 8.59375 46.296875 13.765625 49.65625 
Q 18.953125 53.03125 25.34375 53.03125 
Q 30.03125 53.03125 33.6875 51.046875 
Q 37.359375 49.078125 39.65625 45.90625 
L 39.65625 71.578125 
L 48.390625 71.578125 
L 48.390625 0 
z
M 12.453125 25.875 
Q 12.453125 15.921875 16.640625 10.984375 
Q 20.84375 6.0625 26.5625 6.0625 
Q 32.328125 6.0625 36.34375 10.765625 
Q 40.375 15.484375 40.375 25.140625 
Q 40.375 35.796875 36.265625 40.765625 
Q 32.171875 45.75 26.171875 45.75 
Q 20.3125 45.75 16.375 40.96875 
Q 12.453125 36.1875 12.453125 25.875 
z
" id="ArialMT-100"/>
     </defs>
     <g style="fill:#262626;" transform="translate(25.614063 481.625)rotate(-90)scale(0.2 -0.2)">
      <use xlink:href="#ArialMT-77"/>
      <use x="83.300781" xlink:href="#ArialMT-101"/>
      <use x="138.916016" xlink:href="#ArialMT-100"/>
      <use x="194.53125" xlink:href="#ArialMT-105"/>
      <use x="216.748047" xlink:href="#ArialMT-97"/>
      <use x="272.363281" xlink:href="#ArialMT-110"/>
      <use x="327.978516" xlink:href="#ArialMT-32"/>
      <use x="355.761719" xlink:href="#ArialMT-114"/>
      <use x="389.0625" xlink:href="#ArialMT-97"/>
      <use x="444.677734" xlink:href="#ArialMT-110"/>
      <use x="500.292969" xlink:href="#ArialMT-107"/>
     </g>
    </g>
   </g>
   <g id="patch_20">
    <path clip-path="url(#p5efdb3180f)" d="M 83.011364 559.8 
L 146.353056 559.8 
L 146.353056 410.527101 
L 83.011364 410.527101 
z
" style="fill:#4c72b0;"/>
   </g>
   <g id="patch_21">
    <path clip-path="url(#p5efdb3180f)" d="M 162.18848 559.8 
L 225.530172 559.8 
L 225.530172 417.073168 
L 162.18848 417.073168 
z
" style="fill:#55a868;"/>
   </g>
   <g id="patch_22">
    <path clip-path="url(#p5efdb3180f)" d="M 241.365596 559.8 
L 304.707288 559.8 
L 304.707288 331.437069 
L 241.365596 331.437069 
z
" style="fill:#c44e52;"/>
   </g>
   <g id="patch_23">
    <path clip-path="url(#p5efdb3180f)" d="M 320.542712 559.8 
L 383.884404 559.8 
L 383.884404 417.073168 
L 320.542712 417.073168 
z
" style="fill:#8172b2;"/>
   </g>
   <g id="patch_24">
    <path clip-path="url(#p5efdb3180f)" d="M 399.719828 559.8 
L 463.06152 559.8 
L 463.06152 402.800485 
L 399.719828 402.800485 
z
" style="fill:#ccb974;"/>
   </g>
   <g id="patch_25">
    <path clip-path="url(#p5efdb3180f)" d="M 478.896944 559.8 
L 542.238636 559.8 
L 542.238636 374.255119 
L 478.896944 374.255119 
z
" style="fill:#64b5cd;"/>
   </g>
   <g id="LineCollection_7">
    <path clip-path="url(#p5efdb3180f)" d="M 114.68221 424.439025 
L 114.68221 396.201753 
" style="fill:none;stroke:#000000;stroke-width:2;"/>
   </g>
   <g id="LineCollection_8">
    <path clip-path="url(#p5efdb3180f)" d="M 193.859326 434.820531 
L 193.859326 410.61467 
" style="fill:none;stroke:#000000;stroke-width:2;"/>
   </g>
   <g id="LineCollection_9">
    <path clip-path="url(#p5efdb3180f)" d="M 273.036442 349.578649 
L 273.036442 306.085714 
" style="fill:none;stroke:#000000;stroke-width:2;"/>
   </g>
   <g id="LineCollection_10">
    <path clip-path="url(#p5efdb3180f)" d="M 352.213558 429.544311 
L 352.213558 397.135152 
" style="fill:none;stroke:#000000;stroke-width:2;"/>
   </g>
   <g id="LineCollection_11">
    <path clip-path="url(#p5efdb3180f)" d="M 431.390674 416.026482 
L 431.390674 385.176131 
" style="fill:none;stroke:#000000;stroke-width:2;"/>
   </g>
   <g id="LineCollection_12">
    <path clip-path="url(#p5efdb3180f)" d="M 510.56779 394.720606 
L 510.56779 357.365912 
" style="fill:none;stroke:#000000;stroke-width:2;"/>
   </g>
   <g id="line2d_47">
    <g clip-path="url(#p5efdb3180f)">
     <use style="stroke:#000000;stroke-width:2;" x="114.68221" xlink:href="#m56c4a8869e" y="424.439025"/>
    </g>
   </g>
   <g id="line2d_48">
    <g clip-path="url(#p5efdb3180f)">
     <use style="stroke:#000000;stroke-width:2;" x="114.68221" xlink:href="#m56c4a8869e" y="396.201753"/>
    </g>
   </g>
   <g id="line2d_49">
    <g clip-path="url(#p5efdb3180f)">
     <use style="stroke:#000000;stroke-width:2;" x="193.859326" xlink:href="#m56c4a8869e" y="434.820531"/>
    </g>
   </g>
   <g id="line2d_50">
    <g clip-path="url(#p5efdb3180f)">
     <use style="stroke:#000000;stroke-width:2;" x="193.859326" xlink:href="#m56c4a8869e" y="410.61467"/>
    </g>
   </g>
   <g id="line2d_51">
    <g clip-path="url(#p5efdb3180f)">
     <use style="stroke:#000000;stroke-width:2;" x="273.036442" xlink:href="#m56c4a8869e" y="349.578649"/>
    </g>
   </g>
   <g id="line2d_52">
    <g clip-path="url(#p5efdb3180f)">
     <use style="stroke:#000000;stroke-width:2;" x="273.036442" xlink:href="#m56c4a8869e" y="306.085714"/>
    </g>
   </g>
   <g id="line2d_53">
    <g clip-path="url(#p5efdb3180f)">
     <use style="stroke:#000000;stroke-width:2;" x="352.213558" xlink:href="#m56c4a8869e" y="429.544311"/>
    </g>
   </g>
   <g id="line2d_54">
    <g clip-path="url(#p5efdb3180f)">
     <use style="stroke:#000000;stroke-width:2;" x="352.213558" xlink:href="#m56c4a8869e" y="397.135152"/>
    </g>
   </g>
   <g id="line2d_55">
    <g clip-path="url(#p5efdb3180f)">
     <use style="stroke:#000000;stroke-width:2;" x="431.390674" xlink:href="#m56c4a8869e" y="416.026482"/>
    </g>
   </g>
   <g id="line2d_56">
    <g clip-path="url(#p5efdb3180f)">
     <use style="stroke:#000000;stroke-width:2;" x="431.390674" xlink:href="#m56c4a8869e" y="385.176131"/>
    </g>
   </g>
   <g id="line2d_57">
    <g clip-path="url(#p5efdb3180f)">
     <use style="stroke:#000000;stroke-width:2;" x="510.56779" xlink:href="#m56c4a8869e" y="394.720606"/>
    </g>
   </g>
   <g id="line2d_58">
    <g clip-path="url(#p5efdb3180f)">
     <use style="stroke:#000000;stroke-width:2;" x="510.56779" xlink:href="#m56c4a8869e" y="357.365912"/>
    </g>
   </g>
   <g id="line2d_59">
    <path clip-path="url(#p5efdb3180f)" d="M 114.68221 410.527101 
" style="fill:none;stroke:#000000;stroke-linecap:round;stroke-width:1.75;"/>
   </g>
   <g id="line2d_60">
    <path clip-path="url(#p5efdb3180f)" d="M 193.859326 417.073168 
" style="fill:none;stroke:#000000;stroke-linecap:round;stroke-width:1.75;"/>
   </g>
   <g id="line2d_61">
    <path clip-path="url(#p5efdb3180f)" d="M 273.036442 331.437069 
" style="fill:none;stroke:#000000;stroke-linecap:round;stroke-width:1.75;"/>
   </g>
   <g id="line2d_62">
    <path clip-path="url(#p5efdb3180f)" d="M 352.213558 417.073168 
" style="fill:none;stroke:#000000;stroke-linecap:round;stroke-width:1.75;"/>
   </g>
   <g id="line2d_63">
    <path clip-path="url(#p5efdb3180f)" d="M 431.390674 402.800485 
" style="fill:none;stroke:#000000;stroke-linecap:round;stroke-width:1.75;"/>
   </g>
   <g id="line2d_64">
    <path clip-path="url(#p5efdb3180f)" d="M 510.56779 374.255119 
" style="fill:none;stroke:#000000;stroke-linecap:round;stroke-width:1.75;"/>
   </g>
   <g id="patch_26">
    <path d="M 60.05 559.8 
L 60.05 293.4 
" style="fill:none;"/>
   </g>
   <g id="patch_27">
    <path d="M 565.2 559.8 
L 565.2 293.4 
" style="fill:none;"/>
   </g>
   <g id="patch_28">
    <path d="M 60.05 559.8 
L 565.2 559.8 
" style="fill:none;"/>
   </g>
   <g id="patch_29">
    <path d="M 60.05 293.4 
L 565.2 293.4 
" style="fill:none;"/>
   </g>
  </g>
 </g>
 <defs>
  <clipPath id="p0e5d2123d6">
   <rect height="266.4" width="505.15" x="60.05" y="10.8"/>
  </clipPath>
  <clipPath id="p5efdb3180f">
   <rect height="266.4" width="505.15" x="60.05" y="293.4"/>
  </clipPath>
 </defs>
</svg>
